<svg width="28" height="28" viewBox="0 0 28 28" fill="none" xmlns="http://www.w3.org/2000/svg">
<path d="M28 14C28 6.26801 21.732 0 14 0C6.26801 0 0 6.26801 0 14C0 21.732 6.26801 28 14 28C21.732 28 28 21.732 28 14Z" fill="#BEC5E1"/>
<path d="M5.52396 19.6406C4.68542 19.6406 4 20.326 4 21.1646C4 22.0031 4.68542 22.6885 5.52396 22.6885C6.3625 22.6885 7.04792 22.0031 7.04792 21.1646C7.04792 20.326 6.36979 19.6406 5.52396 19.6406Z" fill="#6515DD"/>
<path d="M24.2854 6.33325L14.6896 9.39575V6.36971L4.34271 9.67284V18.4447L13.2677 15.5937V18.6051L25 14.8645L21.8208 11.7583L24.2854 6.33325ZM13.2677 14.0916L5.77188 16.4833V10.7155L13.2677 8.32388V14.0916ZM22.3458 14.2155L14.6896 16.6583V10.8978L21.7406 8.64471L20.1219 12.0572L22.3458 14.2155Z" fill="#6515DD"/>
</svg>
