<svg width="28" height="28" viewBox="0 0 28 28" fill="none" xmlns="http://www.w3.org/2000/svg">
<path d="M28 14C28 6.26801 21.732 0 14 0C6.26801 0 0 6.26801 0 14C0 21.732 6.26801 28 14 28C21.732 28 28 21.732 28 14Z" fill="#BEC5E1"/>
<g clip-path="url(#clip0_49_1658)">
<path d="M20.8052 8.43176C19.6341 7.89438 18.3782 7.49846 17.065 7.2717C17.0411 7.26733 17.0172 7.27826 17.0049 7.30014C16.8434 7.58741 16.6645 7.96218 16.5392 8.25675C15.1269 8.04531 13.7218 8.04531 12.3384 8.25675C12.2131 7.95564 12.0277 7.58741 11.8654 7.30014C11.8531 7.27899 11.8292 7.26806 11.8053 7.2717C10.4929 7.49774 9.23704 7.89365 8.06515 8.43176C8.05501 8.43613 8.04631 8.44343 8.04054 8.4529C5.65838 12.0118 5.0058 15.4832 5.32593 18.9116C5.32738 18.9284 5.3368 18.9444 5.34984 18.9546C6.92152 20.1088 8.44396 20.8095 9.93814 21.274C9.96205 21.2813 9.98739 21.2725 10.0026 21.2528C10.3561 20.7702 10.6711 20.2612 10.9413 19.726C10.9572 19.6947 10.942 19.6575 10.9094 19.6451C10.4096 19.4555 9.93379 19.2244 9.47604 18.9619C9.43984 18.9408 9.43694 18.889 9.47025 18.8642C9.56657 18.792 9.66292 18.7169 9.7549 18.6411C9.77154 18.6272 9.79473 18.6243 9.8143 18.6331C12.8215 20.006 16.0771 20.006 19.0488 18.6331C19.0684 18.6236 19.0916 18.6265 19.1089 18.6404C19.2009 18.7162 19.2973 18.792 19.3943 18.8642C19.4276 18.889 19.4255 18.9408 19.3893 18.9619C18.9315 19.2295 18.4556 19.4555 17.9552 19.6444C17.9226 19.6568 17.9081 19.6947 17.924 19.726C18.2 20.2605 18.515 20.7694 18.862 21.2521C18.8765 21.2725 18.9025 21.2813 18.9264 21.274C20.4279 20.8095 21.9503 20.1088 23.522 18.9546C23.5357 18.9444 23.5444 18.9291 23.5459 18.9123C23.929 14.9487 22.9042 11.5058 20.8291 8.45362C20.824 8.44343 20.8154 8.43613 20.8052 8.43176ZM11.3903 16.8241C10.485 16.8241 9.73896 15.9929 9.73896 14.9721C9.73896 13.9513 10.4705 13.1201 11.3903 13.1201C12.3174 13.1201 13.0562 13.9586 13.0417 14.9721C13.0417 15.9929 12.3101 16.8241 11.3903 16.8241ZM17.496 16.8241C16.5906 16.8241 15.8446 15.9929 15.8446 14.9721C15.8446 13.9513 16.5761 13.1201 17.496 13.1201C18.4231 13.1201 19.1618 13.9586 19.1474 14.9721C19.1474 15.9929 18.4231 16.8241 17.496 16.8241Z" fill="#5865F2"/>
</g>
<defs>
<clipPath id="clip0_49_1658">
<rect width="18.375" height="18.375" fill="white" transform="translate(5.25 5.25)"/>
</clipPath>
</defs>
</svg>
