<svg width="28" height="28" viewBox="0 0 28 28" fill="none" xmlns="http://www.w3.org/2000/svg">
<path d="M0 14C0 21.732 6.26801 28 14 28C21.732 28 28 21.732 28 14C28 6.26801 21.732 0 14 0C6.26801 0 0 6.26801 0 14Z" fill="#1877F2"/>
<path d="M21 14C21 10.15 17.85 7 14 7C10.15 7 7 10.15 7 14C7 17.5 9.5375 20.3875 12.8625 20.9125V16.0125H11.1125V14H12.8625V12.425C12.8625 10.675 13.9125 9.7125 15.4875 9.7125C16.275 9.7125 17.0625 9.8875 17.0625 9.8875V11.6375H16.1875C15.3125 11.6375 15.05 12.1625 15.05 12.6875V14H16.975L16.625 16.0125H14.9625V21C18.4625 20.475 21 17.5 21 14Z" fill="white"/>
</svg>
