<svg width="28" height="28" viewBox="0 0 28 28" fill="none" xmlns="http://www.w3.org/2000/svg">
<path d="M0 14C0 21.732 6.26801 28 14 28C21.732 28 28 21.732 28 14C28 6.26801 21.732 0 14 0C6.26801 0 0 6.26801 0 14Z" fill="#F00073"/>
<path d="M14 8.0498C15.925 8.0498 16.1875 8.0498 16.975 8.0498C17.675 8.0498 18.025 8.2248 18.2875 8.3123C18.6375 8.4873 18.9 8.57481 19.1625 8.83731C19.425 9.0998 19.6 9.3623 19.6875 9.71231C19.775 9.9748 19.8625 10.3248 19.95 11.0248C19.95 11.8123 19.95 11.9873 19.95 13.9998C19.95 16.0123 19.95 16.1873 19.95 16.9748C19.95 17.6748 19.775 18.0248 19.6875 18.2873C19.5125 18.6373 19.425 18.8998 19.1625 19.1623C18.9 19.4248 18.6375 19.5998 18.2875 19.6873C18.025 19.7748 17.675 19.8623 16.975 19.9498C16.1875 19.9498 16.0125 19.9498 14 19.9498C11.9875 19.9498 11.8125 19.9498 11.025 19.9498C10.325 19.9498 9.97505 19.7748 9.71255 19.6873C9.36255 19.5123 9.10005 19.4248 8.83755 19.1623C8.57505 18.8998 8.40005 18.6373 8.31255 18.2873C8.22505 18.0248 8.13755 17.6748 8.05005 16.9748C8.05005 16.1873 8.05005 16.0123 8.05005 13.9998C8.05005 11.9873 8.05005 11.8123 8.05005 11.0248C8.05005 10.3248 8.22505 9.9748 8.31255 9.71231C8.48755 9.3623 8.57505 9.0998 8.83755 8.83731C9.10005 8.57481 9.36255 8.3998 9.71255 8.3123C9.97505 8.2248 10.325 8.1373 11.025 8.0498C11.8125 8.0498 12.075 8.0498 14 8.0498ZM14 6.7373C11.9875 6.7373 11.8125 6.7373 11.025 6.7373C10.2375 6.7373 9.71255 6.91231 9.27505 7.08731C8.83755 7.26231 8.40005 7.52481 7.96255 7.96231C7.52505 8.39981 7.35005 8.74981 7.08755 9.27481C6.91255 9.71231 6.82505 10.2373 6.73755 11.0248C6.73755 11.8123 6.73755 12.0748 6.73755 13.9998C6.73755 16.0123 6.73755 16.1873 6.73755 16.9748C6.73755 17.7623 6.91255 18.2873 7.08755 18.7248C7.26255 19.1623 7.52505 19.5998 7.96255 20.0373C8.40005 20.4748 8.75005 20.6498 9.27505 20.9123C9.71255 21.0873 10.2375 21.1748 11.025 21.2623C11.8125 21.2623 12.075 21.2623 14 21.2623C15.925 21.2623 16.1875 21.2623 16.975 21.2623C17.7625 21.2623 18.2875 21.0873 18.725 20.9123C19.1625 20.7373 19.6 20.4748 20.0375 20.0373C20.475 19.5998 20.65 19.2498 20.9125 18.7248C21.0875 18.2873 21.175 17.7623 21.2625 16.9748C21.2625 16.1873 21.2625 15.9248 21.2625 13.9998C21.2625 12.0748 21.2625 11.8123 21.2625 11.0248C21.2625 10.2373 21.0875 9.71231 20.9125 9.27481C20.7375 8.83731 20.475 8.39981 20.0375 7.96231C19.6 7.52481 19.25 7.34981 18.725 7.08731C18.2875 6.91231 17.7625 6.8248 16.975 6.7373C16.1875 6.7373 16.0125 6.7373 14 6.7373Z" fill="white"/>
<path d="M14 10.2373C11.9 10.2373 10.2375 11.8998 10.2375 13.9998C10.2375 16.0998 11.9 17.7623 14 17.7623C16.1 17.7623 17.7625 16.0998 17.7625 13.9998C17.7625 11.8998 16.1 10.2373 14 10.2373ZM14 16.4498C12.6875 16.4498 11.55 15.3998 11.55 13.9998C11.55 12.6873 12.6 11.5498 14 11.5498C15.3125 11.5498 16.45 12.5998 16.45 13.9998C16.45 15.3123 15.3125 16.4498 14 16.4498Z" fill="white"/>
<path d="M17.85 11.0248C18.3333 11.0248 18.725 10.6331 18.725 10.1498C18.725 9.66656 18.3333 9.27481 17.85 9.27481C17.3668 9.27481 16.975 9.66656 16.975 10.1498C16.975 10.6331 17.3668 11.0248 17.85 11.0248Z" fill="white"/>
</svg>
