<svg width="28" height="28" viewBox="0 0 28 28" fill="none" xmlns="http://www.w3.org/2000/svg">
<path d="M0 14C0 21.732 6.26801 28 14 28C21.732 28 28 21.732 28 14C28 6.26801 21.732 0 14 0C6.26801 0 0 6.26801 0 14Z" fill="#2867B2"/>
<path d="M10.15 21H7.175V11.6375H10.15V21ZM8.6625 10.325C7.7 10.325 7 9.625 7 8.6625C7 7.7 7.7875 7 8.6625 7C9.625 7 10.325 7.7 10.325 8.6625C10.325 9.625 9.625 10.325 8.6625 10.325ZM21 21H18.025V15.925C18.025 14.4375 17.4125 14 16.5375 14C15.6625 14 14.7875 14.7 14.7875 16.0125V21H11.8125V11.6375H14.6125V12.95C14.875 12.3375 15.925 11.375 17.4125 11.375C19.075 11.375 20.825 12.3375 20.825 15.225V21H21Z" fill="white"/>
</svg>
