<svg width="28" height="28" viewBox="0 0 28 28" fill="none" xmlns="http://www.w3.org/2000/svg">
<g clip-path="url(#clip0_49_1705)">
<path d="M14 28C21.732 28 28 21.732 28 14C28 6.26801 21.732 0 14 0C6.26801 0 0 6.26801 0 14C0 21.732 6.26801 28 14 28Z" fill="white"/>
<path d="M14 0C6.26831 0 0 6.26831 0 14C0 19.9342 3.68724 25.0041 8.89547 27.0436C8.76872 25.9374 8.66502 24.2321 8.94156 23.0222C9.19506 21.9276 10.5778 16.0625 10.5778 16.0625C10.5778 16.0625 10.163 15.2214 10.163 13.9885C10.163 12.0412 11.2922 10.5893 12.6979 10.5893C13.8963 10.5893 14.4724 11.4881 14.4724 12.5597C14.4724 13.758 13.7119 15.5556 13.3086 17.2263C12.9745 18.6206 14.0115 19.7613 15.3827 19.7613C17.8716 19.7613 19.7844 17.1342 19.7844 13.3547C19.7844 10.0016 17.3761 7.66255 13.9309 7.66255C9.94403 7.66255 7.60494 10.6469 7.60494 13.735C7.60494 14.9333 8.06584 16.2239 8.64197 16.9267C8.7572 17.065 8.76872 17.1918 8.73416 17.33C8.63045 17.7679 8.38848 18.7243 8.34239 18.9202C8.28477 19.1737 8.13498 19.2313 7.86996 19.1045C6.11852 18.2864 5.02387 15.7399 5.02387 13.6774C5.02387 9.2642 8.22716 5.20823 14.2765 5.20823C19.1276 5.20823 22.907 8.66502 22.907 13.2971C22.907 18.1251 19.865 22.0082 15.6477 22.0082C14.2305 22.0082 12.8938 21.2708 12.4444 20.3951C12.4444 20.3951 11.7416 23.0683 11.5687 23.7251C11.2576 24.9465 10.4049 26.4675 9.82881 27.4008C11.1424 27.8041 12.5251 28.023 13.977 28.023C21.7086 28.023 27.977 21.7547 27.977 14.023C28 6.26831 21.7317 0 14 0Z" fill="#E60019"/>
</g>
<defs>
<clipPath id="clip0_49_1705">
<rect width="28" height="28" fill="white"/>
</clipPath>
</defs>
</svg>
