<svg width="28" height="28" viewBox="0 0 28 28" fill="none" xmlns="http://www.w3.org/2000/svg">
<path d="M0 14C0 21.732 6.26801 28 14 28C21.732 28 28 21.732 28 14C28 6.26801 21.732 0 14 0C6.26801 0 0 6.26801 0 14Z" fill="#231E1B"/>
<path d="M22.2592 18.5557C19.2782 17.1122 18.8031 14.8835 18.7819 14.7182C18.7564 14.518 18.7273 14.3606 18.9482 14.1569C19.1611 13.9601 20.1059 13.3751 20.3681 13.1921C20.8014 12.8891 20.9922 12.5865 20.8516 12.2146C20.7532 11.9573 20.5137 11.8603 20.2614 11.8603C20.1818 11.8606 20.1024 11.8695 20.0248 11.8869C19.5487 11.9902 19.0864 12.2288 18.8188 12.2933C18.7867 12.3016 18.7536 12.306 18.7205 12.3066C18.5778 12.3066 18.5237 12.2431 18.5375 12.0714C18.5709 11.5509 18.6418 10.5349 18.5596 9.58592C18.447 8.28021 18.026 7.63326 17.5268 7.06109C17.2853 6.78362 16.1639 5.59155 13.9999 5.59155C11.8358 5.59155 10.7159 6.78362 10.4759 7.05765C9.9752 7.62982 9.55469 8.27677 9.44304 9.58248C9.36091 10.5315 9.43468 11.5469 9.46517 12.068C9.47501 12.2313 9.42484 12.3031 9.28221 12.3031C9.24902 12.3025 9.216 12.2981 9.18385 12.2898C8.91678 12.2254 8.45446 11.9868 7.97837 11.8835C7.90071 11.866 7.82138 11.8571 7.7418 11.8569C7.4885 11.8569 7.24997 11.9553 7.1516 12.2111C7.01094 12.5831 7.20078 12.8856 7.63556 13.1887C7.89771 13.3717 8.84252 13.9562 9.05548 14.1534C9.27582 14.3571 9.24729 14.5146 9.22172 14.7148C9.20057 14.8826 8.72497 17.1112 5.74447 18.5522C5.56987 18.6368 5.27281 18.8159 5.79661 19.1052C6.61895 19.5598 7.16635 19.5111 7.59179 19.7851C7.95279 20.0178 7.73934 20.5196 8.00198 20.7007C8.32462 20.9236 9.27828 20.6849 10.5103 21.0918C11.5432 21.4323 12.1707 22.3941 14.0023 22.3941C15.8339 22.3941 16.4797 21.4278 17.4943 21.0918C18.7239 20.6849 19.6795 20.9236 20.0027 20.7007C20.2648 20.5196 20.0518 20.0178 20.4128 19.7851C20.8383 19.5111 21.3852 19.5598 22.208 19.1052C22.7308 18.8194 22.4338 18.6403 22.2592 18.5557Z" fill="white"/>
<path d="M23.5562 18.386C23.4224 18.0219 23.1676 17.8271 22.8775 17.6657C22.8229 17.6337 22.7727 17.6081 22.7299 17.5885C22.6433 17.5437 22.5548 17.5004 22.4668 17.4547C21.5623 16.975 20.856 16.3698 20.3662 15.6525C20.2271 15.4506 20.1064 15.2365 20.0057 15.013C19.9638 14.8934 19.9658 14.8255 19.9958 14.7635C20.0256 14.7158 20.0649 14.6747 20.1114 14.643C20.2668 14.5402 20.4272 14.4359 20.5358 14.3655C20.7296 14.2401 20.8831 14.1407 20.9819 14.0703C21.3533 13.8106 21.613 13.5346 21.7753 13.2261C21.8885 13.013 21.9545 12.778 21.9689 12.537C21.9832 12.2961 21.9455 12.0549 21.8584 11.8299C21.6125 11.1824 21.0011 10.7805 20.2604 10.7805C20.1042 10.7803 19.9484 10.7968 19.7956 10.8297C19.7548 10.8385 19.714 10.8479 19.6742 10.8582C19.681 10.4154 19.6712 9.94805 19.6319 9.48805C19.4922 7.87092 18.9261 7.02324 18.3359 6.34726C17.9579 5.92367 17.5128 5.56529 17.0183 5.28656C16.1226 4.7749 15.107 4.51514 13.9999 4.51514C12.8928 4.51514 11.8821 4.7749 10.9855 5.28656C10.4898 5.56538 10.0437 5.92447 9.6654 6.34923C9.0752 7.02521 8.5091 7.87436 8.36942 9.49002C8.33008 9.95002 8.32024 10.4199 8.32663 10.8602C8.28679 10.8498 8.24646 10.8405 8.20564 10.8316C8.0529 10.7988 7.8971 10.7823 7.74086 10.7824C6.99967 10.7824 6.38734 11.1844 6.14241 11.8318C6.05486 12.057 6.0168 12.2984 6.0308 12.5395C6.0448 12.7807 6.11055 13.016 6.22356 13.2295C6.38636 13.538 6.64605 13.814 7.01738 14.0738C7.11574 14.1427 7.26969 14.242 7.46347 14.369C7.56823 14.4369 7.72119 14.5362 7.8712 14.6356C7.92368 14.6696 7.96829 14.7143 8.00202 14.767C8.0335 14.8314 8.03449 14.9008 7.98776 15.0287C7.88838 15.2476 7.76971 15.4572 7.63315 15.655C7.15411 16.3561 6.4685 16.9504 5.59304 17.4261C5.12924 17.6721 4.64724 17.8364 4.44363 18.3899C4.29018 18.8076 4.39051 19.2828 4.78053 19.6833C4.92367 19.8328 5.08969 19.9585 5.27236 20.0557C5.65244 20.2647 6.0566 20.4264 6.47587 20.5374C6.56239 20.5597 6.64453 20.5965 6.71884 20.6461C6.86098 20.7706 6.84081 20.958 7.03017 21.2325C7.12522 21.3744 7.246 21.4972 7.38625 21.5946C7.78365 21.8692 8.23023 21.8864 8.70338 21.9046C9.13078 21.9208 9.61523 21.9395 10.1685 22.122C10.3977 22.1978 10.6358 22.3444 10.9117 22.5156C11.5742 22.923 12.4811 23.4804 13.9989 23.4804C15.5167 23.4804 16.43 22.92 17.0975 22.5112C17.3714 22.3429 17.608 22.1978 17.8308 22.124C18.3841 21.941 18.8685 21.9228 19.2959 21.9066C19.7691 21.8884 20.2157 21.8711 20.6131 21.5966C20.7792 21.4808 20.9176 21.3295 21.0183 21.1538C21.1546 20.9221 21.1511 20.7603 21.279 20.6471C21.3487 20.5998 21.4259 20.5646 21.5072 20.5428C21.9322 20.4315 22.3419 20.2682 22.727 20.0567C22.921 19.9526 23.0957 19.8158 23.2434 19.6523L23.2483 19.6464C23.6142 19.2548 23.7062 18.7933 23.5562 18.386ZM22.2071 19.1111C21.3843 19.5657 20.8373 19.517 20.4119 19.7911C20.0504 20.0238 20.2644 20.5256 20.0017 20.7066C19.6791 20.9295 18.7254 20.6909 17.4934 21.0977C16.4773 21.4338 15.829 22.4 14.0014 22.4C12.1737 22.4 11.5407 21.4357 10.5079 21.0953C9.27833 20.6884 8.3227 20.927 7.99957 20.7042C7.73742 20.5231 7.95038 20.0213 7.58938 19.7886C7.16345 19.5146 6.61654 19.5633 5.79419 19.1111C5.27039 18.8219 5.56746 18.6428 5.74206 18.5582C8.72256 17.1147 9.19816 14.886 9.21931 14.7207C9.24488 14.5205 9.27341 14.3631 9.05307 14.1594C8.8401 13.9626 7.8953 13.3776 7.63315 13.1946C7.19936 12.8916 7.00853 12.589 7.14919 12.2171C7.24756 11.9597 7.48757 11.8628 7.73939 11.8628C7.81897 11.8631 7.8983 11.872 7.97596 11.8894C8.45205 11.9927 8.91437 12.2313 9.18144 12.2958C9.21359 12.304 9.24661 12.3085 9.2798 12.3091C9.42243 12.3091 9.4726 12.2372 9.46276 12.0739C9.43227 11.5529 9.35849 10.5374 9.44063 9.58841C9.55326 8.2827 9.97378 7.63575 10.4735 7.06358C10.7135 6.78857 11.8413 5.5965 13.9979 5.5965C16.1546 5.5965 17.2853 6.78365 17.5253 7.05768C18.0255 7.62985 18.4465 8.2768 18.5582 9.58251C18.6403 10.5315 18.5695 11.5475 18.5361 12.068C18.5248 12.2397 18.5764 12.3031 18.719 12.3031C18.7522 12.3026 18.7852 12.2982 18.8174 12.2899C19.0849 12.2254 19.5473 11.9868 20.0234 11.8835C20.101 11.8661 20.1803 11.8572 20.2599 11.8569C20.5132 11.8569 20.7518 11.9553 20.8501 12.2111C20.9908 12.5831 20.8009 12.8857 20.3667 13.1887C20.1045 13.3717 19.1597 13.9562 18.9467 14.1535C18.7259 14.3572 18.7549 14.5146 18.7805 14.7148C18.8017 14.8826 19.2768 17.1113 22.2577 18.5523C22.4338 18.6403 22.7309 18.8194 22.2071 19.1111Z" fill="black"/>
</svg>
