<svg width="28" height="28" viewBox="0 0 28 28" fill="none" xmlns="http://www.w3.org/2000/svg">
<path d="M14 28C21.732 28 28 21.732 28 14C28 6.26801 21.732 0 14 0C6.26801 0 0 6.26801 0 14C0 21.732 6.26801 28 14 28Z" fill="url(#paint0_linear_49_1704)"/>
<path fill-rule="evenodd" clip-rule="evenodd" d="M6.33719 13.8524C10.4185 12.0743 13.14 10.902 14.5017 10.3356C18.3896 8.71851 19.1975 8.4376 19.7241 8.42832C19.8399 8.42628 20.0988 8.45498 20.2666 8.59109C20.4082 8.70602 20.4472 8.86126 20.4658 8.97023C20.4845 9.07919 20.5077 9.32741 20.4892 9.52136C20.2785 11.7351 19.3669 17.1072 18.9031 19.5866C18.7069 20.6358 18.3204 20.9875 17.9463 21.022C17.1333 21.0968 16.516 20.4847 15.7285 19.9685C14.4963 19.1608 13.8002 18.658 12.6042 17.8698C11.222 16.9589 12.118 16.4583 12.9057 15.6401C13.1119 15.426 16.694 12.1678 16.7633 11.8722C16.772 11.8353 16.7801 11.6975 16.6982 11.6247C16.6163 11.552 16.4955 11.5768 16.4083 11.5966C16.2848 11.6247 14.3163 12.9257 10.5031 15.4998C9.94433 15.8835 9.43825 16.0704 8.98482 16.0606C8.48494 16.0498 7.52339 15.778 6.80857 15.5456C5.93182 15.2606 5.235 15.1099 5.29568 14.6259C5.32728 14.3738 5.67445 14.116 6.33719 13.8524Z" fill="white"/>
<defs>
<linearGradient id="paint0_linear_49_1704" x1="14" y1="0" x2="14" y2="27.7923" gradientUnits="userSpaceOnUse">
<stop stop-color="#2AABEE"/>
<stop offset="1" stop-color="#229ED9"/>
</linearGradient>
</defs>
</svg>
