<svg width="28" height="28" viewBox="0 0 28 28" fill="none" xmlns="http://www.w3.org/2000/svg">
<path d="M0 14C0 6.26801 6.26801 0 14 0C21.732 0 28 6.26801 28 14C28 21.732 21.732 28 14 28C6.26801 28 0 21.732 0 14Z" fill="black"/>
<path d="M12.6861 12.5123V11.9673C12.4994 11.9424 12.3095 11.9268 12.1135 11.9268C9.7764 11.9237 7.875 13.8267 7.875 16.1688C7.875 17.6046 8.59075 18.8754 9.68616 19.6447C8.97974 18.8879 8.54718 17.8694 8.54718 16.7544C8.54718 14.4465 10.3957 12.5653 12.6861 12.5123Z" fill="#25F4EE"/>
<path d="M12.7888 18.6921C13.8313 18.6921 14.684 17.8605 14.7213 16.8265L14.7244 7.58554H16.4111C16.3769 7.39555 16.3582 7.19933 16.3582 7H14.0553L14.0522 16.2409C14.0149 17.275 13.1622 18.1065 12.1197 18.1065C11.7961 18.1065 11.4911 18.0256 11.2204 17.8823C11.5689 18.3713 12.1415 18.6921 12.7888 18.6921Z" fill="#25F4EE"/>
<path d="M19.5636 10.7215V10.2077C18.9194 10.2077 18.3219 10.0177 17.8177 9.6875C18.2659 10.2014 18.8727 10.5752 19.5636 10.7215Z" fill="#25F4EE"/>
<path d="M17.8178 9.68826C17.3261 9.12454 17.0304 8.3895 17.0304 7.58594H16.4143C16.573 8.46425 17.0958 9.21798 17.8178 9.68826Z" fill="#FE2C55"/>
<path d="M12.1165 14.229C11.0491 14.229 10.1809 15.098 10.1809 16.1663C10.1809 16.9107 10.6041 17.5585 11.2203 17.8824C10.99 17.5647 10.8531 17.1754 10.8531 16.7518C10.8531 15.6835 11.7213 14.8146 12.7887 14.8146C12.9879 14.8146 13.1808 14.8488 13.3613 14.9049V12.5503C13.1746 12.5254 12.9848 12.5098 12.7887 12.5098C12.7545 12.5098 12.7234 12.5129 12.6891 12.5129V14.3193C12.5055 14.2633 12.3157 14.229 12.1165 14.229Z" fill="#FE2C55"/>
<path d="M19.5634 10.7217V12.5125C18.3684 12.5125 17.2605 12.1295 16.358 11.4816V16.1691C16.358 18.5081 14.4567 20.4142 12.1165 20.4142C11.214 20.4142 10.3738 20.1277 9.68604 19.6449C10.4609 20.4765 11.5656 20.9998 12.7887 20.9998C15.1257 20.9998 17.0302 19.0968 17.0302 16.7546V12.0672C17.9327 12.715 19.0405 13.0981 20.2355 13.0981V10.7933C20.0021 10.7933 19.7781 10.7684 19.5634 10.7217Z" fill="#FE2C55"/>
<path d="M16.3581 16.1697V11.4822C17.2606 12.1301 18.3684 12.5132 19.5634 12.5132V10.7223C18.8726 10.5759 18.2657 10.2022 17.8176 9.68826C17.0956 9.21798 16.576 8.46425 16.411 7.58594H14.7243L14.7212 16.8268C14.6839 17.8609 13.8312 18.6925 12.7887 18.6925C12.1414 18.6925 11.5719 18.3717 11.2172 17.8858C10.601 17.5588 10.1778 16.9141 10.1778 16.1697C10.1778 15.1014 11.046 14.2324 12.1134 14.2324C12.3126 14.2324 12.5055 14.2667 12.686 14.3227V12.5163C10.3956 12.5661 8.54712 14.4473 8.54712 16.7552C8.54712 17.8702 8.97968 18.8856 9.68609 19.6456C10.3738 20.1283 11.2141 20.4149 12.1165 20.4149C14.4536 20.4149 16.3581 18.5087 16.3581 16.1697Z" fill="white"/>
</svg>
