<svg width="28" height="28" viewBox="0 0 28 28" fill="none" xmlns="http://www.w3.org/2000/svg">
<path d="M28 14C28 6.26801 21.732 0 14 0C6.26801 0 0 6.26801 0 14C0 21.732 6.26801 28 14 28C21.732 28 28 21.732 28 14Z" fill="#9146FF"/>
<path d="M10.5018 8.25L8.00183 10.75V19.75H11.0018V22.25L13.5018 19.75H15.5018L20.0018 15.25V8.25H10.5018ZM19.0018 14.75L17.0018 16.75H15.0018L13.2518 18.5V16.75H11.0018V9.25H19.0018V14.75Z" fill="white"/>
<path d="M17.5018 11H16.5018V14H17.5018V11Z" fill="white"/>
<path d="M14.7518 11H13.7518V14H14.7518V11Z" fill="white"/>
</svg>
