<svg width="28" height="28" viewBox="0 0 28 28" fill="none" xmlns="http://www.w3.org/2000/svg">
<path d="M0 14C0 21.732 6.26801 28 14 28C21.732 28 28 21.732 28 14C28 6.26801 21.732 0 14 0C6.26801 0 0 6.26801 0 14Z" fill="#1DA1F2"/>
<path d="M21 9.625C20.475 9.8875 19.95 9.975 19.3375 10.0625C19.95 9.7125 20.3875 9.1875 20.5625 8.4875C20.0375 8.8375 19.425 9.0125 18.725 9.1875C18.2 8.6625 17.4125 8.3125 16.625 8.3125C14.7875 8.3125 13.3875 10.0625 13.825 11.8125C11.4625 11.725 9.3625 10.5875 7.875 8.8375C7.0875 10.15 7.525 11.8125 8.75 12.6875C8.3125 12.6875 7.875 12.5125 7.4375 12.3375C7.4375 13.65 8.4 14.875 9.7125 15.225C9.275 15.3125 8.8375 15.4 8.4 15.3125C8.75 16.45 9.8 17.325 11.1125 17.325C10.0625 18.1125 8.4875 18.55 7 18.375C8.3125 19.1625 9.8 19.6875 11.375 19.6875C16.7125 19.6875 19.6875 15.225 19.5125 11.1125C20.125 10.7625 20.65 10.2375 21 9.625Z" fill="white"/>
</svg>
