<svg width="28" height="28" viewBox="0 0 28 28" fill="none" xmlns="http://www.w3.org/2000/svg">
<path d="M0 14C0 21.732 6.26801 28 14 28C21.732 28 28 21.732 28 14C28 6.26801 21.732 0 14 0C6.26801 0 0 6.26801 0 14Z" fill="#1AB7EA"/>
<path d="M7 11.2002L7.6125 11.9877C7.6125 11.9877 8.75 11.0252 9.1875 11.5502C9.5375 11.9877 11.1125 17.5877 11.55 18.6377C11.9875 19.5127 13.2125 20.7377 14.525 19.8627C15.8375 18.9877 20.2125 15.3127 21 10.8502C21.7875 6.47519 15.75 7.35019 15.1375 11.2002C16.625 10.2377 17.5 11.5502 16.625 13.1252C15.8375 14.6127 15.05 15.6627 14.7 15.6627C14.35 15.6627 14 14.6127 13.5625 12.8627C13.125 10.9377 13.125 7.61269 11.2 8.05019C9.3625 8.40019 7 11.2002 7 11.2002Z" fill="white"/>
</svg>
