<svg width="28" height="28" viewBox="0 0 28 28" fill="none" xmlns="http://www.w3.org/2000/svg">
<circle cx="14" cy="14" r="14" fill="#1ED760"/>
<path d="M22.2817 12.4112C22.9022 12.7806 23.7068 12.5756 24.0758 11.9534C24.4448 11.332 24.2407 10.5283 23.6182 10.1589C18.423 7.07505 10.2021 6.78488 5.25689 8.28625C4.56442 8.49668 4.17435 9.22766 4.38411 9.9199C4.59364 10.6117 5.32508 11.0022 6.01687 10.7922C10.3251 9.48476 17.7688 9.73121 22.2817 12.4112Z" fill="white"/>
<path d="M22.1338 16.3807C22.4495 15.8681 22.2878 15.1963 21.7745 14.8801C17.4536 12.2248 11.1323 11.4771 6.04763 13.0203C5.47114 13.1959 5.14585 13.8043 5.31959 14.3815C5.49515 14.9575 6.10449 15.2828 6.68189 15.1084C11.133 13.7577 16.8701 14.4275 20.6324 16.7402C21.1457 17.0555 21.8171 16.8945 22.1338 16.3807Z" fill="white"/>
<path d="M20.4209 20.193C20.6723 19.7814 20.5427 19.2439 20.1316 18.9926C16.4411 16.7379 11.8668 16.2133 6.53357 17.4322C6.06286 17.5395 5.76975 18.0075 5.87734 18.4773C5.98471 18.9464 6.45248 19.2409 6.92206 19.1333C11.7957 18.02 15.9333 18.4739 19.221 20.4831C19.6321 20.7346 20.1694 20.6055 20.4209 20.193Z" fill="white"/>
</svg>
