<svg width="30" height="31" viewBox="0 0 30 31" fill="none" xmlns="http://www.w3.org/2000/svg">
<g filter="url(#filter0_d_49_2081)">
<mask id="mask0_49_2081" style="mask-type:alpha" maskUnits="userSpaceOnUse" x="1" y="1" width="28" height="28">
<rect x="1" y="1" width="28" height="28" rx="6.18447" fill="#FEFEFE"/>
</mask>
<g mask="url(#mask0_49_2081)">
<rect x="1" y="1" width="28" height="28" rx="6.18447" fill="url(#paint0_linear_49_2081)"/>
<g filter="url(#filter1_i_49_2081)">
<path d="M20.2669 16.7364V10.1297C20.2669 9.87211 20.0311 9.67906 19.7786 9.72996L12.2215 11.2536C11.9994 11.2983 11.8397 11.4934 11.8397 11.7199V21.4132C11.8397 22.8816 10.6736 24.0846 9.20595 24.1303L8.62834 24.1483C7.40131 24.1865 6.38586 23.2022 6.38586 21.9746V21.918C6.38586 20.8916 7.09292 20.0004 8.09245 19.7671L10.1485 19.287C10.5022 19.2045 10.7524 18.8891 10.7524 18.526V7.73224C10.7524 7.34453 11.0253 7.01042 11.4053 6.93309L20.4984 5.0824C20.9406 4.9924 21.3543 5.33036 21.3543 5.78166V19.4111C21.3543 20.8671 20.2233 22.0727 18.7702 22.1656L18.1782 22.2034C16.9927 22.2791 15.9681 21.3844 15.8834 20.1995C15.796 19.0721 16.5586 18.0549 17.6652 17.8228L19.7377 17.3881C20.0461 17.3235 20.2669 17.0515 20.2669 16.7364Z" fill="white"/>
</g>
</g>
</g>
<defs>
<filter id="filter0_d_49_2081" x="0.209951" y="0.617718" width="29.5801" height="29.5801" filterUnits="userSpaceOnUse" color-interpolation-filters="sRGB">
<feFlood flood-opacity="0" result="BackgroundImageFix"/>
<feColorMatrix in="SourceAlpha" type="matrix" values="0 0 0 0 0 0 0 0 0 0 0 0 0 0 0 0 0 0 127 0" result="hardAlpha"/>
<feOffset dy="0.407767"/>
<feGaussianBlur stdDeviation="0.395024"/>
<feComposite in2="hardAlpha" operator="out"/>
<feColorMatrix type="matrix" values="0 0 0 0 0 0 0 0 0 0 0 0 0 0 0 0 0 0 0.25 0"/>
<feBlend mode="normal" in2="BackgroundImageFix" result="effect1_dropShadow_49_2081"/>
<feBlend mode="normal" in="SourceGraphic" in2="effect1_dropShadow_49_2081" result="shape"/>
</filter>
<filter id="filter1_i_49_2081" x="6.38586" y="5.06787" width="14.9684" height="19.4213" filterUnits="userSpaceOnUse" color-interpolation-filters="sRGB">
<feFlood flood-opacity="0" result="BackgroundImageFix"/>
<feBlend mode="normal" in="SourceGraphic" in2="BackgroundImageFix" result="shape"/>
<feColorMatrix in="SourceAlpha" type="matrix" values="0 0 0 0 0 0 0 0 0 0 0 0 0 0 0 0 0 0 127 0" result="hardAlpha"/>
<feOffset dy="0.339806"/>
<feGaussianBlur stdDeviation="0.237864"/>
<feComposite in2="hardAlpha" operator="arithmetic" k2="-1" k3="1"/>
<feColorMatrix type="matrix" values="0 0 0 0 0.631373 0 0 0 0 0.298039 0 0 0 0 0.290196 0 0 0 1 0"/>
<feBlend mode="normal" in2="shape" result="effect1_innerShadow_49_2081"/>
</filter>
<linearGradient id="paint0_linear_49_2081" x1="15" y1="1" x2="15" y2="29" gradientUnits="userSpaceOnUse">
<stop stop-color="#E96777"/>
<stop offset="1" stop-color="#E63E45"/>
</linearGradient>
</defs>
</svg>
