<svg width="28" height="28" viewBox="0 0 28 28" fill="none" xmlns="http://www.w3.org/2000/svg">
<path d="M0 14C0 21.732 6.26801 28 14 28C21.732 28 28 21.732 28 14C28 6.26801 21.732 0 14 0C6.26801 0 0 6.26801 0 14Z" fill="#FF0000"/>
<path d="M20.65 10.5871C20.475 9.97461 20.0375 9.53711 19.425 9.36211C18.375 9.09961 13.9125 9.09961 13.9125 9.09961C13.9125 9.09961 9.53751 9.09961 8.40001 9.36211C7.78751 9.53711 7.35 9.97461 7.175 10.5871C7 11.7246 7 13.9996 7 13.9996C7 13.9996 7 16.2746 7.2625 17.4121C7.4375 18.0246 7.875 18.4621 8.4875 18.6371C9.5375 18.8996 14 18.8996 14 18.8996C14 18.8996 18.375 18.8996 19.5125 18.6371C20.125 18.4621 20.5625 18.0246 20.7375 17.4121C21 16.2746 21 13.9996 21 13.9996C21 13.9996 21 11.7246 20.65 10.5871ZM12.6 16.0996V11.8996L16.275 13.9996L12.6 16.0996Z" fill="white"/>
</svg>
