<svg width="28" height="28" viewBox="0 0 28 28" fill="none" xmlns="http://www.w3.org/2000/svg">
<circle cx="14" cy="14" r="14" fill="url(#paint0_linear_49_1679)"/>
<path fill-rule="evenodd" clip-rule="evenodd" d="M21.6035 13.0666C21.2413 13.0666 20.8949 13.1314 20.5754 13.2487C20.2037 11.0286 18.212 9.33325 15.8103 9.33325C15.8103 9.33325 13.6379 9.33325 13.6379 10.4999V17.9659C13.6379 18.3521 13.9623 18.6666 14.3624 18.6666H21.6035C23.2032 18.6666 24.5 17.413 24.5 15.8666C24.5 14.3202 23.2032 13.0666 21.6035 13.0666ZM12.1896 16.1L12.3103 18.3166C12.3103 18.5098 12.4725 18.6666 12.6724 18.6666C12.8723 18.6666 13.0345 18.5098 13.0345 18.3166L13.1552 16.1L13.0345 10.6166C13.0345 10.4234 12.8723 10.2666 12.6724 10.2666C12.4725 10.2666 12.3103 10.4234 12.3103 10.6166L12.1896 16.1ZM10.7414 16.0999L10.8621 18.3165C10.8621 18.5097 11.0243 18.6665 11.2241 18.6665C11.424 18.6665 11.5862 18.5097 11.5862 18.3165L11.7069 16.0999L11.5862 12.0165C11.5862 11.8233 11.424 11.6665 11.2241 11.6665C11.0243 11.6665 10.8621 11.8233 10.8621 12.0165L10.7414 16.0999ZM9.41379 18.3165L9.2931 16.0999L9.41379 11.5499C9.41379 11.3567 9.57599 11.1999 9.77585 11.1999C9.97572 11.1999 10.1379 11.3567 10.1379 11.5499L10.2586 16.0999L10.1379 18.3165C10.1379 18.5097 9.97572 18.6665 9.77585 18.6665C9.57599 18.6665 9.41379 18.5097 9.41379 18.3165ZM7.84484 16.0999L7.96553 18.3166C7.96553 18.5098 8.12774 18.6666 8.3276 18.6666C8.52746 18.6666 8.68967 18.5098 8.68967 18.3166L8.81036 16.0999L8.68967 12.4832C8.68967 12.29 8.52746 12.1332 8.3276 12.1332C8.12774 12.1332 7.96553 12.29 7.96553 12.4832L7.84484 16.0999ZM6.51724 18.3166L6.39655 16.1L6.51724 14.35C6.51724 14.1568 6.67944 14 6.87931 14C7.07917 14 7.24138 14.1568 7.24138 14.35L7.36207 16.1L7.24138 18.3166C7.24138 18.5098 7.07917 18.6666 6.87931 18.6666C6.67944 18.6666 6.51724 18.5098 6.51724 18.3166ZM4.94829 16.1L5.06898 18.3166C5.06898 18.5098 5.23119 18.6666 5.43105 18.6666C5.63091 18.6666 5.79312 18.5098 5.79312 18.3166L5.91381 16.1L5.79312 13.8833C5.79312 13.6901 5.63091 13.5333 5.43105 13.5333C5.23119 13.5333 5.06898 13.6901 5.06898 13.8833L4.94829 16.1ZM3.62069 17.3832L3.5 16.0999L3.62069 14.8165C3.62069 14.6233 3.7829 14.4665 3.98276 14.4665C4.18262 14.4665 4.34483 14.6233 4.34483 14.8165L4.46552 16.0999L4.34483 17.3832C4.34483 17.5764 4.18262 17.7332 3.98276 17.7332C3.7829 17.7332 3.62069 17.5764 3.62069 17.3832Z" fill="white"/>
<defs>
<linearGradient id="paint0_linear_49_1679" x1="0" y1="0" x2="0" y2="28" gradientUnits="userSpaceOnUse">
<stop stop-color="#FF7700"/>
<stop offset="1" stop-color="#FF3300"/>
</linearGradient>
</defs>
</svg>
