<svg width="28" height="28" viewBox="0 0 28 28" fill="none" xmlns="http://www.w3.org/2000/svg">
<circle cx="14" cy="14" r="14" fill="#131921"/>
<path fill-rule="evenodd" clip-rule="evenodd" d="M20.7721 18.5996C21.4325 18.5184 22.4819 18.5686 22.6885 18.838H22.6884C22.8454 19.0431 22.6832 19.9652 22.4173 20.6262C22.1495 21.2835 21.7504 21.7481 21.5299 21.9274C21.3064 22.1069 21.142 22.0374 21.261 21.768C21.3841 21.4986 22.0585 19.828 21.7912 19.4773C21.5437 19.1531 20.4207 19.2705 19.899 19.325C19.8602 19.3291 19.8247 19.3328 19.7932 19.3359C19.6829 19.3459 19.5941 19.3558 19.5222 19.3638C19.2976 19.3889 19.2376 19.3956 19.2041 19.3266C19.1177 19.0835 20.1106 18.6785 20.7721 18.5996ZM5.17338 18.8698C8.23515 20.7396 12.9745 23.634 20.5283 20.033H20.5282C20.8538 19.8969 21.0813 20.1241 20.7592 20.5361C20.4349 20.9516 17.8425 23.3333 13.4847 23.3333C9.13003 23.3333 5.79382 20.3532 4.77582 19.1168C4.49698 18.796 4.81836 18.6511 5.00744 18.7685C5.0622 18.8019 5.11751 18.8357 5.17338 18.8698Z" fill="#FF9900"/>
<path fill-rule="evenodd" clip-rule="evenodd" d="M17.703 5.86923C16.7536 4.97996 15.2057 4.66675 14.0179 4.66675C11.6739 4.66675 9.05603 5.54208 8.50471 8.44569C8.44923 8.75487 8.67114 8.91806 8.87221 8.96331L11.2648 9.22028C11.4867 9.20989 11.6496 8.99105 11.6913 8.76871C11.8959 7.7684 12.735 7.28564 13.6747 7.28564C14.181 7.28564 14.7566 7.47321 15.0583 7.92823C15.3397 8.34402 15.3601 8.88595 15.3583 9.39123L15.3582 9.42813L15.3578 9.48321L15.357 9.5922L15.3568 9.62813L15.3566 9.66384L15.3565 9.71696V10.0365C15.1993 10.0545 15.0369 10.0717 14.8703 10.089L14.7791 10.0984L14.4542 10.1317L14.36 10.1415C13.1312 10.2691 11.7644 10.4338 10.7204 10.8944C9.17743 11.5613 8.09204 12.9263 8.09204 14.9304C8.09204 17.4971 9.70792 18.7788 11.7815 18.7788C13.536 18.7788 14.4931 18.3655 15.8454 16.9831C15.8679 17.0156 15.8897 17.0472 15.9108 17.0781L15.9359 17.1148L15.9482 17.1329L15.9724 17.1687L15.9962 17.2037L16.076 17.322L16.098 17.3547L16.1199 17.3869L16.1307 17.4028L16.1523 17.4344C16.4173 17.8216 16.6546 18.1257 17.2601 18.6294C17.442 18.7258 17.6749 18.7165 17.8377 18.5748L17.8426 18.5705L17.8495 18.5774L17.8644 18.5641L17.9263 18.5092L17.9916 18.4514L18.0778 18.3753L18.1316 18.3278L18.2056 18.2627L18.3012 18.1787L18.4197 18.0747L18.4803 18.0217L18.5826 17.9322L18.6862 17.8419L18.7905 17.7511L18.874 17.6786L18.9572 17.6064L19.0399 17.5348L19.1014 17.4817L19.1824 17.4119L19.2619 17.3435L19.3205 17.2932L19.378 17.2439L19.4157 17.2118L19.4711 17.1645L19.5072 17.1337L19.5602 17.0888L19.5946 17.0597L19.6447 17.0173L19.6771 16.99L19.7086 16.9636L19.7393 16.9379C19.9404 16.7713 19.9057 16.5038 19.7462 16.2815C19.7237 16.2502 19.7011 16.2193 19.6785 16.1885L19.6513 16.1517L19.6378 16.1333L19.5836 16.0602L19.5567 16.0237L19.5298 15.9873C19.1546 15.4774 18.8169 14.9641 18.8169 13.9926V10.1442C18.8169 10.079 18.8171 10.014 18.8174 9.94933L18.8179 9.85242L18.8192 9.61171C18.8262 8.19038 18.7994 6.89479 17.7316 5.89635L17.703 5.86923ZM11.6913 14.5032C11.6913 12.3983 13.5741 12.0163 15.3565 12.0163L15.3565 12.58L15.3567 12.8072L15.3567 12.8631C15.3557 13.6904 15.3273 14.4096 14.8953 15.17C14.5034 15.8647 13.8828 16.2919 13.1893 16.2919C12.2426 16.2919 11.6913 15.5694 11.6913 14.5032Z" fill="white"/>
</svg>
