<svg width="25" height="32" viewBox="0 0 25 32" fill="none" xmlns="http://www.w3.org/2000/svg">
<path d="M23 4V20.0046H3L3 4.00031L23 4ZM20.75 5.5H5.24999C4.83579 5.5 4.49999 5.83579 4.49999 6.25V17.7546C4.49999 18.1688 4.83579 18.5046 5.24999 18.5046H20.75C21.1642 18.5046 21.5 18.1688 21.5 17.7546V6.25C21.5 5.83579 21.1642 5.5 20.75 5.5ZM10.75 12.5C11.1642 12.5 11.5 12.8358 11.5 13.25V13.7427L11.4921 13.8513C11.3293 14.9642 10.3977 15.5009 8.99995 15.5009C7.60213 15.5009 6.67048 14.9637 6.50787 13.8501L6.49999 13.7418V13.25C6.49999 12.8358 6.83579 12.5 7.25 12.5H10.75ZM14.2523 12.9961H18.75C19.1642 12.9961 19.5 13.3319 19.5 13.7461C19.5 14.1258 19.2178 14.4396 18.8518 14.4893L18.75 14.4961H14.2523C13.8381 14.4961 13.5023 14.1604 13.5023 13.7461C13.5023 13.3664 13.7844 13.0526 14.1505 13.003L14.2523 12.9961ZM9 8.50218C9.82841 8.50218 10.5 9.17374 10.5 10.0022C10.5 10.8306 9.82841 11.5021 9 11.5021C8.17159 11.5021 7.50003 10.8306 7.50003 10.0022C7.50003 9.17374 8.17159 8.50218 9 8.50218ZM14.2523 9.5H18.75C19.1642 9.5 19.5 9.83579 19.5 10.25C19.5 10.6297 19.2178 10.9435 18.8518 10.9932L18.75 11H14.2523C13.8381 11 13.5023 10.6642 13.5023 10.25C13.5023 9.8703 13.7844 9.55651 14.1505 9.50685L14.2523 9.5Z" fill="white"/>
<path d="M5.69275 23.424L3.58875 29H2.74875L0.64475 23.424H1.42075L3.17275 28.232L4.92475 23.424H5.69275ZM6.219 26.8C6.219 26.3467 6.30967 25.952 6.491 25.616C6.67233 25.2747 6.923 25.0107 7.243 24.824C7.56833 24.6373 7.939 24.544 8.355 24.544C8.89367 24.544 9.33633 24.6747 9.683 24.936C10.035 25.1973 10.267 25.56 10.379 26.024H9.595C9.52033 25.7573 9.37367 25.5467 9.155 25.392C8.94167 25.2373 8.675 25.16 8.355 25.16C7.939 25.16 7.603 25.304 7.347 25.592C7.091 25.8747 6.963 26.2773 6.963 26.8C6.963 27.328 7.091 27.736 7.347 28.024C7.603 28.312 7.939 28.456 8.355 28.456C8.675 28.456 8.94167 28.3813 9.155 28.232C9.36833 28.0827 9.515 27.8693 9.595 27.592H10.379C10.2617 28.04 10.027 28.4 9.675 28.672C9.323 28.9387 8.883 29.072 8.355 29.072C7.939 29.072 7.56833 28.9787 7.243 28.792C6.923 28.6053 6.67233 28.3413 6.491 28C6.30967 27.6587 6.219 27.2587 6.219 26.8ZM11.0784 26.792C11.0784 26.344 11.169 25.952 11.3504 25.616C11.5317 25.2747 11.7797 25.0107 12.0944 24.824C12.4144 24.6373 12.769 24.544 13.1584 24.544C13.5424 24.544 13.8757 24.6267 14.1584 24.792C14.441 24.9573 14.6517 25.1653 14.7904 25.416V24.616H15.5264V29H14.7904V28.184C14.6464 28.44 14.4304 28.6533 14.1424 28.824C13.8597 28.9893 13.529 29.072 13.1504 29.072C12.761 29.072 12.409 28.976 12.0944 28.784C11.7797 28.592 11.5317 28.3227 11.3504 27.976C11.169 27.6293 11.0784 27.2347 11.0784 26.792ZM14.7904 26.8C14.7904 26.4693 14.7237 26.1813 14.5904 25.936C14.457 25.6907 14.2757 25.504 14.0464 25.376C13.8224 25.2427 13.5744 25.176 13.3024 25.176C13.0304 25.176 12.7824 25.24 12.5584 25.368C12.3344 25.496 12.1557 25.6827 12.0224 25.928C11.889 26.1733 11.8224 26.4613 11.8224 26.792C11.8224 27.128 11.889 27.4213 12.0224 27.672C12.1557 27.9173 12.3344 28.1067 12.5584 28.24C12.7824 28.368 13.0304 28.432 13.3024 28.432C13.5744 28.432 13.8224 28.368 14.0464 28.24C14.2757 28.1067 14.457 27.9173 14.5904 27.672C14.7237 27.4213 14.7904 27.1307 14.7904 26.8ZM17.4846 25.328C17.6126 25.0773 17.794 24.8827 18.0286 24.744C18.2686 24.6053 18.5593 24.536 18.9006 24.536V25.288H18.7086C17.8926 25.288 17.4846 25.7307 17.4846 26.616V29H16.7566V24.616H17.4846V25.328ZM19.469 26.792C19.469 26.344 19.5597 25.952 19.741 25.616C19.9223 25.2747 20.1703 25.0107 20.485 24.824C20.805 24.6373 21.1623 24.544 21.557 24.544C21.8983 24.544 22.2157 24.624 22.509 24.784C22.8023 24.9387 23.0263 25.144 23.181 25.4V23.08H23.917V29H23.181V28.176C23.037 28.4373 22.8237 28.6533 22.541 28.824C22.2583 28.9893 21.9277 29.072 21.549 29.072C21.1597 29.072 20.805 28.976 20.485 28.784C20.1703 28.592 19.9223 28.3227 19.741 27.976C19.5597 27.6293 19.469 27.2347 19.469 26.792ZM23.181 26.8C23.181 26.4693 23.1143 26.1813 22.981 25.936C22.8477 25.6907 22.6663 25.504 22.437 25.376C22.213 25.2427 21.965 25.176 21.693 25.176C21.421 25.176 21.173 25.24 20.949 25.368C20.725 25.496 20.5463 25.6827 20.413 25.928C20.2797 26.1733 20.213 26.4613 20.213 26.792C20.213 27.128 20.2797 27.4213 20.413 27.672C20.5463 27.9173 20.725 28.1067 20.949 28.24C21.173 28.368 21.421 28.432 21.693 28.432C21.965 28.432 22.213 28.368 22.437 28.24C22.6663 28.1067 22.8477 27.9173 22.981 27.672C23.1143 27.4213 23.181 27.1307 23.181 26.8Z" fill="white"/>
</svg>
