<svg width="55" height="54" viewBox="0 0 55 54" fill="none" xmlns="http://www.w3.org/2000/svg">
<path fill-rule="evenodd" clip-rule="evenodd" d="M7.44925 4.49295C7.44925 3.25204 8.4552 2.24609 9.6961 2.24609H45.6458C46.8867 2.24609 47.8926 3.25204 47.8926 4.49295V49.43C47.8926 50.6709 46.8867 51.6769 45.6458 51.6769H9.6961C8.4552 51.6769 7.44925 50.6709 7.44925 49.43V40.4426C7.44925 39.2017 8.4552 38.1958 9.6961 38.1958C10.937 38.1958 11.943 39.2017 11.943 40.4426V47.1832H43.3989V6.7398H11.943V13.4804C11.943 14.7213 10.937 15.7272 9.6961 15.7272C8.4552 15.7272 7.44925 14.7213 7.44925 13.4804V4.49295ZM5.20239 20.2209C5.20239 18.98 6.20834 17.9741 7.44925 17.9741H11.943C13.1839 17.9741 14.1898 18.98 14.1898 20.2209C14.1898 21.4618 13.1839 22.4678 11.943 22.4678H7.44925C6.20834 22.4678 5.20239 21.4618 5.20239 20.2209ZM5.20239 26.9615C5.20239 25.7206 6.20834 24.7146 7.44925 24.7146H11.943C13.1839 24.7146 14.1898 25.7206 14.1898 26.9615C14.1898 28.2024 13.1839 29.2083 11.943 29.2083H7.44925C6.20834 29.2083 5.20239 28.2024 5.20239 26.9615ZM5.20239 33.702C5.20239 32.4611 6.20834 31.4552 7.44925 31.4552H11.943C13.1839 31.4552 14.1898 32.4611 14.1898 33.702C14.1898 34.9429 13.1839 35.9489 11.943 35.9489H7.44925C6.20834 35.9489 5.20239 34.9429 5.20239 33.702Z" fill="white"/>
<path d="M35.1067 25.7736C38.785 25.7736 41.767 28.7555 41.767 32.434C41.767 36.1123 38.785 39.0944 35.1067 39.0944C31.4282 39.0944 28.4463 36.1123 28.4463 32.434C28.4463 28.7555 31.4282 25.7736 35.1067 25.7736ZM28.4732 28.1947C28.1139 28.7558 27.8239 29.3654 27.6151 30.0116L19.0641 30.0119C18.5633 30.0119 18.1573 30.418 18.1573 30.9188V31.6183C18.1573 32.267 18.3887 32.8944 18.8099 33.3876C20.3277 35.165 22.7083 36.0681 26.0244 36.0681C26.7466 36.0681 27.4246 36.0253 28.059 35.9399C28.356 36.5392 28.7284 37.0946 29.1629 37.5946C28.1995 37.7886 27.1522 37.8846 26.0244 37.8846C22.2148 37.8846 19.3254 36.7885 17.4286 34.5672C16.7265 33.7451 16.3408 32.6994 16.3408 31.6183V28.1947H28.4732ZM35.1067 28.1955L34.9978 28.2053C34.7507 28.2501 34.5558 28.445 34.5109 28.6922L34.5012 28.801L34.5 31.8285H31.4785L31.3696 31.8382C31.1225 31.8831 30.9276 32.078 30.8827 32.3251L30.873 32.434L30.8827 32.5427C30.9276 32.7899 31.1225 32.9849 31.3696 33.0297L31.4785 33.0395H34.5L34.5012 36.0668L34.5109 36.1757C34.5558 36.4228 34.7507 36.6177 34.9978 36.6626L35.1067 36.6723L35.2154 36.6626C35.4626 36.6177 35.6576 36.4228 35.7024 36.1757L35.7122 36.0668L35.711 33.0395H38.7443L38.8531 33.0297C39.1002 32.9849 39.2952 32.7899 39.34 32.5427L39.3498 32.434L39.34 32.3251C39.2952 32.078 39.1002 31.8831 38.8531 31.8382L38.7443 31.8285H35.711L35.7122 28.801L35.7024 28.6922C35.6576 28.445 35.4626 28.2501 35.2154 28.2053L35.1067 28.1955ZM26.0244 13.6694C29.3684 13.6694 32.0792 16.3803 32.0792 19.7243C32.0792 23.0683 29.3684 25.7792 26.0244 25.7792C22.6803 25.7792 19.9694 23.0683 19.9694 19.7243C19.9694 16.3803 22.6803 13.6694 26.0244 13.6694ZM26.0244 15.4859C23.6835 15.4859 21.7859 17.3835 21.7859 19.7243C21.7859 22.0651 23.6835 23.9627 26.0244 23.9627C28.3652 23.9627 30.2628 22.0651 30.2628 19.7243C30.2628 17.3835 28.3652 15.4859 26.0244 15.4859Z" fill="white"/>
</svg>
