<svg width="70" height="98" viewBox="0 0 70 98" fill="none" xmlns="http://www.w3.org/2000/svg">
<path d="M19.7414 82.84C20.5281 82.9867 21.1747 83.38 21.6814 84.02C22.1881 84.66 22.4414 85.3933 22.4414 86.22C22.4414 86.9667 22.2547 87.6267 21.8814 88.2C21.5214 88.76 20.9947 89.2 20.3014 89.52C19.6081 89.84 18.7881 90 17.8414 90H11.8214V76.04H17.5814C18.5281 76.04 19.3414 76.1933 20.0214 76.5C20.7147 76.8067 21.2347 77.2333 21.5814 77.78C21.9414 78.3267 22.1214 78.9467 22.1214 79.64C22.1214 80.4533 21.9014 81.1333 21.4614 81.68C21.0347 82.2267 20.4614 82.6133 19.7414 82.84ZM14.6214 81.8H17.1814C17.8481 81.8 18.3614 81.6533 18.7214 81.36C19.0814 81.0533 19.2614 80.62 19.2614 80.06C19.2614 79.5 19.0814 79.0667 18.7214 78.76C18.3614 78.4533 17.8481 78.3 17.1814 78.3H14.6214V81.8ZM17.4414 87.72C18.1214 87.72 18.6481 87.56 19.0214 87.24C19.4081 86.92 19.6014 86.4667 19.6014 85.88C19.6014 85.28 19.4014 84.8133 19.0014 84.48C18.6014 84.1333 18.0614 83.96 17.3814 83.96H14.6214V87.72H17.4414ZM23.953 84.42C23.953 83.3 24.173 82.3067 24.613 81.44C25.0663 80.5733 25.673 79.9067 26.433 79.44C27.2063 78.9733 28.0663 78.74 29.013 78.74C29.8396 78.74 30.5596 78.9067 31.173 79.24C31.7996 79.5733 32.2996 79.9933 32.673 80.5V78.92H35.493V90H32.673V88.38C32.313 88.9 31.813 89.3333 31.173 89.68C30.5463 90.0133 29.8196 90.18 28.993 90.18C28.0596 90.18 27.2063 89.94 26.433 89.46C25.673 88.98 25.0663 88.3067 24.613 87.44C24.173 86.56 23.953 85.5533 23.953 84.42ZM32.673 84.46C32.673 83.78 32.5396 83.2 32.273 82.72C32.0063 82.2267 31.6463 81.8533 31.193 81.6C30.7396 81.3333 30.253 81.2 29.733 81.2C29.213 81.2 28.733 81.3267 28.293 81.58C27.853 81.8333 27.493 82.2067 27.213 82.7C26.9463 83.18 26.813 83.7533 26.813 84.42C26.813 85.0867 26.9463 85.6733 27.213 86.18C27.493 86.6733 27.853 87.0533 28.293 87.32C28.7463 87.5867 29.2263 87.72 29.733 87.72C30.253 87.72 30.7396 87.5933 31.193 87.34C31.6463 87.0733 32.0063 86.7 32.273 86.22C32.5396 85.7267 32.673 85.14 32.673 84.46ZM37.5077 84.46C37.5077 83.3133 37.741 82.3133 38.2077 81.46C38.6743 80.5933 39.321 79.9267 40.1477 79.46C40.9743 78.98 41.921 78.74 42.9877 78.74C44.361 78.74 45.4943 79.0867 46.3877 79.78C47.2943 80.46 47.901 81.42 48.2077 82.66H45.1877C45.0277 82.18 44.7543 81.8067 44.3677 81.54C43.9943 81.26 43.5277 81.12 42.9677 81.12C42.1677 81.12 41.5343 81.4133 41.0677 82C40.601 82.5733 40.3677 83.3933 40.3677 84.46C40.3677 85.5133 40.601 86.3333 41.0677 86.92C41.5343 87.4933 42.1677 87.78 42.9677 87.78C44.101 87.78 44.841 87.2733 45.1877 86.26H48.2077C47.901 87.46 47.2943 88.4133 46.3877 89.12C45.481 89.8267 44.3477 90.18 42.9877 90.18C41.921 90.18 40.9743 89.9467 40.1477 89.48C39.321 89 38.6743 88.3333 38.2077 87.48C37.741 86.6133 37.5077 85.6067 37.5077 84.46ZM56.8189 90L53.0589 85.28V90H50.2589V75.2H53.0589V83.62L56.7789 78.92H60.4189L55.5389 84.48L60.4589 90H56.8189Z" fill="white"/>
<path d="M35 64.1667C51.1083 64.1667 64.1667 51.1083 64.1667 35C64.1667 18.8917 51.1083 5.83331 35 5.83331C18.8917 5.83331 5.83334 18.8917 5.83334 35C5.83334 51.1083 18.8917 64.1667 35 64.1667Z" stroke="white" stroke-width="4" stroke-linecap="round" stroke-linejoin="round"/>
<path d="M35 23.3333L23.3333 35L35 46.6666" stroke="white" stroke-width="2" stroke-linecap="round" stroke-linejoin="round"/>
<path d="M46.6667 35H23.3333" stroke="white" stroke-width="2" stroke-linecap="round" stroke-linejoin="round"/>
</svg>
