<svg width="36" height="36" viewBox="0 0 36 36" fill="none" xmlns="http://www.w3.org/2000/svg">
<path d="M4.77778 0C4.34823 0 4 0.33579 4 0.75C4 1.16421 4.34823 1.5 4.77778 1.5H28.1111C28.5406 1.5 28.8889 1.16421 28.8889 0.75C28.8889 0.33579 28.5406 0 28.1111 0H4.77778ZM4.77778 7.5C4.34823 7.5 4 7.83585 4 8.25C4 8.66415 4.34823 9 4.77778 9H18.4001C18.8874 8.4309 19.4526 7.92585 20.0796 7.5H4.77778ZM16.7664 16.5C16.6247 16.0166 16.5275 15.5151 16.4793 15H4.77778C4.34823 15 4 15.3358 4 15.75C4 16.1642 4.34823 16.5 4.77778 16.5H16.7664ZM32 14.25C32 17.978 28.866 21 25 21C21.134 21 18 17.978 18 14.25C18 10.522 21.134 7.5 25 7.5C28.866 7.5 32 10.522 32 14.25ZM28.4429 13.5943L23.8221 11.119C23.3038 10.8412 22.6667 11.2028 22.6667 11.7747V16.7253C22.6667 17.2973 23.3038 17.6587 23.8221 17.3809L28.4429 14.9057C28.9763 14.6199 28.9763 13.8801 28.4429 13.5943Z" fill="white"/>
<path d="M3.17121 28.51C3.17121 27.83 3.32454 27.22 3.63121 26.68C3.93788 26.1333 4.35454 25.7067 4.88121 25.4C5.41454 25.0933 6.00454 24.94 6.65121 24.94C7.41121 24.94 8.07454 25.1233 8.64121 25.49C9.20788 25.8567 9.62121 26.3767 9.88121 27.05H8.79121C8.59788 26.63 8.31788 26.3067 7.95121 26.08C7.59121 25.8533 7.15788 25.74 6.65121 25.74C6.16454 25.74 5.72788 25.8533 5.34121 26.08C4.95454 26.3067 4.65121 26.63 4.43121 27.05C4.21121 27.4633 4.10121 27.95 4.10121 28.51C4.10121 29.0633 4.21121 29.55 4.43121 29.97C4.65121 30.3833 4.95454 30.7033 5.34121 30.93C5.72788 31.1567 6.16454 31.27 6.65121 31.27C7.15788 31.27 7.59121 31.16 7.95121 30.94C8.31788 30.7133 8.59788 30.39 8.79121 29.97H9.88121C9.62121 30.6367 9.20788 31.1533 8.64121 31.52C8.07454 31.88 7.41121 32.06 6.65121 32.06C6.00454 32.06 5.41454 31.91 4.88121 31.61C4.35454 31.3033 3.93788 30.88 3.63121 30.34C3.32454 29.8 3.17121 29.19 3.17121 28.51ZM12.1458 27.41C12.3058 27.0967 12.5325 26.8533 12.8258 26.68C13.1258 26.5067 13.4892 26.42 13.9158 26.42V27.36H13.6758C12.6558 27.36 12.1458 27.9133 12.1458 29.02V32H11.2358V26.52H12.1458V27.41ZM19.9663 29.05C19.9663 29.2233 19.9563 29.4067 19.9363 29.6H15.5563C15.5896 30.14 15.773 30.5633 16.1063 30.87C16.4463 31.17 16.8563 31.32 17.3363 31.32C17.7296 31.32 18.0563 31.23 18.3163 31.05C18.583 30.8633 18.7696 30.6167 18.8763 30.31H19.8563C19.7096 30.8367 19.4163 31.2667 18.9763 31.6C18.5363 31.9267 17.9896 32.09 17.3363 32.09C16.8163 32.09 16.3496 31.9733 15.9363 31.74C15.5296 31.5067 15.2096 31.1767 14.9763 30.75C14.743 30.3167 14.6263 29.8167 14.6263 29.25C14.6263 28.6833 14.7396 28.1867 14.9663 27.76C15.193 27.3333 15.5096 27.0067 15.9163 26.78C16.3296 26.5467 16.803 26.43 17.3363 26.43C17.8563 26.43 18.3163 26.5433 18.7163 26.77C19.1163 26.9967 19.423 27.31 19.6363 27.71C19.8563 28.1033 19.9663 28.55 19.9663 29.05ZM19.0263 28.86C19.0263 28.5133 18.9496 28.2167 18.7963 27.97C18.643 27.7167 18.433 27.5267 18.1663 27.4C17.9063 27.2667 17.6163 27.2 17.2963 27.2C16.8363 27.2 16.443 27.3467 16.1163 27.64C15.7963 27.9333 15.613 28.34 15.5663 28.86H19.0263ZM20.8275 29.24C20.8275 28.68 20.9408 28.19 21.1675 27.77C21.3941 27.3433 21.7041 27.0133 22.0975 26.78C22.4975 26.5467 22.9441 26.43 23.4375 26.43C23.8641 26.43 24.2608 26.53 24.6275 26.73C24.9941 26.9233 25.2741 27.18 25.4675 27.5V24.6H26.3875V32H25.4675V30.97C25.2875 31.2967 25.0208 31.5667 24.6675 31.78C24.3141 31.9867 23.9008 32.09 23.4275 32.09C22.9408 32.09 22.4975 31.97 22.0975 31.73C21.7041 31.49 21.3941 31.1533 21.1675 30.72C20.9408 30.2867 20.8275 29.7933 20.8275 29.24ZM25.4675 29.25C25.4675 28.8367 25.3841 28.4767 25.2175 28.17C25.0508 27.8633 24.8241 27.63 24.5375 27.47C24.2575 27.3033 23.9475 27.22 23.6075 27.22C23.2675 27.22 22.9575 27.3 22.6775 27.46C22.3975 27.62 22.1741 27.8533 22.0075 28.16C21.8408 28.4667 21.7575 28.8267 21.7575 29.24C21.7575 29.66 21.8408 30.0267 22.0075 30.34C22.1741 30.6467 22.3975 30.8833 22.6775 31.05C22.9575 31.21 23.2675 31.29 23.6075 31.29C23.9475 31.29 24.2575 31.21 24.5375 31.05C24.8241 30.8833 25.0508 30.6467 25.2175 30.34C25.3841 30.0267 25.4675 29.6633 25.4675 29.25ZM28.3953 25.63C28.2219 25.63 28.0753 25.57 27.9553 25.45C27.8353 25.33 27.7753 25.1833 27.7753 25.01C27.7753 24.8367 27.8353 24.69 27.9553 24.57C28.0753 24.45 28.2219 24.39 28.3953 24.39C28.5619 24.39 28.7019 24.45 28.8153 24.57C28.9353 24.69 28.9953 24.8367 28.9953 25.01C28.9953 25.1833 28.9353 25.33 28.8153 25.45C28.7019 25.57 28.5619 25.63 28.3953 25.63ZM28.8353 26.52V32H27.9253V26.52H28.8353ZM31.4962 27.27V30.5C31.4962 30.7667 31.5529 30.9567 31.6662 31.07C31.7795 31.1767 31.9762 31.23 32.2562 31.23H32.9262V32H32.1062C31.5995 32 31.2195 31.8833 30.9662 31.65C30.7129 31.4167 30.5862 31.0333 30.5862 30.5V27.27H29.8762V26.52H30.5862V25.14H31.4962V26.52H32.9262V27.27H31.4962Z" fill="white"/>
</svg>
