<svg width="21" height="20" viewBox="0 0 21 20" fill="none" xmlns="http://www.w3.org/2000/svg">
<path d="M15.3221 9.83954L14.7234 9.25037L6.33988 17.5004H2.74768V13.9645L12.3277 4.5362L17.1182 9.25037C17.2769 9.40664 17.3661 9.61857 17.3661 9.83954C17.3661 10.0605 17.2769 10.2724 17.1182 10.4287L11.1312 16.3212L9.93292 15.1429L15.3221 9.83954ZM13.526 8.07204L12.3277 6.8937L4.44131 14.6545V15.8337H5.63871L13.526 8.07204ZM15.9208 2.17954L18.3164 4.5362C18.4752 4.69248 18.5643 4.9044 18.5643 5.12537C18.5643 5.34634 18.4752 5.55826 18.3164 5.71454L17.1182 6.8937L13.526 3.35787L14.7234 2.17954C14.8822 2.02331 15.0975 1.93555 15.3221 1.93555C15.5466 1.93555 15.762 2.02331 15.9208 2.17954Z" fill="#FF7A00"/>
</svg>
