<svg width="53" height="46" viewBox="0 0 53 46" fill="none" xmlns="http://www.w3.org/2000/svg">
<line x1="31.666" y1="9.34961" x2="31.666" y2="15.3496" stroke="white" stroke-width="2" stroke-linecap="round"/>
<line x1="28.666" y1="12.3496" x2="34.666" y2="12.3496" stroke="white" stroke-width="2" stroke-linecap="round"/>
<path d="M43.333 0V26.6905H10L10.0839 0.0157591C18.7912 0.0157591 27.8625 0.0161701 35.6657 0.0161701C36.9035 0.0161701 41.9517 0 43.333 0ZM39.583 2.51617H13.7497C13.0593 2.51617 12.4997 3.07582 12.4997 3.76617V22.9405C12.4997 23.6308 13.0593 24.1905 13.7497 24.1905H39.583C40.2733 24.1905 40.833 23.6308 40.833 22.9405V3.76617C40.833 3.07582 40.2733 2.51617 39.583 2.51617ZM24.9163 14.1828C25.6067 14.1828 26.1663 14.7425 26.1663 15.4328V16.254L26.1532 16.435C25.8818 18.2898 24.3291 19.1843 21.9996 19.1843C19.6699 19.1843 18.1171 18.289 17.8461 16.433L17.833 16.2525V15.4328C17.833 14.7425 18.3927 14.1828 19.083 14.1828H24.9163ZM21.9997 7.5198C23.3804 7.5198 24.4996 8.63907 24.4996 10.0198C24.4996 11.4005 23.3804 12.5197 21.9997 12.5197C20.619 12.5197 19.4997 11.4005 19.4997 10.0198C19.4997 8.63907 20.619 7.5198 21.9997 7.5198Z" fill="white"/>
<path d="M13.0673 33.768L9.08325 45H5.65925L1.67525 33.768H4.58725L7.37125 42.248L10.1713 33.768H13.0673ZM13.6668 40.536C13.6668 39.608 13.8534 38.7973 14.2268 38.104C14.6108 37.4107 15.1388 36.8773 15.8108 36.504C16.4934 36.1307 17.2721 35.944 18.1468 35.944C19.2668 35.944 20.2001 36.2373 20.9468 36.824C21.7041 37.4107 22.2001 38.2373 22.4348 39.304H19.5228C19.2774 38.6213 18.8028 38.28 18.0988 38.28C17.5974 38.28 17.1974 38.4773 16.8988 38.872C16.6001 39.256 16.4508 39.8107 16.4508 40.536C16.4508 41.2613 16.6001 41.8213 16.8988 42.216C17.1974 42.6 17.5974 42.792 18.0988 42.792C18.8028 42.792 19.2774 42.4507 19.5228 41.768H22.4348C22.2001 42.8133 21.7041 43.6347 20.9468 44.232C20.1894 44.8293 19.2561 45.128 18.1468 45.128C17.2721 45.128 16.4934 44.9413 15.8108 44.568C15.1388 44.1947 14.6108 43.6613 14.2268 42.968C13.8534 42.2747 13.6668 41.464 13.6668 40.536ZM23.3543 40.52C23.3543 39.6027 23.5249 38.7973 23.8663 38.104C24.2183 37.4107 24.6929 36.8773 25.2903 36.504C25.8876 36.1307 26.5543 35.944 27.2903 35.944C27.9196 35.944 28.4689 36.072 28.9383 36.328C29.4183 36.584 29.7863 36.92 30.0423 37.336V36.072H32.7783V45H30.0423V43.736C29.7756 44.152 29.4023 44.488 28.9223 44.744C28.4529 45 27.9036 45.128 27.2743 45.128C26.5489 45.128 25.8876 44.9413 25.2903 44.568C24.6929 44.184 24.2183 43.6453 23.8663 42.952C23.5249 42.248 23.3543 41.4373 23.3543 40.52ZM30.0423 40.536C30.0423 39.8533 29.8503 39.3147 29.4663 38.92C29.0929 38.5253 28.6343 38.328 28.0903 38.328C27.5463 38.328 27.0823 38.5253 26.6983 38.92C26.3249 39.304 26.1383 39.8373 26.1383 40.52C26.1383 41.2027 26.3249 41.7467 26.6983 42.152C27.0823 42.5467 27.5463 42.744 28.0903 42.744C28.6343 42.744 29.0929 42.5467 29.4663 42.152C29.8503 41.7573 30.0423 41.2187 30.0423 40.536ZM37.4936 37.56C37.8136 37.0693 38.2136 36.6853 38.6936 36.408C39.1736 36.12 39.707 35.976 40.2936 35.976V38.872H39.5416C38.859 38.872 38.347 39.0213 38.0056 39.32C37.6643 39.608 37.4936 40.12 37.4936 40.856V45H34.7576V36.072H37.4936V37.56ZM41.0574 40.52C41.0574 39.6027 41.228 38.7973 41.5694 38.104C41.9214 37.4107 42.396 36.8773 42.9934 36.504C43.5907 36.1307 44.2574 35.944 44.9934 35.944C45.58 35.944 46.1134 36.0667 46.5934 36.312C47.084 36.5573 47.468 36.888 47.7454 37.304V33.16H50.4814V45H47.7454V43.72C47.4894 44.1467 47.1214 44.488 46.6414 44.744C46.172 45 45.6227 45.128 44.9934 45.128C44.2574 45.128 43.5907 44.9413 42.9934 44.568C42.396 44.184 41.9214 43.6453 41.5694 42.952C41.228 42.248 41.0574 41.4373 41.0574 40.52ZM47.7454 40.536C47.7454 39.8533 47.5534 39.3147 47.1694 38.92C46.796 38.5253 46.3374 38.328 45.7934 38.328C45.2494 38.328 44.7854 38.5253 44.4014 38.92C44.028 39.304 43.8414 39.8373 43.8414 40.52C43.8414 41.2027 44.028 41.7467 44.4014 42.152C44.7854 42.5467 45.2494 42.744 45.7934 42.744C46.3374 42.744 46.796 42.5467 47.1694 42.152C47.5534 41.7573 47.7454 41.2187 47.7454 40.536Z" fill="white"/>
</svg>
