<svg width="23" height="34" viewBox="0 0 23 34" fill="none" xmlns="http://www.w3.org/2000/svg">
<path fill-rule="evenodd" clip-rule="evenodd" d="M10.5717 11.9524C14.3945 15.7742 15.2617 11.3528 17.6957 13.7851C20.0422 16.1311 21.3919 16.6011 18.4179 19.5734C18.0455 19.8727 15.6794 23.4733 7.36412 15.1602C-0.952177 6.84601 2.64634 4.47743 2.9457 4.10513C5.92595 1.12461 6.38888 2.48117 8.73542 4.82711C11.1684 7.26048 6.74893 8.13057 10.5717 11.9524Z" stroke="white" stroke-width="1.5" stroke-linecap="round" stroke-linejoin="round"/>
<path d="M12 8C12.5304 8 13.0391 8.21071 13.4142 8.58579C13.7893 8.96086 14 9.46957 14 10H12V8ZM12 5C13.3261 5 14.5979 5.52678 15.5355 6.46447C16.4732 7.40215 17 8.67392 17 10H15C15 9.20435 14.6839 8.44129 14.1213 7.87868C13.5587 7.31607 12.7956 7 12 7V5ZM12 2C14.1217 2 16.1566 2.84285 17.6569 4.34315C19.1571 5.84344 20 7.87827 20 10H18C18 8.4087 17.3679 6.88258 16.2426 5.75736C15.1174 4.63214 13.5913 4 12 4V2Z" fill="white"/>
<path d="M4.58228 28.208C4.58228 27.664 4.70495 27.176 4.95028 26.744C5.19561 26.3067 5.52895 25.9653 5.95028 25.72C6.37695 25.4747 6.84895 25.352 7.36628 25.352C7.97428 25.352 8.50495 25.4987 8.95828 25.792C9.41161 26.0853 9.74228 26.5013 9.95028 27.04H9.07828C8.92361 26.704 8.69961 26.4453 8.40628 26.264C8.11828 26.0827 7.77161 25.992 7.36628 25.992C6.97695 25.992 6.62761 26.0827 6.31828 26.264C6.00895 26.4453 5.76628 26.704 5.59028 27.04C5.41428 27.3707 5.32628 27.76 5.32628 28.208C5.32628 28.6507 5.41428 29.04 5.59028 29.376C5.76628 29.7067 6.00895 29.9627 6.31828 30.144C6.62761 30.3253 6.97695 30.416 7.36628 30.416C7.77161 30.416 8.11828 30.328 8.40628 30.152C8.69961 29.9707 8.92361 29.712 9.07828 29.376H9.95028C9.74228 29.9093 9.41161 30.3227 8.95828 30.616C8.50495 30.904 7.97428 31.048 7.36628 31.048C6.84895 31.048 6.37695 30.928 5.95028 30.688C5.52895 30.4427 5.19561 30.104 4.95028 29.672C4.70495 29.24 4.58228 28.752 4.58228 28.208ZM10.762 28.792C10.762 28.344 10.8526 27.952 11.034 27.616C11.2153 27.2747 11.4633 27.0107 11.778 26.824C12.098 26.6373 12.4526 26.544 12.842 26.544C13.226 26.544 13.5593 26.6267 13.842 26.792C14.1246 26.9573 14.3353 27.1653 14.474 27.416V26.616H15.21V31H14.474V30.184C14.33 30.44 14.114 30.6533 13.826 30.824C13.5433 30.9893 13.2126 31.072 12.834 31.072C12.4446 31.072 12.0926 30.976 11.778 30.784C11.4633 30.592 11.2153 30.3227 11.034 29.976C10.8526 29.6293 10.762 29.2347 10.762 28.792ZM14.474 28.8C14.474 28.4693 14.4073 28.1813 14.274 27.936C14.1406 27.6907 13.9593 27.504 13.73 27.376C13.506 27.2427 13.258 27.176 12.986 27.176C12.714 27.176 12.466 27.24 12.242 27.368C12.018 27.496 11.8393 27.6827 11.706 27.928C11.5726 28.1733 11.506 28.4613 11.506 28.792C11.506 29.128 11.5726 29.4213 11.706 29.672C11.8393 29.9173 12.018 30.1067 12.242 30.24C12.466 30.368 12.714 30.432 12.986 30.432C13.258 30.432 13.506 30.368 13.73 30.24C13.9593 30.1067 14.1406 29.9173 14.274 29.672C14.4073 29.4213 14.474 29.1307 14.474 28.8ZM17.1682 25.08V31H16.4402V25.08H17.1682ZM19.137 25.08V31H18.409V25.08H19.137Z" fill="white"/>
</svg>
