<svg width="47" height="47" viewBox="0 0 47 47" fill="none" xmlns="http://www.w3.org/2000/svg">
<path fill-rule="evenodd" clip-rule="evenodd" d="M12.2268 8.66737C14.3627 8.63581 16.0845 6.89454 16.0845 4.75114C16.0845 2.58802 14.3309 0.834473 12.1678 0.834473C10.0047 0.834473 8.25115 2.58802 8.25115 4.75114C8.25115 6.9077 9.99409 8.65718 12.1482 8.66776C8.94206 8.69759 6.35683 10.4395 6.35683 12.584C6.35683 12.8729 6.35676 13.2192 6.35669 13.5891C6.35649 14.651 6.35625 15.9073 6.35744 16.5558C6.90143 16.5605 8.0238 16.5458 9.19916 16.5304C10.3108 16.5159 11.4699 16.5007 12.2318 16.5007C13.4745 16.5007 15.4622 16.4793 16.8832 16.464C17.3784 16.4587 17.8048 16.4541 18.1068 16.4514V12.584C18.1068 10.4209 15.4765 8.66737 12.2318 8.66737C12.2302 8.66737 12.2285 8.66737 12.2268 8.66737ZM39.1662 34.2173C39.1662 36.3639 37.4394 38.1071 35.2991 38.1336C38.5213 38.1511 41.1253 39.8979 41.1253 42.0502V45.9176C40.8235 45.9202 40.3974 45.9248 39.9026 45.9302H39.9021C38.4811 45.9454 36.4931 45.9668 35.2503 45.9668C34.4885 45.9668 33.3296 45.982 32.2181 45.9965L32.2176 45.9966C31.0423 46.0119 29.9199 46.0266 29.3759 46.022C29.3747 45.3738 29.375 44.1185 29.3752 43.0569V43.055L29.3753 42.0502C29.3753 39.8981 31.9788 38.1515 35.2005 38.1336C33.06 38.1074 31.3329 36.364 31.3329 34.2173C31.3329 32.0542 33.0864 30.3006 35.2496 30.3006C37.4127 30.3006 39.1662 32.0542 39.1662 34.2173ZM23.5 4.40603C22.6888 4.40603 22.0312 5.06361 22.0312 5.87478C22.0312 6.68594 22.6888 7.34353 23.5 7.34353C32.4228 7.34353 39.6562 14.5769 39.6562 23.4998C39.6562 24.3109 40.3138 24.9685 41.125 24.9685C41.9362 24.9685 42.5938 24.3109 42.5938 23.4998C42.5938 12.9546 34.0452 4.40603 23.5 4.40603ZM7.34375 23.4998C7.34375 22.6886 6.68617 22.031 5.875 22.031C5.06383 22.031 4.40625 22.6886 4.40625 23.4998C4.40625 34.045 12.9548 42.5935 23.5 42.5935C24.3112 42.5935 24.9688 41.9359 24.9688 41.1248C24.9688 40.3136 24.3112 39.656 23.5 39.656C14.5771 39.656 7.34375 32.4226 7.34375 23.4998Z" fill="white"/>
<path d="M11.824 22.5706V23.6593H13.5645L13.412 24.6162H11.824V25.7743L11.8933 26.8145H10.7561L10.8254 25.7743V22.6191L10.7561 21.6136H13.9113L13.7587 22.5706H11.824ZM16.2581 26.9254C15.5832 26.9254 15.077 26.6943 14.7395 26.232C14.402 25.765 14.2333 25.0855 14.2333 24.1932C14.2333 23.3103 14.3997 22.6422 14.7326 22.1892C15.07 21.7315 15.5786 21.5027 16.2581 21.5027C16.9377 21.5027 17.4439 21.7315 17.7768 22.1892C18.1142 22.6422 18.283 23.3103 18.283 24.1932C18.283 25.0855 18.1142 25.765 17.7768 26.232C17.4393 26.6943 16.9331 26.9254 16.2581 26.9254ZM16.2581 25.9476C16.5078 25.9476 16.7019 25.8945 16.8406 25.7882C16.9839 25.6772 17.0856 25.4969 17.1457 25.2473C17.2105 24.993 17.2428 24.6417 17.2428 24.1932C17.2428 23.7587 17.2105 23.4189 17.1457 23.1739C17.0856 22.9289 16.9839 22.7532 16.8406 22.6469C16.6973 22.5359 16.5031 22.4804 16.2581 22.4804C16.0131 22.4804 15.8189 22.5359 15.6756 22.6469C15.5323 22.7532 15.4283 22.9289 15.3636 23.1739C15.3035 23.4189 15.2734 23.7587 15.2734 24.1932C15.2734 24.6417 15.3035 24.993 15.3636 25.2473C15.4283 25.4969 15.53 25.6772 15.6687 25.7882C15.812 25.8945 16.0085 25.9476 16.2581 25.9476ZM22.1881 25.8575L22.0356 26.8145H18.9636L19.033 25.7743V22.6191L18.9636 21.6136H20.1009L20.0315 22.6191V25.7743L20.0385 25.8575H22.1881ZM25.8653 25.8575L25.7127 26.8145H22.6408L22.7101 25.7743V22.6191L22.6408 21.6136H23.778L23.7087 22.6191V25.7743L23.7156 25.8575H25.8653ZM28.1902 26.9254C27.5153 26.9254 27.0091 26.6943 26.6716 26.232C26.3341 25.765 26.1654 25.0855 26.1654 24.1932C26.1654 23.3103 26.3318 22.6422 26.6646 22.1892C27.0021 21.7315 27.5106 21.5027 28.1902 21.5027C28.8698 21.5027 29.376 21.7315 29.7089 22.1892C30.0463 22.6422 30.2151 23.3103 30.2151 24.1932C30.2151 25.0855 30.0463 25.765 29.7089 26.232C29.3714 26.6943 28.8652 26.9254 28.1902 26.9254ZM28.1902 25.9476C28.4399 25.9476 28.634 25.8945 28.7727 25.7882C28.916 25.6772 29.0177 25.4969 29.0778 25.2473C29.1425 24.993 29.1749 24.6417 29.1749 24.1932C29.1749 23.7587 29.1425 23.4189 29.0778 23.1739C29.0177 22.9289 28.916 22.7532 28.7727 22.6469C28.6294 22.5359 28.4352 22.4804 28.1902 22.4804C27.9452 22.4804 27.751 22.5359 27.6077 22.6469C27.4644 22.7532 27.3604 22.9289 27.2957 23.1739C27.2356 23.4189 27.2055 23.7587 27.2055 24.1932C27.2055 24.6417 27.2356 24.993 27.2957 25.2473C27.3604 25.4969 27.4621 25.6772 27.6008 25.7882C27.7441 25.8945 27.9406 25.9476 28.1902 25.9476ZM31.7425 21.6136L31.7633 22.6538L32.2418 25.9338L33.0115 21.6136H34.2389L34.974 25.9823L35.4733 22.6538L35.4941 21.6136H36.6105L36.3747 22.6538L35.8616 25.802L35.7645 26.8145H34.1349L33.5247 22.8202L32.9006 26.8145H31.3334L31.2294 25.7743L30.7093 22.6538L30.4735 21.6136H31.7425Z" fill="white"/>
</svg>
