<svg width="25" height="36" viewBox="0 0 25 36" fill="none" xmlns="http://www.w3.org/2000/svg">
<path d="M18.5004 12.0003C21.5379 12.0003 24.0004 14.4627 24.0004 17.5003C24.0004 20.5378 21.5379 23.0003 18.5004 23.0003C15.4628 23.0003 13.0004 20.5378 13.0004 17.5003C13.0004 14.4627 15.4628 12.0003 18.5004 12.0003ZM13.0226 13.9996C12.7259 14.4629 12.4864 14.9663 12.314 15.4999L5.25278 15.5002C4.83919 15.5002 4.50391 15.8355 4.50391 16.2491V16.8267C4.50391 17.3624 4.69502 17.8805 5.04287 18.2878C6.29618 19.7555 8.26206 20.5013 11.0004 20.5013C11.5968 20.5013 12.1567 20.4659 12.6806 20.3954C12.9258 20.8903 13.2333 21.3489 13.5921 21.7618C12.7966 21.922 11.9317 22.0013 11.0004 22.0013C7.8545 22.0013 5.46849 21.0962 3.90219 19.2619C3.32242 18.583 3.00391 17.7195 3.00391 16.8267V13.9996H13.0226ZM18.5004 14.0002L18.4105 14.0083C18.2064 14.0453 18.0455 14.2063 18.0084 14.4104L18.0004 14.5002L17.9994 17.0003H15.5043L15.4144 17.0083C15.2103 17.0454 15.0494 17.2063 15.0123 17.4104L15.0043 17.5003L15.0123 17.5901C15.0494 17.7942 15.2103 17.9552 15.4144 17.9922L15.5043 18.0003H17.9994L18.0004 20.5002L18.0084 20.5901C18.0455 20.7942 18.2064 20.9551 18.4105 20.9922L18.5004 21.0002L18.5902 20.9922C18.7943 20.9551 18.9553 20.7942 18.9923 20.5901L19.0004 20.5002L18.9994 18.0003H21.5043L21.5941 17.9922C21.7982 17.9552 21.9592 17.7942 21.9962 17.5901L22.0043 17.5003L21.9962 17.4104C21.9592 17.2063 21.7982 17.0454 21.5941 17.0083L21.5043 17.0003H18.9994L19.0004 14.5002L18.9923 14.4104C18.9553 14.2063 18.7943 14.0453 18.5902 14.0083L18.5004 14.0002ZM11.0004 2.00488C13.7618 2.00488 16.0004 4.24346 16.0004 7.00488C16.0004 9.76631 13.7618 12.0049 11.0004 12.0049C8.23894 12.0049 6.00036 9.76631 6.00036 7.00488C6.00036 4.24346 8.23894 2.00488 11.0004 2.00488ZM11.0004 3.50488C9.06737 3.50488 7.50036 5.07189 7.50036 7.00488C7.50036 8.93788 9.06737 10.5049 11.0004 10.5049C12.9334 10.5049 14.5004 8.93788 14.5004 7.00488C14.5004 5.07189 12.9334 3.50488 11.0004 3.50488Z" fill="white"/>
<path d="M3.88519 27.424V28.016H1.46119V29.896H3.42919V30.488H1.46119V33H0.733188V27.424H3.88519ZM6.67644 33.072C6.26577 33.072 5.89244 32.9787 5.55644 32.792C5.22577 32.6053 4.96444 32.3413 4.77244 32C4.58577 31.6533 4.49244 31.2533 4.49244 30.8C4.49244 30.352 4.58844 29.9573 4.78044 29.616C4.97777 29.2693 5.24444 29.0053 5.58044 28.824C5.91644 28.6373 6.29244 28.544 6.70844 28.544C7.12444 28.544 7.50044 28.6373 7.83644 28.824C8.17244 29.0053 8.43644 29.2667 8.62844 29.608C8.82577 29.9493 8.92444 30.3467 8.92444 30.8C8.92444 31.2533 8.8231 31.6533 8.62044 32C8.4231 32.3413 8.15377 32.6053 7.81244 32.792C7.4711 32.9787 7.09244 33.072 6.67644 33.072ZM6.67644 32.432C6.93777 32.432 7.1831 32.3707 7.41244 32.248C7.64177 32.1253 7.82577 31.9413 7.96444 31.696C8.10844 31.4507 8.18044 31.152 8.18044 30.8C8.18044 30.448 8.1111 30.1493 7.97244 29.904C7.83377 29.6587 7.65244 29.4773 7.42844 29.36C7.20444 29.2373 6.96177 29.176 6.70044 29.176C6.43377 29.176 6.18844 29.2373 5.96444 29.36C5.74577 29.4773 5.56977 29.6587 5.43644 29.904C5.3031 30.1493 5.23644 30.448 5.23644 30.8C5.23644 31.1573 5.30044 31.4587 5.42844 31.704C5.56177 31.9493 5.73777 32.1333 5.95644 32.256C6.1751 32.3733 6.4151 32.432 6.67644 32.432ZM10.6096 27.08V33H9.88163V27.08H10.6096ZM12.5784 27.08V33H11.8504V27.08H12.5784ZM15.7311 33.072C15.3205 33.072 14.9471 32.9787 14.6111 32.792C14.2805 32.6053 14.0191 32.3413 13.8271 32C13.6405 31.6533 13.5471 31.2533 13.5471 30.8C13.5471 30.352 13.6431 29.9573 13.8351 29.616C14.0325 29.2693 14.2991 29.0053 14.6351 28.824C14.9711 28.6373 15.3471 28.544 15.7631 28.544C16.1791 28.544 16.5551 28.6373 16.8911 28.824C17.2271 29.0053 17.4911 29.2667 17.6831 29.608C17.8805 29.9493 17.9791 30.3467 17.9791 30.8C17.9791 31.2533 17.8778 31.6533 17.6751 32C17.4778 32.3413 17.2085 32.6053 16.8671 32.792C16.5258 32.9787 16.1471 33.072 15.7311 33.072ZM15.7311 32.432C15.9925 32.432 16.2378 32.3707 16.4671 32.248C16.6965 32.1253 16.8805 31.9413 17.0191 31.696C17.1631 31.4507 17.2351 31.152 17.2351 30.8C17.2351 30.448 17.1658 30.1493 17.0271 29.904C16.8885 29.6587 16.7071 29.4773 16.4831 29.36C16.2591 29.2373 16.0165 29.176 15.7551 29.176C15.4885 29.176 15.2431 29.2373 15.0191 29.36C14.8005 29.4773 14.6245 29.6587 14.4911 29.904C14.3578 30.1493 14.2911 30.448 14.2911 30.8C14.2911 31.1573 14.3551 31.4587 14.4831 31.704C14.6165 31.9493 14.7925 32.1333 15.0111 32.256C15.2298 32.3733 15.4698 32.432 15.7311 32.432ZM24.7763 28.616L23.4083 33H22.6563L21.6003 29.52L20.5443 33H19.7923L18.4163 28.616H19.1603L20.1683 32.296L21.2563 28.616H22.0003L23.0643 32.304L24.0563 28.616H24.7763Z" fill="white"/>
</svg>
