<svg width="35" height="35" viewBox="0 0 35 35" fill="none" xmlns="http://www.w3.org/2000/svg">
<path fill-rule="evenodd" clip-rule="evenodd" d="M9.10841 6.45463C10.6975 6.4294 11.9778 5.13339 11.9778 3.53834C11.9778 1.92751 10.672 0.621674 9.06117 0.621674C7.45034 0.621674 6.1445 1.92751 6.1445 3.53834C6.1445 5.14323 7.44072 6.44537 9.04335 6.45495C6.6573 6.47829 4.73383 7.77505 4.73383 9.3713C4.73383 9.58641 4.73379 9.84431 4.73373 10.1198C4.73358 10.9106 4.7334 11.8461 4.73429 12.329C5.13939 12.3325 5.9752 12.3216 6.85046 12.3101C7.6783 12.2993 8.54144 12.288 9.10884 12.288C10.0342 12.288 11.5143 12.272 12.5725 12.2607C12.9413 12.2567 13.2589 12.2533 13.4838 12.2513V9.3713C13.4838 7.76047 11.5251 6.45463 9.10884 6.45463C9.10869 6.45463 9.10855 6.45463 9.10841 6.45463ZM29.1663 25.4811C29.1663 27.0796 27.8804 28.3778 26.2865 28.3976C28.6861 28.4106 30.6252 29.7114 30.6252 31.3141V34.1941C30.4014 34.1961 30.0858 34.1995 29.7193 34.2034L29.7137 34.2035C28.6556 34.2149 27.1756 34.2308 26.2502 34.2308C25.6831 34.2308 24.8206 34.2421 23.9931 34.2529L23.9919 34.2529H23.9915C23.1164 34.2644 22.2807 34.2753 21.8757 34.2718C21.8748 33.789 21.875 32.8538 21.8751 32.0631L21.8752 31.3141C21.8752 29.7115 23.814 28.4108 26.2132 28.3976C24.6192 28.378 23.333 27.0798 23.333 25.4811C23.333 23.8703 24.6388 22.5644 26.2497 22.5644C27.8605 22.5644 29.1663 23.8703 29.1663 25.4811ZM17.5 3.28125C16.8959 3.28125 16.4062 3.77093 16.4062 4.375C16.4062 4.97906 16.8959 5.46875 17.5 5.46875C24.1447 5.46875 29.5312 10.8553 29.5312 17.5C29.5312 18.1041 30.0209 18.5937 30.625 18.5937C31.2291 18.5937 31.7188 18.1041 31.7188 17.5C31.7188 9.6472 25.3528 3.28125 17.5 3.28125ZM5.46875 17.5C5.46875 16.8959 4.97906 16.4062 4.375 16.4062C3.77094 16.4062 3.28125 16.8959 3.28125 17.5C3.28125 25.3528 9.6472 31.7187 17.5 31.7187C18.1041 31.7187 18.5938 31.2291 18.5938 30.625C18.5938 30.0209 18.1041 29.5312 17.5 29.5312C10.8553 29.5312 5.46875 24.1447 5.46875 17.5Z" fill="white"/>
<path d="M16.768 19.0267L17.5917 19.8503L22.5302 14.9118L23.355 15.7367L17.5917 21.5L13.8793 17.7877L14.7042 16.9628L15.9437 18.2024L16.768 19.0261V19.0267ZM16.7692 17.377L19.6578 14.4877L20.4803 15.3102L17.5917 18.1995L16.7692 17.377ZM15.1201 20.6757L14.2958 21.5L10.5835 17.7877L11.4083 16.9628L12.2326 17.7871L12.232 17.7877L15.1201 20.6757V20.6757Z" fill="#FF7A00"/>
</svg>
