<svg width="25" height="34" viewBox="0 0 25 34" fill="none" xmlns="http://www.w3.org/2000/svg">
<path d="M12.5012 4.71769C14.9481 2.52081 18.7293 2.59373 21.0866 4.95519C23.4429 7.31769 23.5241 11.0802 21.3325 13.5344L12.4991 22.3802L3.66788 13.5344C1.47621 11.0802 1.5585 7.31144 3.91371 4.95519C6.27309 2.59685 10.047 2.51769 12.5012 4.71769V4.71769ZM19.6116 6.42706C18.0491 4.86248 15.5283 4.79894 13.8929 6.26769L12.5023 7.5156L11.1106 6.26873C9.46996 4.7979 6.95434 4.86248 5.38767 6.42915C3.83559 7.98123 3.75746 10.4656 5.18767 12.1073L12.5002 19.4312L19.8127 12.1083C21.2439 10.4656 21.1658 7.98435 19.6116 6.42706V6.42706Z" fill="white"/>
<path d="M6.594 30.408H8.546V31H5.866V25.424H6.594V30.408ZM9.69513 25.904C9.55646 25.904 9.43913 25.856 9.34313 25.76C9.24713 25.664 9.19913 25.5467 9.19913 25.408C9.19913 25.2693 9.24713 25.152 9.34313 25.056C9.43913 24.96 9.55646 24.912 9.69513 24.912C9.82846 24.912 9.94046 24.96 10.0311 25.056C10.1271 25.152 10.1751 25.2693 10.1751 25.408C10.1751 25.5467 10.1271 25.664 10.0311 25.76C9.94046 25.856 9.82846 25.904 9.69513 25.904ZM10.0471 26.616V31H9.31913V26.616H10.0471ZM13.7359 31L12.0159 29.064V31H11.2879V25.08H12.0159V28.56L13.7039 26.616H14.7199L12.6559 28.8L14.7279 31H13.7359ZM19.4051 28.64C19.4051 28.7787 19.3971 28.9253 19.3811 29.08H15.8771C15.9037 29.512 16.0504 29.8507 16.3171 30.096C16.5891 30.336 16.9171 30.456 17.3011 30.456C17.6157 30.456 17.8771 30.384 18.0851 30.24C18.2984 30.0907 18.4477 29.8933 18.5331 29.648H19.3171C19.1997 30.0693 18.9651 30.4133 18.6131 30.68C18.2611 30.9413 17.8237 31.072 17.3011 31.072C16.8851 31.072 16.5117 30.9787 16.1811 30.792C15.8557 30.6053 15.5997 30.3413 15.4131 30C15.2264 29.6533 15.1331 29.2533 15.1331 28.8C15.1331 28.3467 15.2237 27.9493 15.4051 27.608C15.5864 27.2667 15.8397 27.0053 16.1651 26.824C16.4957 26.6373 16.8744 26.544 17.3011 26.544C17.7171 26.544 18.0851 26.6347 18.4051 26.816C18.7251 26.9973 18.9704 27.248 19.1411 27.568C19.3171 27.8827 19.4051 28.24 19.4051 28.64ZM18.6531 28.488C18.6531 28.2107 18.5917 27.9733 18.4691 27.776C18.3464 27.5733 18.1784 27.4213 17.9651 27.32C17.7571 27.2133 17.5251 27.16 17.2691 27.16C16.9011 27.16 16.5864 27.2773 16.3251 27.512C16.0691 27.7467 15.9224 28.072 15.8851 28.488H18.6531Z" fill="white"/>
</svg>
