<svg width="23" height="33" viewBox="0 0 23 33" fill="none" xmlns="http://www.w3.org/2000/svg">
<path d="M2 0H22V2.5H2V0ZM2 8.75H22V11.25H2V8.75ZM2 17.5H22V20H2V17.5Z" fill="white"/>
<path d="M6.72903 26.464V32H6.00103V27.872L4.16103 32H3.64903L1.80103 27.864V32H1.07303V26.464H1.85703L3.90503 31.04L5.95303 26.464H6.72903ZM11.9637 29.64C11.9637 29.7787 11.9557 29.9253 11.9397 30.08H8.43566C8.46232 30.512 8.60899 30.8507 8.87566 31.096C9.14766 31.336 9.47566 31.456 9.85966 31.456C10.1743 31.456 10.4357 31.384 10.6437 31.24C10.857 31.0907 11.0063 30.8933 11.0917 30.648H11.8757C11.7583 31.0693 11.5237 31.4133 11.1717 31.68C10.8197 31.9413 10.3823 32.072 9.85966 32.072C9.44366 32.072 9.07032 31.9787 8.73966 31.792C8.41432 31.6053 8.15832 31.3413 7.97166 31C7.78499 30.6533 7.69166 30.2533 7.69166 29.8C7.69166 29.3467 7.78232 28.9493 7.96366 28.608C8.14499 28.2667 8.39832 28.0053 8.72366 27.824C9.05432 27.6373 9.43299 27.544 9.85966 27.544C10.2757 27.544 10.6437 27.6347 10.9637 27.816C11.2837 27.9973 11.529 28.248 11.6997 28.568C11.8757 28.8827 11.9637 29.24 11.9637 29.64ZM11.2117 29.488C11.2117 29.2107 11.1503 28.9733 11.0277 28.776C10.905 28.5733 10.737 28.4213 10.5237 28.32C10.3157 28.2133 10.0837 28.16 9.82766 28.16C9.45966 28.16 9.14499 28.2773 8.88366 28.512C8.62766 28.7467 8.48099 29.072 8.44366 29.488H11.2117ZM15.0606 27.536C15.5939 27.536 16.0259 27.6987 16.3566 28.024C16.6873 28.344 16.8526 28.808 16.8526 29.416V32H16.1326V29.52C16.1326 29.0827 16.0233 28.7493 15.8046 28.52C15.5859 28.2853 15.2873 28.168 14.9086 28.168C14.5246 28.168 14.2179 28.288 13.9886 28.528C13.7646 28.768 13.6526 29.1173 13.6526 29.576V32H12.9246V27.616H13.6526V28.24C13.7966 28.016 13.9913 27.8427 14.2366 27.72C14.4873 27.5973 14.7619 27.536 15.0606 27.536ZM21.9298 27.616V32H21.2018V31.352C21.0631 31.576 20.8684 31.752 20.6178 31.88C20.3724 32.0027 20.1004 32.064 19.8018 32.064C19.4604 32.064 19.1538 31.9947 18.8818 31.856C18.6098 31.712 18.3938 31.4987 18.2338 31.216C18.0791 30.9333 18.0018 30.5893 18.0018 30.184V27.616H18.7218V30.088C18.7218 30.52 18.8311 30.8533 19.0498 31.088C19.2684 31.3173 19.5671 31.432 19.9458 31.432C20.3351 31.432 20.6418 31.312 20.8658 31.072C21.0898 30.832 21.2018 30.4827 21.2018 30.024V27.616H21.9298Z" fill="white"/>
</svg>
