<svg width="24" height="32" viewBox="0 0 24 32" fill="none" xmlns="http://www.w3.org/2000/svg">
<path d="M15.3333 6.191H15.7743V5.309H14.8923V5.75V6.191H15.3333ZM16.2917 7.22567H15.8507V7.66667V8.10767H16.7327V7.22567H16.2917ZM12.9757 5.23267H13.8577V4.79167V3.39233H12.9757V5.23267ZM17.7673 9.14233V10.0243H19.6077V9.14233H17.7673ZM16.809 4.27433H18.2083H18.7257V4.79167V6.191H19.6077V3.39233H16.809V4.27433ZM14.816 8.184H12.9757V10.0243H14.816V8.625V8.184ZM4.79167 18.7257H4.27433V18.2083V14.375V13.8577H4.79167H8.625H9.14233V14.375V18.2083V18.7257H8.625H4.79167ZM14.375 18.7257H13.8577V18.2083V14.375V13.8577H14.375H18.2083H18.7257V14.375V18.2083V18.7257H18.2083H14.375ZM4.79167 9.14233H4.27433V8.625V4.79167V4.27433H4.79167H8.625H9.14233V4.79167V8.625V9.14233H8.625H4.79167ZM3.39233 19.6077H10.0243V12.9757H3.39233V19.6077ZM12.9757 19.6077H19.6077V12.9757H12.9757V19.6077ZM3.39233 10.0243H10.0243V3.39233H3.39233V10.0243ZM6.26733 16.7327H7.14933V15.8507H6.26733V16.7327ZM6.26733 7.14933H7.14933V6.26733H6.26733V7.14933ZM15.8507 16.7327H16.7327V15.8507H15.8507V16.7327Z" stroke="white" stroke-width="1.03467"/>
<path d="M1.51197 26.208C1.51197 25.664 1.63464 25.176 1.87997 24.744C2.1253 24.3067 2.45864 23.9653 2.87997 23.72C3.30664 23.4747 3.77864 23.352 4.29597 23.352C4.90397 23.352 5.43464 23.4987 5.88797 23.792C6.3413 24.0853 6.67197 24.5013 6.87997 25.04H6.00797C5.8533 24.704 5.6293 24.4453 5.33597 24.264C5.04797 24.0827 4.7013 23.992 4.29597 23.992C3.90664 23.992 3.5573 24.0827 3.24797 24.264C2.93864 24.4453 2.69597 24.704 2.51997 25.04C2.34397 25.3707 2.25597 25.76 2.25597 26.208C2.25597 26.6507 2.34397 27.04 2.51997 27.376C2.69597 27.7067 2.93864 27.9627 3.24797 28.144C3.5573 28.3253 3.90664 28.416 4.29597 28.416C4.7013 28.416 5.04797 28.328 5.33597 28.152C5.6293 27.9707 5.8533 27.712 6.00797 27.376H6.87997C6.67197 27.9093 6.3413 28.3227 5.88797 28.616C5.43464 28.904 4.90397 29.048 4.29597 29.048C3.77864 29.048 3.30664 28.928 2.87997 28.688C2.45864 28.4427 2.1253 28.104 1.87997 27.672C1.63464 27.24 1.51197 26.752 1.51197 26.208ZM9.87566 29.072C9.46499 29.072 9.09166 28.9787 8.75566 28.792C8.42499 28.6053 8.16366 28.3413 7.97166 28C7.78499 27.6533 7.69166 27.2533 7.69166 26.8C7.69166 26.352 7.78766 25.9573 7.97966 25.616C8.17699 25.2693 8.44366 25.0053 8.77966 24.824C9.11566 24.6373 9.49166 24.544 9.90766 24.544C10.3237 24.544 10.6997 24.6373 11.0357 24.824C11.3717 25.0053 11.6357 25.2667 11.8277 25.608C12.025 25.9493 12.1237 26.3467 12.1237 26.8C12.1237 27.2533 12.0223 27.6533 11.8197 28C11.6223 28.3413 11.353 28.6053 11.0117 28.792C10.6703 28.9787 10.2917 29.072 9.87566 29.072ZM9.87566 28.432C10.137 28.432 10.3823 28.3707 10.6117 28.248C10.841 28.1253 11.025 27.9413 11.1637 27.696C11.3077 27.4507 11.3797 27.152 11.3797 26.8C11.3797 26.448 11.3103 26.1493 11.1717 25.904C11.033 25.6587 10.8517 25.4773 10.6277 25.36C10.4037 25.2373 10.161 25.176 9.89966 25.176C9.63299 25.176 9.38766 25.2373 9.16366 25.36C8.94499 25.4773 8.76899 25.6587 8.63566 25.904C8.50232 26.1493 8.43566 26.448 8.43566 26.8C8.43566 27.1573 8.49966 27.4587 8.62766 27.704C8.76099 27.9493 8.93699 28.1333 9.15566 28.256C9.37432 28.3733 9.61432 28.432 9.87566 28.432ZM12.8088 26.792C12.8088 26.344 12.8995 25.952 13.0808 25.616C13.2622 25.2747 13.5102 25.0107 13.8248 24.824C14.1448 24.6373 14.5022 24.544 14.8968 24.544C15.2382 24.544 15.5555 24.624 15.8488 24.784C16.1422 24.9387 16.3662 25.144 16.5208 25.4V23.08H17.2568V29H16.5208V28.176C16.3768 28.4373 16.1635 28.6533 15.8808 28.824C15.5982 28.9893 15.2675 29.072 14.8888 29.072C14.4995 29.072 14.1448 28.976 13.8248 28.784C13.5102 28.592 13.2622 28.3227 13.0808 27.976C12.8995 27.6293 12.8088 27.2347 12.8088 26.792ZM16.5208 26.8C16.5208 26.4693 16.4542 26.1813 16.3208 25.936C16.1875 25.6907 16.0062 25.504 15.7768 25.376C15.5528 25.2427 15.3048 25.176 15.0328 25.176C14.7608 25.176 14.5128 25.24 14.2888 25.368C14.0648 25.496 13.8862 25.6827 13.7528 25.928C13.6195 26.1733 13.5528 26.4613 13.5528 26.792C13.5528 27.128 13.6195 27.4213 13.7528 27.672C13.8862 27.9173 14.0648 28.1067 14.2888 28.24C14.5128 28.368 14.7608 28.432 15.0328 28.432C15.3048 28.432 15.5528 28.368 15.7768 28.24C16.0062 28.1067 16.1875 27.9173 16.3208 27.672C16.4542 27.4213 16.5208 27.1307 16.5208 26.8ZM22.4871 26.64C22.4871 26.7787 22.4791 26.9253 22.4631 27.08H18.9591C18.9858 27.512 19.1324 27.8507 19.3991 28.096C19.6711 28.336 19.9991 28.456 20.3831 28.456C20.6978 28.456 20.9591 28.384 21.1671 28.24C21.3804 28.0907 21.5298 27.8933 21.6151 27.648H22.3991C22.2818 28.0693 22.0471 28.4133 21.6951 28.68C21.3431 28.9413 20.9058 29.072 20.3831 29.072C19.9671 29.072 19.5938 28.9787 19.2631 28.792C18.9378 28.6053 18.6818 28.3413 18.4951 28C18.3084 27.6533 18.2151 27.2533 18.2151 26.8C18.2151 26.3467 18.3058 25.9493 18.4871 25.608C18.6684 25.2667 18.9218 25.0053 19.2471 24.824C19.5778 24.6373 19.9564 24.544 20.3831 24.544C20.7991 24.544 21.1671 24.6347 21.4871 24.816C21.8071 24.9973 22.0524 25.248 22.2231 25.568C22.3991 25.8827 22.4871 26.24 22.4871 26.64ZM21.7351 26.488C21.7351 26.2107 21.6738 25.9733 21.5511 25.776C21.4284 25.5733 21.2604 25.4213 21.0471 25.32C20.8391 25.2133 20.6071 25.16 20.3511 25.16C19.9831 25.16 19.6684 25.2773 19.4071 25.512C19.1511 25.7467 19.0044 26.072 18.9671 26.488H21.7351Z" fill="white"/>
</svg>
