<svg width="24" height="33" viewBox="0 0 24 33" fill="none" xmlns="http://www.w3.org/2000/svg">
<path d="M18.7257 18.2083V13.934H19.6077V19.1667C19.6077 19.2836 19.5612 19.3958 19.4785 19.4785C19.3958 19.5612 19.2836 19.6077 19.1667 19.6077H3.83333C3.71637 19.6077 3.6042 19.5612 3.5215 19.4785C3.4388 19.3958 3.39233 19.2836 3.39233 19.1667V3.83333C3.39233 3.71637 3.4388 3.6042 3.5215 3.5215C3.6042 3.4388 3.71637 3.39233 3.83333 3.39233H9.066V4.27433H4.79167H4.27433V4.79167V18.2083V18.7257H4.79167H18.2083H18.7257V18.2083ZM17.2191 5.15748L18.1022 4.27433H16.8532H12.9757V3.39233H19.6077V10.0243H18.7257V6.14675V4.8978L17.8425 5.78094L11.5 12.1235L10.8765 11.5L17.2191 5.15748Z" fill="white" stroke="white" stroke-width="1.03467"/>
<path d="M2.80197 30.056C2.43397 30.056 2.1033 29.992 1.80997 29.864C1.52197 29.7307 1.2953 29.5493 1.12997 29.32C0.964635 29.0853 0.879302 28.816 0.873969 28.512H1.64997C1.67664 28.7733 1.7833 28.9947 1.96997 29.176C2.16197 29.352 2.4393 29.44 2.80197 29.44C3.14864 29.44 3.42064 29.3547 3.61797 29.184C3.82064 29.008 3.92197 28.784 3.92197 28.512C3.92197 28.2987 3.8633 28.1253 3.74597 27.992C3.62864 27.8587 3.48197 27.7573 3.30597 27.688C3.12997 27.6187 2.89264 27.544 2.59397 27.464C2.22597 27.368 1.92997 27.272 1.70597 27.176C1.4873 27.08 1.29797 26.9307 1.13797 26.728C0.983302 26.52 0.905969 26.2427 0.905969 25.896C0.905969 25.592 0.983302 25.3227 1.13797 25.088C1.29264 24.8533 1.50864 24.672 1.78597 24.544C2.06864 24.416 2.3913 24.352 2.75397 24.352C3.27664 24.352 3.7033 24.4827 4.03397 24.744C4.36997 25.0053 4.5593 25.352 4.60197 25.784H3.80197C3.7753 25.5707 3.6633 25.384 3.46597 25.224C3.26864 25.0587 3.0073 24.976 2.68197 24.976C2.37797 24.976 2.12997 25.056 1.93797 25.216C1.74597 25.3707 1.64997 25.5893 1.64997 25.872C1.64997 26.0747 1.70597 26.24 1.81797 26.368C1.9353 26.496 2.07664 26.5947 2.24197 26.664C2.41264 26.728 2.64997 26.8027 2.95397 26.888C3.32197 26.9893 3.61797 27.0907 3.84197 27.192C4.06597 27.288 4.25797 27.44 4.41797 27.648C4.57797 27.8507 4.65797 28.128 4.65797 28.48C4.65797 28.752 4.58597 29.008 4.44197 29.248C4.29797 29.488 4.08464 29.6827 3.80197 29.832C3.5193 29.9813 3.18597 30.056 2.80197 30.056ZM7.90528 25.536C8.23595 25.536 8.53461 25.608 8.80128 25.752C9.06795 25.8907 9.27595 26.1013 9.42528 26.384C9.57995 26.6667 9.65728 27.0107 9.65728 27.416V30H8.93728V27.52C8.93728 27.0827 8.82795 26.7493 8.60928 26.52C8.39061 26.2853 8.09195 26.168 7.71328 26.168C7.32928 26.168 7.02261 26.288 6.79328 26.528C6.56928 26.768 6.45728 27.1173 6.45728 27.576V30H5.72928V24.08H6.45728V26.24C6.60128 26.016 6.79861 25.8427 7.04928 25.72C7.30528 25.5973 7.59061 25.536 7.90528 25.536ZM10.5745 27.792C10.5745 27.344 10.6651 26.952 10.8465 26.616C11.0278 26.2747 11.2758 26.0107 11.5905 25.824C11.9105 25.6373 12.2651 25.544 12.6545 25.544C13.0385 25.544 13.3718 25.6267 13.6545 25.792C13.9371 25.9573 14.1478 26.1653 14.2865 26.416V25.616H15.0225V30H14.2865V29.184C14.1425 29.44 13.9265 29.6533 13.6385 29.824C13.3558 29.9893 13.0251 30.072 12.6465 30.072C12.2571 30.072 11.9051 29.976 11.5905 29.784C11.2758 29.592 11.0278 29.3227 10.8465 28.976C10.6651 28.6293 10.5745 28.2347 10.5745 27.792ZM14.2865 27.8C14.2865 27.4693 14.2198 27.1813 14.0865 26.936C13.9531 26.6907 13.7718 26.504 13.5425 26.376C13.3185 26.2427 13.0705 26.176 12.7985 26.176C12.5265 26.176 12.2785 26.24 12.0545 26.368C11.8305 26.496 11.6518 26.6827 11.5185 26.928C11.3851 27.1733 11.3185 27.4613 11.3185 27.792C11.3185 28.128 11.3851 28.4213 11.5185 28.672C11.6518 28.9173 11.8305 29.1067 12.0545 29.24C12.2785 29.368 12.5265 29.432 12.7985 29.432C13.0705 29.432 13.3185 29.368 13.5425 29.24C13.7718 29.1067 13.9531 28.9173 14.0865 28.672C14.2198 28.4213 14.2865 28.1307 14.2865 27.8ZM16.9807 26.328C17.1087 26.0773 17.2901 25.8827 17.5247 25.744C17.7647 25.6053 18.0554 25.536 18.3967 25.536V26.288H18.2047C17.3887 26.288 16.9807 26.7307 16.9807 27.616V30H16.2527V25.616H16.9807V26.328ZM23.2371 27.64C23.2371 27.7787 23.2291 27.9253 23.2131 28.08H19.7091C19.7358 28.512 19.8824 28.8507 20.1491 29.096C20.4211 29.336 20.7491 29.456 21.1331 29.456C21.4478 29.456 21.7091 29.384 21.9171 29.24C22.1304 29.0907 22.2798 28.8933 22.3651 28.648H23.1491C23.0318 29.0693 22.7971 29.4133 22.4451 29.68C22.0931 29.9413 21.6558 30.072 21.1331 30.072C20.7171 30.072 20.3438 29.9787 20.0131 29.792C19.6878 29.6053 19.4318 29.3413 19.2451 29C19.0584 28.6533 18.9651 28.2533 18.9651 27.8C18.9651 27.3467 19.0558 26.9493 19.2371 26.608C19.4184 26.2667 19.6718 26.0053 19.9971 25.824C20.3278 25.6373 20.7064 25.544 21.1331 25.544C21.5491 25.544 21.9171 25.6347 22.2371 25.816C22.5571 25.9973 22.8024 26.248 22.9731 26.568C23.1491 26.8827 23.2371 27.24 23.2371 27.64ZM22.4851 27.488C22.4851 27.2107 22.4238 26.9733 22.3011 26.776C22.1784 26.5733 22.0104 26.4213 21.7971 26.32C21.5891 26.2133 21.3571 26.16 21.1011 26.16C20.7331 26.16 20.4184 26.2773 20.1571 26.512C19.9011 26.7467 19.7544 27.072 19.7171 27.488H22.4851Z" fill="white"/>
</svg>
