<svg width="35" height="35" viewBox="0 0 35 35" fill="none" xmlns="http://www.w3.org/2000/svg">
<path d="M14.5835 10.5292L9.62954 14.5833H4.37516V20.4167H9.62954L14.5835 24.4708V10.5292ZM8.58829 23.3333H2.91683C2.53006 23.3333 2.15912 23.1797 1.88563 22.9062C1.61214 22.6327 1.4585 22.2618 1.4585 21.875V13.125C1.4585 12.7382 1.61214 12.3673 1.88563 12.0938C2.15912 11.8203 2.53006 11.6667 2.91683 11.6667H8.58829L16.3087 5.34918C16.4155 5.2616 16.545 5.20617 16.6821 5.18933C16.8192 5.1725 16.9583 5.19496 17.0831 5.25409C17.208 5.31322 17.3135 5.4066 17.3873 5.52335C17.4611 5.6401 17.5003 5.77542 17.5002 5.91355V29.0865C17.5003 29.2246 17.4611 29.3599 17.3873 29.4767C17.3135 29.5934 17.208 29.6868 17.0831 29.7459C16.9583 29.8051 16.8192 29.8275 16.6821 29.8107C16.545 29.7939 16.4155 29.7384 16.3087 29.6508L8.58975 23.3333H8.58829ZM28.3006 29.3621L26.2356 27.2971C27.618 26.067 28.724 24.5579 29.4807 22.8691C30.2373 21.1804 30.6274 19.3505 30.6252 17.5C30.627 15.5547 30.1955 13.6335 29.362 11.8758C28.5286 10.1181 27.3141 8.56806 25.8068 7.33834L27.8777 5.26751C29.6546 6.77185 31.082 8.64571 32.0603 10.7584C33.0385 12.8711 33.5441 15.1718 33.5418 17.5C33.5418 22.2002 31.5206 26.4279 28.3006 29.3621ZM23.1337 24.1952L21.06 22.1215C21.7679 21.5771 22.3412 20.8771 22.7354 20.0758C23.1297 19.2744 23.3343 18.3931 23.3335 17.5C23.3335 15.4146 22.2397 13.5844 20.5918 12.5533L22.6904 10.4548C23.795 11.2674 24.6928 12.3285 25.3113 13.5525C25.9297 14.7764 26.2513 16.1287 26.2502 17.5C26.2502 20.1863 25.0397 22.5896 23.1337 24.1952Z" fill="white"/>
</svg>
