<svg width="42" height="78" viewBox="0 0 42 78" fill="none" xmlns="http://www.w3.org/2000/svg">
<rect x="5.14062" y="72.8574" width="31.5486" height="31.5512" rx="15.7743" transform="rotate(-90 5.14062 72.8574)" fill="white"/>
<path d="M5.16839 57.0831L5.16839 21.0276H0.661448L0.661448 57.0831H5.16839ZM36.717 21.0276V57.0831H41.2239V21.0276H36.717ZM36.717 57.0831C36.717 65.795 29.6546 72.8574 20.9427 72.8574V77.3643C32.1437 77.3643 41.2239 68.2841 41.2239 57.0831H36.717ZM20.9427 5.25329C29.6546 5.25329 36.717 12.3157 36.717 21.0276H41.2239C41.2239 9.82657 32.1437 0.746355 20.9427 0.746355V5.25329ZM5.16839 21.0276C5.16839 12.3157 12.2308 5.25329 20.9427 5.25329V0.746355C9.74166 0.746355 0.661448 9.82657 0.661448 21.0276H5.16839ZM0.661448 57.0831C0.661448 68.2841 9.74166 77.3643 20.9427 77.3643V72.8574C12.2308 72.8574 5.16839 65.795 5.16839 57.0831H0.661448Z" fill="white"/>
<path fill-rule="evenodd" clip-rule="evenodd" d="M22.3214 49.5229C22.5122 49.6183 22.6328 49.8134 22.6328 50.0267V67.1531C22.6328 67.3665 22.5122 67.5616 22.3214 67.657C22.1305 67.7524 21.9021 67.7318 21.7314 67.6038L16.1729 63.4349H13.2058C12.2724 63.4349 11.5157 62.6782 11.5157 61.7448V55.4351C11.5157 54.5017 12.2724 53.745 13.2058 53.745H16.1729L21.7314 49.5761C21.9021 49.448 22.1305 49.4274 22.3214 49.5229ZM21.5061 51.1535L16.6987 54.759C16.6011 54.8322 16.4825 54.8717 16.3606 54.8717H13.2058C12.8946 54.8717 12.6424 55.1239 12.6424 55.4351V61.7448C12.6424 62.0559 12.8946 62.3082 13.2058 62.3082H16.3606C16.4825 62.3082 16.6011 62.3477 16.6987 62.4208L21.5061 66.0264V51.1535ZM32.4581 55.3374C32.6781 55.5574 32.6781 55.9141 32.4581 56.1342L30.0021 58.5902L32.4581 61.0462C32.6781 61.2662 32.6781 61.6229 32.4581 61.8429C32.2381 62.063 31.8814 62.063 31.6614 61.8429L29.2054 59.3869L26.7493 61.8429C26.5293 62.063 26.1726 62.063 25.9526 61.8429C25.7326 61.6229 25.7326 61.2662 25.9526 61.0462L28.4087 58.5902L25.9526 56.1342C25.7326 55.9141 25.7326 55.5574 25.9526 55.3374C26.1726 55.1174 26.5293 55.1174 26.7493 55.3374L29.2054 57.7935L31.6614 55.3374C31.8814 55.1174 32.2381 55.1174 32.4581 55.3374Z" fill="black"/>
<path d="M22.3214 49.5229L22.5733 49.019L22.5733 49.019L22.3214 49.5229ZM22.3214 67.657L22.0694 67.1531L22.0694 67.1531L22.3214 67.657ZM21.7314 67.6038L21.3934 68.0545L21.3934 68.0545L21.7314 67.6038ZM16.1729 63.4349L16.5109 62.9842L16.3606 62.8715H16.1729V63.4349ZM16.1729 53.745V54.3083H16.3606L16.5109 54.1957L16.1729 53.745ZM21.7314 49.5761L21.3934 49.1254L21.3934 49.1254L21.7314 49.5761ZM16.6987 54.759L17.0367 55.2097L17.0367 55.2097L16.6987 54.759ZM21.5061 51.1535H22.0694V50.0267L21.168 50.7028L21.5061 51.1535ZM16.6987 62.4208L17.0367 61.9701L17.0367 61.9701L16.6987 62.4208ZM21.5061 66.0264L21.168 66.4771L22.0694 67.1531V66.0264H21.5061ZM32.4581 56.1342L32.0598 55.7358L32.0598 55.7358L32.4581 56.1342ZM32.4581 55.3374L32.0598 55.7358L32.0598 55.7358L32.4581 55.3374ZM30.0021 58.5902L29.6037 58.1918L29.2054 58.5902L29.6037 58.9885L30.0021 58.5902ZM32.4581 61.0462L32.0598 61.4446L32.0598 61.4446L32.4581 61.0462ZM32.4581 61.8429L32.0598 61.4446L32.0598 61.4446L32.4581 61.8429ZM29.2054 59.3869L29.6037 58.9885L29.2054 58.5902L28.807 58.9885L29.2054 59.3869ZM26.7493 61.8429L27.1477 62.2413L27.1477 62.2413L26.7493 61.8429ZM28.4087 58.5902L28.807 58.9886L29.2054 58.5902L28.807 58.1918L28.4087 58.5902ZM25.9526 56.1342L25.5543 56.5325L25.5543 56.5325L25.9526 56.1342ZM25.9526 55.3374L25.5543 54.9391L25.5543 54.9391L25.9526 55.3374ZM26.7493 55.3374L27.1477 54.9391L27.1477 54.9391L26.7493 55.3374ZM29.2054 57.7935L28.807 58.1918L29.2054 58.5902L29.6037 58.1918L29.2054 57.7935ZM23.1962 50.0267C23.1962 49.6 22.955 49.2098 22.5733 49.019L22.0694 50.0267L22.0694 50.0267H23.1962ZM23.1962 67.1531V50.0267H22.0694V67.1531H23.1962ZM22.5733 68.1609C22.955 67.97 23.1962 67.5799 23.1962 67.1531H22.0694L22.0694 67.1531L22.5733 68.1609ZM21.3934 68.0545C21.7348 68.3106 22.1916 68.3518 22.5733 68.1609L22.0694 67.1531L22.0694 67.1531L21.3934 68.0545ZM15.8348 63.8856L21.3934 68.0545L22.0694 67.1531L16.5109 62.9842L15.8348 63.8856ZM13.2058 63.9983H16.1729V62.8715H13.2058V63.9983ZM10.9523 61.7448C10.9523 62.9893 11.9612 63.9983 13.2058 63.9983V62.8715C12.5835 62.8715 12.0791 62.3671 12.0791 61.7448H10.9523ZM10.9523 55.4351V61.7448H12.0791V55.4351H10.9523ZM13.2058 53.1816C11.9612 53.1816 10.9523 54.1905 10.9523 55.4351H12.0791C12.0791 54.8128 12.5835 54.3083 13.2058 54.3083V53.1816ZM16.1729 53.1816H13.2058V54.3083H16.1729V53.1816ZM21.3934 49.1254L15.8348 53.2943L16.5109 54.1957L22.0694 50.0267L21.3934 49.1254ZM22.5733 49.019C22.1916 48.8281 21.7348 48.8693 21.3934 49.1254L22.0694 50.0267L22.0694 50.0267L22.5733 49.019ZM17.0367 55.2097L21.8441 51.6042L21.168 50.7028L16.3606 54.3083L17.0367 55.2097ZM16.3606 55.4351C16.6044 55.4351 16.8417 55.356 17.0367 55.2097L16.3606 54.3083L16.3606 54.3083V55.4351ZM13.2058 55.4351H16.3606V54.3083H13.2058V55.4351ZM13.2058 55.4351L13.2058 55.4351V54.3083C12.5835 54.3083 12.0791 54.8128 12.0791 55.4351H13.2058ZM13.2058 61.7448V55.4351H12.0791V61.7448H13.2058ZM13.2058 61.7448L13.2058 61.7448H12.0791C12.0791 62.3671 12.5835 62.8715 13.2058 62.8715V61.7448ZM16.3606 61.7448H13.2058V62.8715H16.3606V61.7448ZM17.0367 61.9701C16.8417 61.8239 16.6044 61.7448 16.3606 61.7448V62.8715L16.3606 62.8715L17.0367 61.9701ZM21.8441 65.5757L17.0367 61.9701L16.3606 62.8715L21.168 66.4771L21.8441 65.5757ZM20.9427 51.1535V66.0264H22.0694V51.1535H20.9427ZM32.8565 56.5325C33.2965 56.0925 33.2965 55.3791 32.8565 54.9391L32.0598 55.7358V55.7358L32.8565 56.5325ZM30.4005 58.9886L32.8565 56.5325L32.0598 55.7358L29.6037 58.1918L30.4005 58.9886ZM29.6037 58.9885L32.0598 61.4446L32.8565 60.6479L30.4005 58.1918L29.6037 58.9885ZM32.0598 61.4446V61.4446L32.8565 62.2413C33.2965 61.8013 33.2965 61.0879 32.8565 60.6479L32.0598 61.4446ZM32.0598 61.4446H32.0598L31.263 62.2413C31.7031 62.6813 32.4165 62.6813 32.8565 62.2413L32.0598 61.4446ZM32.0598 61.4446L29.6037 58.9885L28.807 59.7853L31.263 62.2413L32.0598 61.4446ZM27.1477 62.2413L29.6037 59.7853L28.807 58.9885L26.351 61.4446L27.1477 62.2413ZM25.5543 62.2413C25.9943 62.6813 26.7077 62.6813 27.1477 62.2413L26.351 61.4446H26.351L25.5543 62.2413ZM25.5543 60.6479C25.1142 61.0879 25.1142 61.8013 25.5543 62.2413L26.351 61.4446V61.4446L25.5543 60.6479ZM28.0103 58.1918L25.5543 60.6479L26.351 61.4446L28.807 58.9886L28.0103 58.1918ZM28.807 58.1918L26.351 55.7358L25.5543 56.5325L28.0103 58.9886L28.807 58.1918ZM26.351 55.7358V55.7358L25.5543 54.9391C25.1142 55.3791 25.1142 56.0925 25.5543 56.5325L26.351 55.7358ZM26.351 55.7358H26.351L27.1477 54.9391C26.7077 54.4991 25.9943 54.4991 25.5543 54.9391L26.351 55.7358ZM26.351 55.7358L28.807 58.1918L29.6037 57.3951L27.1477 54.9391L26.351 55.7358ZM31.263 54.9391L28.807 57.3951L29.6037 58.1918L32.0598 55.7358L31.263 54.9391ZM32.8565 54.9391C32.4165 54.4991 31.7031 54.4991 31.263 54.9391L32.0598 55.7358H32.0598L32.8565 54.9391Z" fill="black"/>
</svg>
