<svg width="39" height="73" viewBox="0 0 39 73" fill="none" xmlns="http://www.w3.org/2000/svg">
<rect x="34.533" y="5.11035" width="29.5419" height="29.5444" rx="14.771" transform="rotate(90 34.533 5.11035)" fill="white"/>
<path d="M34.6521 19.8811V53.6433H38.8723V19.8811H34.6521ZM5.11014 53.6433L5.11014 19.8811H0.889866V53.6433H5.11014ZM5.11014 19.8811C5.11014 11.7233 11.7233 5.11014 19.8811 5.11014V0.889862C9.39253 0.889862 0.889866 9.39253 0.889866 19.8811H5.11014ZM19.8811 68.4143C11.7233 68.4143 5.11014 61.8011 5.11014 53.6433H0.889866C0.889866 64.1319 9.39254 72.6345 19.8811 72.6345V68.4143ZM34.6521 53.6433C34.6521 61.8011 28.0389 68.4143 19.8811 68.4143V72.6345C30.3697 72.6345 38.8723 64.1319 38.8723 53.6433H34.6521ZM38.8723 19.8811C38.8723 9.39253 30.3697 0.889862 19.8811 0.889862V5.11014C28.0389 5.11014 34.6521 11.7233 34.6521 19.8811H38.8723Z" fill="white"/>
<path fill-rule="evenodd" clip-rule="evenodd" d="M19.3062 12.0259C19.3936 12.0686 19.449 12.1574 19.449 12.2547V28.1474C19.449 28.2447 19.3936 28.3335 19.3062 28.3762C19.2189 28.4189 19.1148 28.4082 19.038 28.3485L13.9986 24.4289H10.7641C10.3421 24.4289 10 24.0868 10 23.6648V16.7373C10 16.3153 10.3421 15.9732 10.7641 15.9732H13.9986L19.038 12.0537C19.1148 11.9939 19.2189 11.9832 19.3062 12.0259ZM18.9397 12.7754L14.2423 16.4289C14.1976 16.4637 14.1426 16.4826 14.086 16.4826H10.7641C10.6234 16.4826 10.5094 16.5966 10.5094 16.7373V23.6648C10.5094 23.8055 10.6234 23.9195 10.7641 23.9195H14.086C14.1426 23.9195 14.1976 23.9384 14.2423 23.9732L18.9397 27.6267V12.7754ZM23.3854 15.6358C23.4791 15.5735 23.6056 15.5989 23.668 15.6926C25.4795 18.4154 25.4795 21.9866 23.668 24.7094C23.6056 24.8031 23.4791 24.8285 23.3854 24.7662C23.2918 24.7038 23.2663 24.5774 23.3287 24.4837C25.0493 21.8976 25.0493 18.5044 23.3287 15.9183C23.2663 15.8246 23.2918 15.6981 23.3854 15.6358ZM26.135 12.3734C26.0622 12.2875 25.9336 12.2769 25.8478 12.3496C25.7619 12.4224 25.7513 12.5509 25.8241 12.6368C29.5152 16.9928 29.5152 23.4093 25.8241 27.7654C25.7513 27.8512 25.7619 27.9798 25.8478 28.0526C25.9336 28.1253 26.0622 28.1147 26.135 28.0288C29.9549 23.5208 29.9549 16.8814 26.135 12.3734Z" fill="black"/>
<path d="M19.3062 12.0259L19.53 11.5683L19.53 11.5683L19.3062 12.0259ZM19.3062 28.3762L19.53 28.8338L19.53 28.8338L19.3062 28.3762ZM19.038 28.3485L19.3507 27.9464L19.038 28.3485ZM13.9986 24.4289L14.3113 24.0268L14.1734 23.9195H13.9986V24.4289ZM13.9986 15.9732V16.4826H14.1734L14.3113 16.3753L13.9986 15.9732ZM19.038 12.0537L19.3507 12.4557L19.3507 12.4557L19.038 12.0537ZM14.2423 16.4289L14.5551 16.831L14.5551 16.831L14.2423 16.4289ZM18.9397 12.7754H19.449V11.7339L18.6269 12.3734L18.9397 12.7754ZM14.2423 23.9732L13.9296 24.3753L13.9296 24.3753L14.2423 23.9732ZM18.9397 27.6267L18.6269 28.0287L19.449 28.6682V27.6267H18.9397ZM23.668 15.6926L24.092 15.4104L24.092 15.4104L23.668 15.6926ZM23.668 24.7094L24.092 24.9916L24.092 24.9916L23.668 24.7094ZM23.3854 24.7662L23.6676 24.3421L23.6676 24.3421L23.3854 24.7662ZM23.3287 24.4837L23.7528 24.7658L23.7528 24.7658L23.3287 24.4837ZM23.3287 15.9183L22.9046 16.2004L22.9046 16.2004L23.3287 15.9183ZM25.8478 12.3496L26.1771 12.7383L26.1771 12.7383L25.8478 12.3496ZM26.135 12.3734L26.5236 12.0441L26.5236 12.0441L26.135 12.3734ZM25.8241 12.6368L25.4354 12.9661L25.4354 12.9661L25.8241 12.6368ZM25.8241 27.7654L26.2127 28.0947L26.2127 28.0947L25.8241 27.7654ZM25.8478 28.0526L26.1771 27.6639L26.1771 27.6639L25.8478 28.0526ZM26.135 28.0288L26.5236 28.3581L26.5236 28.3581L26.135 28.0288ZM19.9584 12.2547C19.9584 11.9629 19.7922 11.6965 19.53 11.5683L19.0824 12.4835C18.9951 12.4407 18.9397 12.352 18.9397 12.2547H19.9584ZM19.9584 28.1474V12.2547H18.9397V28.1474H19.9584ZM19.53 28.8338C19.7922 28.7056 19.9584 28.4392 19.9584 28.1474H18.9397C18.9397 28.0501 18.9951 27.9614 19.0824 27.9186L19.53 28.8338ZM18.7253 28.7505C18.9556 28.9297 19.2679 28.962 19.53 28.8338L19.0824 27.9186C19.1698 27.8759 19.2739 27.8867 19.3507 27.9464L18.7253 28.7505ZM13.6859 24.831L18.7253 28.7505L19.3507 27.9464L14.3113 24.0268L13.6859 24.831ZM10.7641 24.9383H13.9986V23.9195H10.7641V24.9383ZM9.49062 23.6648C9.49062 24.3682 10.0608 24.9383 10.7641 24.9383V23.9195C10.6234 23.9195 10.5094 23.8055 10.5094 23.6648H9.49062ZM9.49062 16.7373V23.6648H10.5094V16.7373H9.49062ZM10.7641 15.4638C10.0608 15.4638 9.49062 16.0339 9.49062 16.7373H10.5094C10.5094 16.5966 10.6234 16.4826 10.7641 16.4826V15.4638ZM13.9986 15.4638H10.7641V16.4826H13.9986V15.4638ZM18.7253 11.6516L13.6859 15.5711L14.3113 16.3753L19.3507 12.4557L18.7253 11.6516ZM19.53 11.5683C19.2679 11.4401 18.9556 11.4724 18.7253 11.6516L19.3507 12.4557C19.2739 12.5155 19.1698 12.5262 19.0824 12.4835L19.53 11.5683ZM14.5551 16.831L19.2524 13.1775L18.6269 12.3734L13.9296 16.0268L14.5551 16.831ZM14.086 16.9919C14.2559 16.9919 14.4209 16.9353 14.5551 16.831L13.9296 16.0268C13.9743 15.9921 14.0293 15.9732 14.086 15.9732V16.9919ZM10.7641 16.9919H14.086V15.9732H10.7641V16.9919ZM11.0188 16.7373C11.0188 16.8779 10.9047 16.9919 10.7641 16.9919V15.9732C10.3421 15.9732 10 16.3153 10 16.7373H11.0188ZM11.0188 23.6648V16.7373H10V23.6648H11.0188ZM10.7641 23.4102C10.9047 23.4102 11.0188 23.5242 11.0188 23.6648H10C10 24.0868 10.3421 24.4289 10.7641 24.4289V23.4102ZM14.086 23.4102H10.7641V24.4289H14.086V23.4102ZM14.5551 23.5711C14.4209 23.4668 14.2559 23.4102 14.086 23.4102V24.4289C14.0293 24.4289 13.9743 24.41 13.9296 24.3753L14.5551 23.5711ZM19.2524 27.2246L14.5551 23.5711L13.9296 24.3753L18.6269 28.0287L19.2524 27.2246ZM18.4303 12.7754V27.6267H19.449V12.7754H18.4303ZM24.092 15.4104C23.8739 15.0825 23.4312 14.9935 23.1033 15.2117L23.6676 16.0599C23.5271 16.1534 23.3374 16.1153 23.2439 15.9747L24.092 15.4104ZM24.092 24.9916C26.0173 22.0978 26.0173 18.3041 24.092 15.4104L23.2439 15.9747C24.9417 18.5266 24.9417 21.8753 23.2439 24.4272L24.092 24.9916ZM23.1033 25.1903C23.4312 25.4084 23.8739 25.3195 24.092 24.9916L23.2439 24.4272C23.3374 24.2867 23.5271 24.2486 23.6676 24.3421L23.1033 25.1903ZM22.9046 24.2015C22.6864 24.5294 22.7754 24.9721 23.1033 25.1903L23.6676 24.3421C23.8081 24.4356 23.8463 24.6253 23.7528 24.7658L22.9046 24.2015ZM22.9046 16.2004C24.5114 18.6156 24.5114 21.7864 22.9046 24.2015L23.7528 24.7658C25.5871 22.0088 25.5871 18.3931 23.7528 15.6361L22.9046 16.2004ZM23.1033 15.2117C22.7754 15.4299 22.6864 15.8725 22.9046 16.2004L23.7528 15.6361C23.8463 15.7767 23.8081 15.9664 23.6676 16.0599L23.1033 15.2117ZM26.1771 12.7383C26.0483 12.8474 25.8555 12.8314 25.7463 12.7027L26.5236 12.0441C26.269 11.7436 25.819 11.7064 25.5185 11.961L26.1771 12.7383ZM26.2127 12.3075C26.3218 12.4363 26.3059 12.6291 26.1771 12.7383L25.5185 11.961C25.218 12.2156 25.1808 12.6656 25.4354 12.9661L26.2127 12.3075ZM26.2127 28.0947C30.0648 23.5486 30.0648 16.8535 26.2127 12.3075L25.4354 12.9661C28.9656 17.1321 28.9656 23.2701 25.4354 27.4361L26.2127 28.0947ZM26.1771 27.6639C26.3059 27.7731 26.3218 27.9659 26.2127 28.0947L25.4354 27.4361C25.1808 27.7366 25.218 28.1866 25.5185 28.4412L26.1771 27.6639ZM25.7463 27.6995C25.8555 27.5708 26.0483 27.5548 26.1771 27.6639L25.5185 28.4412C25.819 28.6958 26.269 28.6586 26.5236 28.3581L25.7463 27.6995ZM25.7463 12.7027C29.4053 17.0207 29.4053 23.3815 25.7463 27.6995L26.5236 28.3581C30.5045 23.6601 30.5045 16.7421 26.5236 12.0441L25.7463 12.7027Z" fill="black"/>
</svg>
