<svg width="25" height="35" viewBox="0 0 25 35" fill="none" xmlns="http://www.w3.org/2000/svg">
<path d="M12.5002 22.399C7.03275 22.399 2.60083 17.9671 2.60083 12.4997C2.60083 7.03227 7.03275 2.60034 12.5002 2.60034C17.9676 2.60034 22.3995 7.03227 22.3995 12.4997C22.3995 17.9671 17.9676 22.399 12.5002 22.399ZM12.5002 21.3503C14.8475 21.3503 17.0987 20.4179 18.7585 18.758C20.4184 17.0982 21.3508 14.847 21.3508 12.4997C21.3508 10.1523 20.4184 7.90113 18.7585 6.24131C17.0987 4.58149 14.8475 3.64901 12.5002 3.64901C10.1528 3.64901 7.90162 4.58149 6.2418 6.24131C4.58197 7.90113 3.6495 10.1523 3.6495 12.4997C3.6495 14.847 4.58197 17.0982 6.2418 18.758C7.90162 20.4179 10.1528 21.3503 12.5002 21.3503ZM13.0245 7.80867V8.85734H11.9758V7.80867H13.0245ZM13.0245 11.9753V17.1907H11.9758V11.9753H13.0245Z" fill="white" stroke="white" stroke-width="1.03467"/>
<path d="M6.42603 26.424V32H5.69803V26.424H6.42603ZM9.80278 27.536C10.3361 27.536 10.7681 27.6987 11.0988 28.024C11.4294 28.344 11.5948 28.808 11.5948 29.416V32H10.8748V29.52C10.8748 29.0827 10.7654 28.7493 10.5468 28.52C10.3281 28.2853 10.0294 28.168 9.65078 28.168C9.26678 28.168 8.96011 28.288 8.73078 28.528C8.50678 28.768 8.39478 29.1173 8.39478 29.576V32H7.66678V27.616H8.39478V28.24C8.53878 28.016 8.73345 27.8427 8.97878 27.72C9.22945 27.5973 9.50411 27.536 9.80278 27.536ZM14.568 28.216H13.648V32H12.92V28.216H12.352V27.616H12.92V27.304C12.92 26.8133 13.0453 26.456 13.296 26.232C13.552 26.0027 13.96 25.888 14.52 25.888V26.496C14.2 26.496 13.9733 26.56 13.84 26.688C13.712 26.8107 13.648 27.016 13.648 27.304V27.616H14.568V28.216ZM17.3288 32.072C16.9181 32.072 16.5448 31.9787 16.2088 31.792C15.8781 31.6053 15.6168 31.3413 15.4248 31C15.2381 30.6533 15.1448 30.2533 15.1448 29.8C15.1448 29.352 15.2408 28.9573 15.4328 28.616C15.6301 28.2693 15.8968 28.0053 16.2328 27.824C16.5688 27.6373 16.9448 27.544 17.3608 27.544C17.7768 27.544 18.1528 27.6373 18.4888 27.824C18.8248 28.0053 19.0888 28.2667 19.2808 28.608C19.4781 28.9493 19.5768 29.3467 19.5768 29.8C19.5768 30.2533 19.4754 30.6533 19.2728 31C19.0754 31.3413 18.8061 31.6053 18.4648 31.792C18.1234 31.9787 17.7448 32.072 17.3288 32.072ZM17.3288 31.432C17.5901 31.432 17.8354 31.3707 18.0648 31.248C18.2941 31.1253 18.4781 30.9413 18.6168 30.696C18.7608 30.4507 18.8328 30.152 18.8328 29.8C18.8328 29.448 18.7634 29.1493 18.6248 28.904C18.4861 28.6587 18.3048 28.4773 18.0808 28.36C17.8568 28.2373 17.6141 28.176 17.3528 28.176C17.0861 28.176 16.8408 28.2373 16.6168 28.36C16.3981 28.4773 16.2221 28.6587 16.0888 28.904C15.9554 29.1493 15.8888 29.448 15.8888 29.8C15.8888 30.1573 15.9528 30.4587 16.0808 30.704C16.2141 30.9493 16.3901 31.1333 16.6088 31.256C16.8274 31.3733 17.0674 31.432 17.3288 31.432Z" fill="white"/>
</svg>
