<svg width="82" height="82" viewBox="0 0 82 82" fill="none" xmlns="http://www.w3.org/2000/svg">
<path d="M41.0328 7.86779C51.7623 7.86779 53.2254 7.86779 57.6147 7.86779C61.5163 7.86779 63.4671 8.8432 64.9303 9.3309C66.8811 10.3063 68.3442 10.794 69.8073 12.2571C71.2704 13.7202 72.2458 15.1833 72.7335 17.1341C73.2212 18.5973 73.7089 20.5481 74.1966 24.4497C74.1966 28.839 74.1966 29.8144 74.1966 41.0316C74.1966 52.2488 74.1966 53.2242 74.1966 57.6135C74.1966 61.5151 73.2212 63.4659 72.7335 64.929C71.7581 66.8798 71.2704 68.343 69.8073 69.8061C68.3442 71.2692 66.8811 72.2446 64.9303 72.7323C63.4671 73.22 61.5163 73.7077 57.6147 74.1954C53.2254 74.1954 52.25 74.1954 41.0328 74.1954C29.8156 74.1954 28.8402 74.1954 24.4509 74.1954C20.5493 74.1954 18.5985 73.22 17.1354 72.7323C15.1846 71.7569 13.7214 71.2692 12.2583 69.8061C10.7952 68.343 9.81982 66.8798 9.33212 64.929C8.84442 63.4659 8.35671 61.5151 7.86901 57.6135C7.86901 53.2242 7.86901 52.2488 7.86901 41.0316C7.86901 29.8144 7.86901 28.839 7.86901 24.4497C7.86901 20.5481 8.84442 18.5973 9.33212 17.1341C10.3075 15.1833 10.7952 13.7202 12.2583 12.2571C13.7214 10.794 15.1846 9.8186 17.1354 9.3309C18.5985 8.8432 20.5493 8.35549 24.4509 7.86779C28.8402 7.86779 30.3033 7.86779 41.0328 7.86779ZM41.0328 0.552246C29.8156 0.552246 28.8402 0.552246 24.4509 0.552246C20.0616 0.552246 17.1354 1.52765 14.6969 2.50306C12.2583 3.47847 9.81983 4.94158 7.38131 7.38009C4.9428 9.8186 3.96739 11.7694 2.50428 14.6956C1.52888 17.1341 1.04117 20.0604 0.553467 24.4497C0.553467 28.839 0.553467 30.3021 0.553467 41.0316C0.553467 52.2488 0.553467 53.2242 0.553467 57.6135C0.553467 62.0028 1.52888 64.929 2.50428 67.3675C3.47969 69.8061 4.9428 72.2446 7.38131 74.6831C9.81983 77.1216 11.7706 78.097 14.6969 79.5601C17.1354 80.5355 20.0616 81.0232 24.4509 81.5109C28.8402 81.5109 30.3033 81.5109 41.0328 81.5109C51.7623 81.5109 53.2254 81.5109 57.6147 81.5109C62.004 81.5109 64.9303 80.5355 67.3688 79.5601C69.8073 78.5847 72.2458 77.1216 74.6843 74.6831C77.1228 72.2446 78.0982 70.2938 79.5613 67.3675C80.5368 64.929 81.0244 62.0028 81.5121 57.6135C81.5121 53.2242 81.5121 51.7611 81.5121 41.0316C81.5121 30.3021 81.5121 28.839 81.5121 24.4497C81.5121 20.0604 80.5368 17.1341 79.5613 14.6956C78.5859 12.2571 77.1228 9.8186 74.6843 7.38009C72.2458 4.94158 70.295 3.96617 67.3688 2.50306C64.9303 1.52765 62.004 1.03995 57.6147 0.552246C53.2254 0.552246 52.25 0.552246 41.0328 0.552246Z" fill="white"/>
<path d="M41.0328 20.0604C29.3279 20.0604 20.0616 29.3267 20.0616 41.0316C20.0616 52.7365 29.3279 62.0028 41.0328 62.0028C52.7377 62.0028 62.004 52.7365 62.004 41.0316C62.004 29.3267 52.7377 20.0604 41.0328 20.0604ZM41.0328 54.6873C33.7173 54.6873 27.3771 48.8348 27.3771 41.0316C27.3771 33.716 33.2296 27.3759 41.0328 27.3759C48.3484 27.3759 54.6885 33.2283 54.6885 41.0316C54.6885 48.3471 48.3484 54.6873 41.0328 54.6873Z" fill="white"/>
<path d="M62.4917 24.4497C65.1852 24.4497 67.3688 22.2662 67.3688 19.5727C67.3688 16.8792 65.1852 14.6956 62.4917 14.6956C59.7982 14.6956 57.6147 16.8792 57.6147 19.5727C57.6147 22.2662 59.7982 24.4497 62.4917 24.4497Z" fill="white"/>
</svg>
