<svg width="108" height="108" viewBox="0 0 108 108" fill="none" xmlns="http://www.w3.org/2000/svg">
<path d="M100.067 79.5531C83.4522 71.5076 80.8041 59.0856 80.6862 58.1643C80.5436 57.0482 80.3819 56.1707 81.6128 55.0355C82.7998 53.9386 88.0659 50.6782 89.527 49.6581C91.9421 47.9689 93.0058 46.2825 92.2218 44.2094C91.6735 42.7753 90.3385 42.2351 88.9321 42.2351C88.4885 42.2364 88.0464 42.2861 87.6136 42.3831C84.9599 42.959 82.3831 44.2889 80.8918 44.6482C80.7126 44.6944 80.5286 44.7192 80.3435 44.7222C79.5485 44.7222 79.247 44.3685 79.3237 43.4114C79.5102 40.5102 79.9049 34.8477 79.4471 29.558C78.8193 22.2803 76.4727 18.6744 73.6903 15.4853C72.3443 13.9387 66.094 7.29443 54.0321 7.29443C41.9702 7.29443 35.7282 13.9387 34.3904 15.4661C31.5997 18.6552 29.2559 22.2612 28.6336 29.5389C28.1758 34.8285 28.587 40.4883 28.7569 43.3922C28.8118 44.3026 28.5321 44.703 27.7372 44.703C27.5521 44.6998 27.3681 44.675 27.1889 44.629C25.7003 44.2697 23.1235 42.9398 20.4699 42.3639C20.037 42.2669 19.5949 42.2172 19.1513 42.2159C17.7395 42.2159 16.4099 42.7643 15.8617 44.1902C15.0776 46.2633 16.1358 47.9497 18.5591 49.6389C20.0203 50.659 25.2864 53.9167 26.4734 55.0163C27.7015 56.1515 27.5425 57.029 27.4 58.1451C27.2821 59.0802 24.6312 71.5022 8.01868 79.5339C7.0455 80.0056 5.38973 81.0037 8.30926 82.6161C12.8928 85.1499 15.9439 84.8784 18.3152 86.4058C20.3273 87.7028 19.1376 90.4998 20.6014 91.509C22.3998 92.7512 27.7152 91.4212 34.5823 93.689C40.3391 95.5865 43.8371 100.947 54.0458 100.947C64.2546 100.947 67.854 95.5619 73.5093 93.689C80.3627 91.4212 85.6891 92.7512 87.4902 91.509C88.9513 90.4998 87.7643 87.7028 89.7765 86.4058C92.1477 84.8784 95.1961 85.1499 99.7824 82.6161C102.696 81.0229 101.041 80.0248 100.067 79.5531Z" fill="white"/>
<path d="M107.296 78.6084C106.551 76.5792 105.131 75.4933 103.513 74.5939C103.209 74.4156 102.929 74.273 102.691 74.1634C102.208 73.9138 101.715 73.6725 101.224 73.4175C96.1829 70.7439 92.2464 67.371 89.516 63.373C88.7406 62.2474 88.0681 61.0543 87.5066 59.8082C87.2736 59.1418 87.2845 58.7634 87.4518 58.4179C87.6176 58.1517 87.837 57.9229 88.096 57.746C88.9622 57.1729 89.8559 56.5916 90.4617 56.1995C91.5418 55.5002 92.3971 54.9463 92.9481 54.5542C95.0179 53.1063 96.4653 51.568 97.3699 49.8486C98.0011 48.6607 98.3692 47.3508 98.4491 46.008C98.5291 44.6651 98.319 43.3208 97.8332 42.0664C96.4625 38.4577 93.0551 36.2173 88.9266 36.2173C88.0558 36.2165 87.1874 36.3084 86.336 36.4915C86.1085 36.5409 85.881 36.593 85.6589 36.6506C85.6973 34.1826 85.6425 31.5776 85.4232 29.0137C84.6446 20.0002 81.4893 15.2754 78.1997 11.5077C76.0931 9.14669 73.6118 7.1492 70.8557 5.59561C65.8637 2.74376 60.2028 1.2959 54.032 1.2959C47.8613 1.2959 42.2278 2.74376 37.2304 5.59561C34.4674 7.14968 31.9811 9.15116 29.8726 11.5187C26.583 15.2864 23.4277 20.0194 22.6492 29.0246C22.4299 31.5886 22.375 34.2073 22.4107 36.6616C22.1886 36.604 21.9638 36.5519 21.7363 36.5025C20.8849 36.3194 20.0165 36.2275 19.1457 36.2283C15.0145 36.2283 11.6015 38.4686 10.2364 42.0773C9.74838 43.3323 9.53621 44.6776 9.61426 46.0218C9.69231 47.3661 10.0588 48.6778 10.6887 49.8678C11.5961 51.5871 13.0435 53.1255 15.1132 54.5734C15.6615 54.9573 16.5195 55.5112 17.5996 56.2187C18.1835 56.5971 19.0361 57.151 19.8722 57.7049C20.1647 57.8941 20.4133 58.1437 20.6014 58.4371C20.7768 58.7963 20.7823 59.1829 20.5219 59.8959C19.968 61.1159 19.3065 62.2841 18.5454 63.3867C15.8753 67.2942 12.0539 70.6068 7.17428 73.2585C4.58919 74.6295 1.90268 75.5454 0.767762 78.6303C-0.0875364 80.9584 0.471697 83.6074 2.64558 85.8395C3.44342 86.6726 4.36878 87.3733 5.38692 87.9153C7.50541 89.0799 9.75809 89.9814 12.095 90.5999C12.5772 90.7243 13.0351 90.9292 13.4492 91.2059C14.2415 91.8997 14.1291 92.9444 15.1845 94.4746C15.7143 95.2654 16.3875 95.9499 17.1692 96.4928C19.3842 98.0229 21.8734 98.1189 24.5105 98.2204C26.8928 98.3108 29.593 98.415 32.677 99.4324C33.9545 99.8547 35.2813 100.672 36.8192 101.626C40.5117 103.897 45.5668 107.003 54.0266 107.003C62.4863 107.003 67.577 103.88 71.297 101.601C72.8239 100.664 74.1425 99.8547 75.3844 99.4433C78.4684 98.4233 81.1686 98.3218 83.5508 98.2313C86.188 98.1299 88.6771 98.0339 90.8921 96.5038C91.818 95.858 92.5894 95.0152 93.151 94.0358C93.9104 92.7443 93.8912 91.8421 94.6039 91.2114C94.9924 90.9479 95.4224 90.7514 95.8759 90.63C98.2447 90.0096 100.528 89.0997 102.674 87.9208C103.756 87.3403 104.73 86.5778 105.553 85.6667L105.58 85.6338C107.62 83.4511 108.132 80.8789 107.296 78.6084ZM99.7768 82.6504C95.1906 85.1841 92.1422 84.9126 89.7709 86.44C87.756 87.7371 88.9485 90.5341 87.4846 91.5432C85.6863 92.7854 80.3709 91.4554 73.5038 93.7232C67.8402 95.5961 64.2271 100.982 54.0403 100.982C43.8534 100.982 40.3253 95.6071 34.5685 93.7095C27.7152 91.4417 22.3887 92.7717 20.5877 91.5295C19.1265 90.5204 20.3135 87.7233 18.3014 86.4263C15.9274 84.8989 12.879 85.1704 8.29549 82.6504C5.37596 81.038 7.03173 80.0398 8.00491 79.5682C24.6174 71.5227 27.2683 59.1007 27.3862 58.1793C27.5287 57.0632 27.6877 56.1858 26.4596 55.0505C25.2726 53.9536 20.0065 50.6932 18.5454 49.6731C16.1275 47.9839 15.0639 46.2975 15.8479 44.2244C16.3962 42.7903 17.7339 42.2501 19.1375 42.2501C19.5811 42.2514 20.0232 42.3011 20.4561 42.3982C23.1097 42.974 25.6866 44.304 27.1751 44.6632C27.3543 44.7092 27.5384 44.7341 27.7234 44.7372C28.5184 44.7372 28.798 44.3369 28.7432 43.4265C28.5732 40.5225 28.162 34.8627 28.6198 29.5731C29.2476 22.2954 31.5914 18.6894 34.3766 15.5003C35.7144 13.9674 42.0003 7.32317 54.0211 7.32317C66.0419 7.32317 72.3442 13.94 73.682 15.4674C76.4699 18.6565 78.8165 22.2625 79.4388 29.5402C79.8966 34.8298 79.5019 40.4924 79.3154 43.3936C79.2524 44.3506 79.5402 44.7043 80.3352 44.7043C80.5203 44.7013 80.7043 44.6765 80.8835 44.6303C82.3748 44.2711 84.9516 42.9411 87.6053 42.3653C88.0381 42.2682 88.4803 42.2185 88.9238 42.2172C90.3356 42.2172 91.6652 42.7656 92.2135 44.1915C92.9975 46.2646 91.9393 47.951 89.5187 49.6402C88.0576 50.6603 82.7915 53.918 81.6045 55.0176C80.3736 56.1528 80.5353 57.0303 80.6779 58.1464C80.7958 59.0815 83.4439 71.5035 100.059 79.5353C101.041 80.0261 102.696 81.0243 99.7768 82.6504Z" fill="black"/>
</svg>
