<svg width="79" height="64" viewBox="0 0 79 64" fill="none" xmlns="http://www.w3.org/2000/svg">
<path d="M78.1135 7.64709C75.1873 9.1102 72.2611 9.5979 68.8472 10.0856C72.2611 8.13479 74.6996 5.20857 75.675 1.30695C72.7488 3.25776 69.3349 4.23317 65.4332 5.20857C62.507 2.28235 58.1177 0.331543 53.7284 0.331543C43.4866 0.331543 35.6834 10.0856 38.1219 19.8397C24.9539 19.352 13.249 13.0118 4.95808 3.25776C0.568758 10.5733 3.00727 19.8397 9.83511 24.7167C7.3966 24.7167 4.95808 23.7413 2.51957 22.7659C2.51957 30.0814 7.8843 36.9093 15.1998 38.8601C12.7613 39.3478 10.3228 39.8355 7.8843 39.3478C9.83512 45.6879 15.6875 50.5649 23.0031 50.5649C17.1507 54.9543 8.372 57.3928 0.0810547 56.4174C7.3966 60.8067 15.6875 63.7329 24.4662 63.7329C54.2161 63.7329 70.798 38.8601 69.8226 15.938C73.2365 13.9872 76.1627 11.061 78.1135 7.64709Z" fill="white"/>
</svg>
