<svg width="79" height="56" viewBox="0 0 79 56" fill="none" xmlns="http://www.w3.org/2000/svg">
<path d="M76.0978 9.07465C75.1224 5.66072 72.6839 3.22221 69.27 2.2468C63.4176 0.783692 38.5446 0.783691 38.5446 0.783691C38.5446 0.783691 14.1595 0.783692 7.81939 2.2468C4.40547 3.22221 1.96691 5.66072 0.991504 9.07465C0.0160984 15.4148 0.0161133 28.0951 0.0161133 28.0951C0.0161133 28.0951 0.0161281 40.7753 1.47924 47.1155C2.45464 50.5294 4.89313 52.9679 8.30705 53.9433C14.1595 55.4064 39.0323 55.4064 39.0323 55.4064C39.0323 55.4064 63.4174 55.4064 69.7576 53.9433C73.1715 52.9679 75.6101 50.5294 76.5855 47.1155C78.0486 40.7753 78.0486 28.0951 78.0486 28.0951C78.0486 28.0951 78.0486 15.4148 76.0978 9.07465ZM31.2291 39.7999V16.3902L51.7127 28.0951L31.2291 39.7999Z" fill="white"/>
</svg>
