<svg width="31" height="29" viewBox="0 0 31 29" fill="none" xmlns="http://www.w3.org/2000/svg">
<path d="M20.4512 21.4724C20.4512 23.3839 20.4512 26.6354 20.4512 28.5401C18.4536 28.5591 13.2734 28.6302 10.4091 28.6302C7.72974 28.6302 2.17732 28.7476 0.368015 28.731C0.365274 27.1329 0.366979 23.5158 0.366979 21.4724C0.366979 17.5193 4.86297 14.3146 10.4091 14.3146C15.9552 14.3146 20.4512 17.5193 20.4512 21.4724Z" fill="#FBFBFB"/>
<path d="M17.1027 7.15773C17.1027 11.1109 14.1054 14.3155 10.408 14.3155C6.71059 14.3155 3.71326 11.1109 3.71326 7.15773C3.71326 3.20459 6.71059 -6.10352e-05 10.408 -6.10352e-05C14.1054 -6.10352e-05 17.1027 3.20459 17.1027 7.15773Z" fill="#FBFBFB"/>
<path fill-rule="evenodd" clip-rule="evenodd" d="M25.1373 9.82867C25.4147 9.82867 25.6807 9.92976 25.8768 10.1097C26.073 10.2896 26.1831 10.5337 26.1831 10.7882V13.6666H29.3206C29.598 13.6666 29.864 13.7677 30.0601 13.9477C30.2562 14.1276 30.3664 14.3716 30.3664 14.6261C30.3664 14.8806 30.2562 15.1246 30.0601 15.3046C29.864 15.4845 29.598 15.5856 29.3206 15.5856H26.1831V18.4641C26.1831 18.7185 26.073 18.9626 25.8768 19.1425C25.6807 19.3225 25.4147 19.4235 25.1373 19.4235C24.8599 19.4235 24.5939 19.3225 24.3978 19.1425C24.2017 18.9626 24.0915 18.7185 24.0915 18.4641V15.5856H20.954C20.6767 15.5856 20.4106 15.4845 20.2145 15.3046C20.0184 15.1246 19.9082 14.8806 19.9082 14.6261C19.9082 14.3716 20.0184 14.1276 20.2145 13.9477C20.4106 13.7677 20.6767 13.6666 20.954 13.6666H24.0915V10.7882C24.0915 10.5337 24.2017 10.2896 24.3978 10.1097C24.5939 9.92976 24.8599 9.82867 25.1373 9.82867Z" fill="#FBFBFB"/>
</svg>
