<svg width="19" height="19" viewBox="0 0 19 19" fill="none" xmlns="http://www.w3.org/2000/svg">
<g clip-path="url(#clip0_39_1931)">
<path d="M16.5737 11.8489V14.1164H18.8412V15.628H16.5737V17.8955H15.0621V15.628H12.7947V14.1164H15.0621V11.8489H16.5737ZM16.5798 2.77917C16.994 2.77917 17.3295 3.11551 17.3295 3.5297V10.3373H15.8179V4.2908H3.72488V14.8714L11.283 7.31406L13.5505 9.5815V11.7197L11.283 9.45226L5.86157 14.8722H11.283V16.3838H2.96302C2.7641 16.3836 2.5734 16.3045 2.43281 16.1637C2.29223 16.023 2.21326 15.8322 2.21326 15.6333V3.5297C2.21464 3.3312 2.29405 3.14122 2.43434 3.00079C2.57463 2.86036 2.76453 2.78076 2.96302 2.77917H16.5798ZM6.74814 5.80243C7.14905 5.80243 7.53354 5.96169 7.81702 6.24518C8.10051 6.52866 8.25977 6.91315 8.25977 7.31406C8.25977 7.71497 8.10051 8.09946 7.81702 8.38294C7.53354 8.66643 7.14905 8.82569 6.74814 8.82569C6.34723 8.82569 5.96274 8.66643 5.67926 8.38294C5.39577 8.09946 5.23651 7.71497 5.23651 7.31406C5.23651 6.91315 5.39577 6.52866 5.67926 6.24518C5.96274 5.96169 6.34723 5.80243 6.74814 5.80243Z" fill="white"/>
</g>
<defs>
<clipPath id="clip0_39_1931">
<rect width="18.1395" height="18.1395" fill="white" transform="translate(0.70166 0.511719)"/>
</clipPath>
</defs>
</svg>
