<svg width="106" height="107" viewBox="0 0 106 107" fill="none" xmlns="http://www.w3.org/2000/svg">
<circle cx="53" cy="53.5371" r="53" fill="#131921"/>
<path fill-rule="evenodd" clip-rule="evenodd" d="M78.6369 70.949C81.1371 70.6414 85.1099 70.8315 85.8919 71.8515H85.8916C86.486 72.6281 85.872 76.1186 84.8651 78.6209C83.8512 81.1095 82.3405 82.8681 81.5059 83.5471C80.6598 84.2265 80.0372 83.9634 80.4877 82.9435C80.9539 81.9235 83.5068 75.5992 82.4951 74.2716C81.5579 73.0444 77.3066 73.4887 75.3316 73.6951C75.1847 73.7105 75.0504 73.7245 74.931 73.7364C74.5138 73.774 74.1776 73.8116 73.9053 73.842C73.055 73.937 72.8278 73.9624 72.7008 73.7012C72.3741 72.7808 76.1327 71.2478 78.6369 70.949ZM19.5842 71.9726C31.1752 79.0513 49.117 90.0084 77.7136 76.3761H77.7133C78.9457 75.8608 79.8071 76.7211 78.5877 78.2807C77.36 79.8536 67.5457 88.8703 51.0487 88.8703C34.5629 88.8703 21.933 77.5884 18.0792 72.9076C17.0236 71.6931 18.2402 71.1446 18.956 71.5892C19.1633 71.7156 19.3727 71.8435 19.5842 71.9726Z" fill="#FF9900"/>
<path fill-rule="evenodd" clip-rule="evenodd" d="M67.0197 22.7554C63.4256 19.3889 57.5655 18.2031 53.0689 18.2031C44.1952 18.2031 34.2846 21.5169 32.1975 32.5091C31.9875 33.6796 32.8275 34.2974 33.5887 34.4687L42.6465 35.4415C43.4865 35.4022 44.1033 34.5737 44.261 33.732C45.0355 29.9451 48.2123 28.1175 51.7695 28.1175C53.6862 28.1175 55.8652 28.8276 57.0074 30.5501C58.0729 32.1242 58.1501 34.1758 58.1434 36.0887L58.1427 36.2284L58.1414 36.4369L58.1383 36.8495L58.1374 36.9855L58.1368 37.1207C58.1365 37.1881 58.1364 37.2551 58.1364 37.3218V38.5316C57.5414 38.5996 56.9263 38.6648 56.296 38.7301L55.9506 38.7657L54.7207 38.892L54.3639 38.9289C49.712 39.412 44.5377 40.0356 40.5853 41.7794C34.7442 44.3038 30.6353 49.4715 30.6353 57.0582C30.6353 66.7753 36.7525 71.6273 44.6025 71.6273C51.2446 71.6273 54.8677 70.0627 59.9872 64.8293C60.0725 64.9523 60.1549 65.072 60.235 65.189L60.3298 65.328L60.3764 65.3966L60.4682 65.5318L60.558 65.6646L60.8601 66.1123L60.9437 66.2359L61.0264 66.3578L61.0674 66.4182L61.149 66.5377C62.1525 68.0038 63.0505 69.1548 65.343 71.0618C66.0316 71.4265 66.9134 71.3913 67.5297 70.8549L67.5481 70.8386L67.5743 70.8648L67.6306 70.8147L67.8649 70.6068L68.1123 70.3877L68.4384 70.0997L68.6421 69.92L68.9221 69.6734L69.2841 69.3553L69.7329 68.9617L69.9621 68.7611L70.3495 68.4225L70.7417 68.0804L71.1365 67.7368L71.4526 67.4622L71.7678 67.1889L72.0808 66.918L72.3135 66.717L72.6201 66.4526L72.9213 66.1935L73.1431 66.0032L73.3608 65.8168L73.5033 65.6949L73.7131 65.516L73.8499 65.3996L74.0504 65.2294L74.1805 65.1191L74.3703 64.9589L74.493 64.8556L74.6124 64.7554L74.7283 64.6583C75.4898 64.0275 75.3584 63.0147 74.7546 62.1733C74.6693 62.0549 74.5837 61.9377 74.4981 61.8212L74.3954 61.6818L74.344 61.6123L74.1391 61.3355L74.037 61.1975L73.9353 61.0596C72.5149 59.1291 71.2367 57.1861 71.2367 53.5081V38.939C71.2367 38.6923 71.2374 38.4465 71.2384 38.2015L71.2402 37.8346L71.2452 36.9233C71.2718 31.5426 71.1703 26.6379 67.128 22.8581L67.0197 22.7554ZM44.2603 55.4413C44.2603 47.4729 51.3881 46.0267 58.1357 46.0267L58.1357 48.1607L58.1364 49.0209L58.1363 49.2327C58.1325 52.3644 58.0254 55.087 56.3897 57.9657C54.9063 60.5957 52.5566 62.213 49.9313 62.213C46.3475 62.213 44.2603 59.4779 44.2603 55.4413Z" fill="white"/>
</svg>
