<svg width="38" height="72" viewBox="0 0 38 72" fill="none" xmlns="http://www.w3.org/2000/svg">
<rect x="1" y="1" width="36" height="70" rx="18" stroke="white" stroke-width="2"/>
<circle cx="19" cy="19" r="15" fill="white"/>
<path fill-rule="evenodd" clip-rule="evenodd" d="M19.3063 11.026C19.3937 11.0688 19.4491 11.1576 19.4491 11.2548V27.1476C19.4491 27.2448 19.3937 27.3336 19.3063 27.3764C19.219 27.4191 19.1149 27.4083 19.0381 27.3486L13.9987 23.4291H10.7642C10.3422 23.4291 10.0001 23.087 10.0001 22.665V15.7374C10.0001 15.3154 10.3422 14.9733 10.7642 14.9733H13.9987L19.0381 11.0538C19.1149 10.9941 19.219 10.9833 19.3063 11.026ZM18.9397 11.7756L14.2424 15.4291C14.1977 15.4638 14.1427 15.4827 14.0861 15.4827H10.7642C10.6235 15.4827 10.5095 15.5967 10.5095 15.7374V22.665C10.5095 22.8057 10.6235 22.9197 10.7642 22.9197H14.0861C14.1427 22.9197 14.1977 22.9386 14.2424 22.9733L18.9397 26.6268V11.7756ZM23.3855 14.6359C23.4792 14.5736 23.6057 14.599 23.668 14.6927C25.4796 17.4155 25.4796 20.9867 23.668 23.7095C23.6057 23.8032 23.4792 23.8286 23.3855 23.7663C23.2919 23.704 23.2664 23.5775 23.3288 23.4838C25.0494 20.8977 25.0494 17.5045 23.3288 14.9184C23.2664 14.8247 23.2919 14.6983 23.3855 14.6359ZM26.1351 11.3735C26.0623 11.2877 25.9337 11.277 25.8479 11.3498C25.762 11.4225 25.7514 11.5511 25.8242 11.6369C29.5153 15.993 29.5153 22.4095 25.8242 26.7655C25.7514 26.8514 25.762 26.98 25.8479 27.0527C25.9337 27.1255 26.0623 27.1148 26.1351 27.029C29.955 22.5209 29.955 15.8816 26.1351 11.3735Z" fill="black"/>
<path d="M19.3062 11.0259L19.53 10.5683L19.53 10.5683L19.3062 11.0259ZM19.3062 27.3762L19.53 27.8338L19.53 27.8338L19.3062 27.3762ZM19.038 27.3485L19.3507 26.9464L19.038 27.3485ZM13.9986 23.4289L14.3113 23.0268L14.1734 22.9195H13.9986V23.4289ZM13.9986 14.9732V15.4826H14.1734L14.3113 15.3753L13.9986 14.9732ZM19.038 11.0537L19.3507 11.4557L19.3507 11.4557L19.038 11.0537ZM14.2423 15.4289L14.5551 15.831L14.5551 15.831L14.2423 15.4289ZM18.9397 11.7754H19.449V10.7339L18.6269 11.3734L18.9397 11.7754ZM14.2423 22.9732L13.9296 23.3753L13.9296 23.3753L14.2423 22.9732ZM18.9397 26.6267L18.6269 27.0287L19.449 27.6682V26.6267H18.9397ZM23.668 14.6926L24.092 14.4104L24.092 14.4104L23.668 14.6926ZM23.668 23.7094L24.092 23.9916L24.092 23.9916L23.668 23.7094ZM23.3854 23.7662L23.6676 23.3421L23.6676 23.3421L23.3854 23.7662ZM23.3287 23.4837L23.7528 23.7658L23.7528 23.7658L23.3287 23.4837ZM23.3287 14.9183L22.9046 15.2004L22.9046 15.2004L23.3287 14.9183ZM25.8478 11.3496L26.1771 11.7383L26.1771 11.7383L25.8478 11.3496ZM26.135 11.3734L26.5236 11.0441L26.5236 11.0441L26.135 11.3734ZM25.8241 11.6368L25.4354 11.9661L25.4354 11.9661L25.8241 11.6368ZM25.8241 26.7654L26.2127 27.0947L26.2127 27.0947L25.8241 26.7654ZM25.8478 27.0526L26.1771 26.6639L26.1771 26.6639L25.8478 27.0526ZM26.135 27.0288L26.5236 27.3581L26.5236 27.3581L26.135 27.0288ZM19.9584 11.2547C19.9584 10.9629 19.7922 10.6965 19.53 10.5683L19.0824 11.4835C18.9951 11.4407 18.9397 11.352 18.9397 11.2547H19.9584ZM19.9584 27.1474V11.2547H18.9397V27.1474H19.9584ZM19.53 27.8338C19.7922 27.7056 19.9584 27.4392 19.9584 27.1474H18.9397C18.9397 27.0501 18.9951 26.9614 19.0824 26.9186L19.53 27.8338ZM18.7253 27.7505C18.9556 27.9297 19.2679 27.962 19.53 27.8338L19.0824 26.9186C19.1698 26.8759 19.2739 26.8866 19.3507 26.9464L18.7253 27.7505ZM13.6859 23.831L18.7253 27.7505L19.3507 26.9464L14.3113 23.0268L13.6859 23.831ZM10.7641 23.9383H13.9986V22.9195H10.7641V23.9383ZM9.49062 22.6648C9.49062 23.3682 10.0608 23.9383 10.7641 23.9383V22.9195C10.6234 22.9195 10.5094 22.8055 10.5094 22.6648H9.49062ZM9.49062 15.7373V22.6648H10.5094V15.7373H9.49062ZM10.7641 14.4638C10.0608 14.4638 9.49062 15.0339 9.49062 15.7373H10.5094C10.5094 15.5966 10.6234 15.4826 10.7641 15.4826V14.4638ZM13.9986 14.4638H10.7641V15.4826H13.9986V14.4638ZM18.7253 10.6516L13.6859 14.5711L14.3113 15.3753L19.3507 11.4557L18.7253 10.6516ZM19.53 10.5683C19.2679 10.4401 18.9556 10.4724 18.7253 10.6516L19.3507 11.4557C19.2739 11.5155 19.1698 11.5262 19.0824 11.4835L19.53 10.5683ZM14.5551 15.831L19.2524 12.1775L18.6269 11.3734L13.9296 15.0268L14.5551 15.831ZM14.086 15.9919C14.2559 15.9919 14.4209 15.9353 14.5551 15.831L13.9296 15.0268C13.9743 14.9921 14.0293 14.9732 14.086 14.9732V15.9919ZM10.7641 15.9919H14.086V14.9732H10.7641V15.9919ZM11.0188 15.7373C11.0188 15.8779 10.9047 15.9919 10.7641 15.9919V14.9732C10.3421 14.9732 10 15.3153 10 15.7373H11.0188ZM11.0188 22.6648V15.7373H10V22.6648H11.0188ZM10.7641 22.4102C10.9047 22.4102 11.0188 22.5242 11.0188 22.6648H10C10 23.0868 10.3421 23.4289 10.7641 23.4289V22.4102ZM14.086 22.4102H10.7641V23.4289H14.086V22.4102ZM14.5551 22.5711C14.4209 22.4668 14.2559 22.4102 14.086 22.4102V23.4289C14.0293 23.4289 13.9743 23.41 13.9296 23.3753L14.5551 22.5711ZM19.2524 26.2246L14.5551 22.5711L13.9296 23.3753L18.6269 27.0287L19.2524 26.2246ZM18.4303 11.7754V26.6267H19.449V11.7754H18.4303ZM24.092 14.4104C23.8739 14.0825 23.4312 13.9935 23.1033 14.2117L23.6676 15.0599C23.5271 15.1534 23.3374 15.1153 23.2439 14.9747L24.092 14.4104ZM24.092 23.9916C26.0173 21.0978 26.0173 17.3041 24.092 14.4104L23.2439 14.9747C24.9417 17.5266 24.9417 20.8753 23.2439 23.4272L24.092 23.9916ZM23.1033 24.1903C23.4312 24.4084 23.8739 24.3195 24.092 23.9916L23.2439 23.4272C23.3374 23.2867 23.5271 23.2486 23.6676 23.3421L23.1033 24.1903ZM22.9046 23.2015C22.6864 23.5294 22.7754 23.9721 23.1033 24.1903L23.6676 23.3421C23.8081 23.4356 23.8463 23.6253 23.7528 23.7658L22.9046 23.2015ZM22.9046 15.2004C24.5115 17.6156 24.5115 20.7864 22.9046 23.2015L23.7528 23.7658C25.5871 21.0088 25.5871 17.3931 23.7528 14.6361L22.9046 15.2004ZM23.1033 14.2117C22.7754 14.4299 22.6864 14.8725 22.9046 15.2004L23.7528 14.6361C23.8463 14.7767 23.8081 14.9664 23.6676 15.0599L23.1033 14.2117ZM26.1771 11.7383C26.0483 11.8474 25.8555 11.8314 25.7463 11.7027L26.5236 11.0441C26.269 10.7436 25.819 10.7064 25.5185 10.961L26.1771 11.7383ZM26.2127 11.3075C26.3218 11.4363 26.3059 11.6291 26.1771 11.7383L25.5185 10.961C25.218 11.2156 25.1808 11.6656 25.4354 11.9661L26.2127 11.3075ZM26.2127 27.0947C30.0648 22.5486 30.0648 15.8535 26.2127 11.3075L25.4354 11.9661C28.9656 16.1321 28.9656 22.2701 25.4354 26.4361L26.2127 27.0947ZM26.1771 26.6639C26.3059 26.7731 26.3218 26.9659 26.2127 27.0947L25.4354 26.4361C25.1808 26.7366 25.218 27.1866 25.5185 27.4412L26.1771 26.6639ZM25.7463 26.6995C25.8555 26.5708 26.0483 26.5548 26.1771 26.6639L25.5185 27.4412C25.819 27.6958 26.269 27.6586 26.5236 27.3581L25.7463 26.6995ZM25.7463 11.7027C29.4053 16.0207 29.4053 22.3815 25.7463 26.6995L26.5236 27.3581C30.5045 22.6601 30.5045 15.7421 26.5236 11.0441L25.7463 11.7027Z" fill="black"/>
</svg>
