<svg width="127" height="46" viewBox="0 0 127 46" fill="none" xmlns="http://www.w3.org/2000/svg">
<path d="M126.607 11.069H120.021L116.21 27.1503L115.675 29.3575C115.307 29.4581 114.939 29.5577 114.572 29.6248C113.903 29.7589 113.201 29.826 112.466 29.826C111.63 29.826 110.962 29.6918 110.46 29.457C109.992 29.2233 109.624 28.889 109.424 28.4205C109.222 27.9867 109.155 27.4511 109.189 26.8495C109.222 26.2479 109.357 25.5793 109.524 24.9106L111.529 16.5524L112.833 11.003H106.113L103.071 23.8405C102.722 25.2885 102.509 26.7661 102.435 28.2539C102.368 29.6572 102.603 30.8614 103.071 31.965C103.539 33.0351 104.375 33.8704 105.511 34.5055C106.648 35.1406 108.286 35.4414 110.36 35.4414C111.797 35.4414 113.068 35.3072 114.138 35.0735C114.171 35.0735 114.238 35.04 114.272 35.04C113.97 36.3773 113.368 37.4474 112.433 38.2826C111.463 39.119 110.059 39.554 108.186 39.554C107.384 39.554 106.648 39.5204 105.98 39.4198L104.675 44.8708C105.544 44.9714 106.514 45.0385 107.583 45.0385C109.589 45.0385 111.328 44.8037 112.832 44.3687C114.337 43.9013 115.607 43.2327 116.711 42.2968C117.78 41.3598 118.683 40.1902 119.418 38.8193C120.153 37.416 120.721 35.7768 121.156 33.838L125.703 14.7142L126.606 11.0701L126.607 11.069ZM99.0259 24.8111C98.621 26.4614 98.4963 28.168 98.6569 29.8596C98.8246 31.5648 99.4933 34.1387 100.13 35.4425H93.7773C93.008 34.1387 93.0415 33.5036 92.8749 33.1022C92.0398 33.7793 91.1177 34.3415 90.1332 34.7738C89.1302 35.2099 88.0266 35.4425 86.7564 35.4425C85.2849 35.4425 84.0147 35.1753 82.9782 34.6743C81.9697 34.1944 81.088 33.4843 80.4042 32.6013C79.7355 31.7314 79.2681 30.7284 78.9662 29.5588C78.6643 28.3881 78.5313 27.1514 78.5313 25.8141C78.5313 23.7746 78.9003 21.8692 79.6025 20.0645C80.3371 18.2587 81.3401 16.6877 82.6103 15.3504C83.8816 14.0131 86.9912 11.0377 92.0721 11.0377H102.27L99.0259 24.8111ZM94.3789 16.6206C91.3039 16.6206 90.7337 16.6206 89.4646 17.2557C88.5622 17.7231 87.8265 18.4253 87.1914 19.2282C86.5228 20.0703 86.0025 21.0201 85.6528 22.037C85.2806 23.1009 85.0886 24.2195 85.0848 25.3467C85.0848 26.75 85.3196 27.8871 85.787 28.7235C86.2544 29.5588 87.1243 29.9591 88.3945 29.9591C89.0632 29.9591 89.6983 29.826 90.2339 29.5588C90.7683 29.2904 91.3699 28.8566 91.9715 28.2215C92.0386 27.4857 92.1392 26.7164 92.2734 25.9147C92.4064 25.1119 92.5742 24.3437 92.7072 23.6751L94.3789 16.6195V16.6206ZM76.7266 20.7298C76.7266 22.9035 76.3576 24.876 75.6565 26.6807C74.9906 28.416 73.9782 29.9976 72.6811 31.3288C71.4098 32.6326 69.9058 33.6356 68.1336 34.3702C66.3624 35.1059 64.4571 35.4738 62.384 35.4738C61.381 35.4738 60.378 35.3732 59.3415 35.2055L57.3356 43.264H50.7496L58.4034 11.1025H67.1965C68.8693 11.1025 70.305 11.3709 71.4757 11.8707C72.6075 12.3353 73.6233 13.043 74.4511 13.9438C75.2204 14.8137 75.7884 15.8502 76.1563 17.0198C76.5589 18.157 76.7254 19.3937 76.7254 20.7321L76.7266 20.7298ZM60.5782 29.8573C61.0791 29.9915 61.7154 30.0251 62.4511 30.0251C63.6207 30.0251 64.6572 29.8238 65.6267 29.3877C66.5578 28.965 67.3892 28.3504 68.0665 27.5841C68.7362 26.8148 69.2372 25.8789 69.6386 24.8089C70.0243 23.6558 70.2163 22.4467 70.2066 21.2308C70.2066 19.9606 69.9383 18.8581 69.3714 17.9881C68.8022 17.0858 67.8339 16.6173 66.4295 16.6173H63.8208L60.5782 29.8562V29.8573ZM46.7377 29.8573C45.9013 29.8573 45.2338 29.7232 44.7317 29.4895C44.2621 29.2546 43.8953 28.9214 43.6952 28.4529C43.4939 28.018 43.4268 27.4835 43.4604 26.8819C43.4939 26.2792 43.6281 25.6106 43.7958 24.9419L45.8007 16.5848H53.2901L54.6598 11.0355H47.1369L48.8756 4.01457L41.8536 5.11707L37.4078 23.9065C37.0584 25.3545 36.8458 26.8321 36.7727 28.3199C36.7056 29.7243 36.9404 30.9285 37.4078 32.031C37.8752 33.1011 38.7116 33.9364 39.8487 34.5715C40.9848 35.2066 42.6229 35.5074 44.6959 35.5074C46.1339 35.5074 47.4041 35.3732 48.4742 35.1395C48.5748 35.1059 48.7414 35.0724 48.8409 35.0389L50.2129 29.3229C49.7433 29.4906 49.2759 29.5912 48.8409 29.6561C48.1734 29.7902 47.4712 29.8573 46.7366 29.8573H46.7377ZM29.9878 11.069L24.17 35.4749H30.7559L36.5413 11.069H29.9889H29.9878ZM37.2423 8.26131L38.2453 4.01457H31.6594L30.6564 8.26131H37.2423ZM15.4126 11.1014C16.8159 11.1014 18.0537 11.3698 19.0891 11.8707C20.0906 12.3472 20.971 13.0445 21.6642 13.9102C22.3485 14.8112 22.8586 15.8321 23.1681 16.9203C23.5025 18.0563 23.6691 19.293 23.6691 20.6303C23.6691 22.6698 23.3023 24.5763 22.533 26.4145C21.7637 28.2204 20.7608 29.8249 19.4581 31.1611C18.1428 32.512 16.5749 33.5914 14.8435 34.3378C13.0712 35.1071 11.1659 35.5074 9.09282 35.5074C8.82559 35.5074 8.3582 35.5074 7.68954 35.4738C7.02089 35.4738 6.2516 35.4067 5.41634 35.2737C4.50582 35.1375 3.60213 34.9592 2.70817 34.7392C1.77389 34.5121 0.866158 34.1871 0 33.7697L7.65488 1.60718L14.5092 0.537109L11.7999 11.9378C12.4014 11.6694 12.937 11.4693 13.5386 11.3362C14.1066 11.1685 14.7417 11.1014 15.4115 11.1014H15.4126ZM9.66085 30.0262C10.6974 30.0262 11.6668 29.7914 12.5692 29.258C13.484 28.751 14.2905 28.0695 14.943 27.252C15.6207 26.3983 16.1516 25.4377 16.514 24.4097C16.8862 23.3457 17.0782 22.2271 17.082 21.1C17.082 19.6955 16.8483 18.5931 16.3798 17.7902C15.9124 16.9874 14.943 16.6206 13.6728 16.6206C13.2702 16.6206 12.8364 16.6542 12.1677 16.8219C11.4991 16.9538 10.9311 17.2893 10.3955 17.7567L7.5207 29.892C8.38951 30.0262 8.65786 30.0586 8.89156 30.0586C9.05928 30.0251 9.32652 30.0251 9.66085 30.0251V30.0262Z" fill="#002855"/>
</svg>
