<svg width="82" height="51" viewBox="0 0 82 51" fill="none" xmlns="http://www.w3.org/2000/svg">
<path d="M66.6149 18.308L41.0001 35.0555L15.3854 18.308C14.9277 18.0082 14.3134 17.8404 13.6736 17.8404C13.0339 17.8404 12.4195 18.0082 11.9619 18.308C11.7403 18.4537 11.5642 18.6275 11.444 18.8193C11.3239 19.0111 11.262 19.2171 11.262 19.4252C11.262 19.6333 11.3239 19.8393 11.444 20.0311C11.5642 20.223 11.7403 20.3968 11.9619 20.5424L39.2115 38.3624C39.69 38.6753 40.3319 38.8504 41.0001 38.8504C41.6684 38.8504 42.3102 38.6753 42.7887 38.3624L70.0384 20.5458C70.2615 20.4001 70.4389 20.2259 70.56 20.0334C70.6811 19.8409 70.7435 19.6341 70.7435 19.4252C70.7435 19.2163 70.6811 19.0095 70.56 18.817C70.4389 18.6246 70.2615 18.4503 70.0384 18.3046C69.5807 18.0048 68.9664 17.8369 68.3266 17.8369C67.6869 17.8369 67.0725 18.0048 66.6149 18.3046V18.308Z" fill="white"/>
</svg>
