<svg width="26" height="26" viewBox="0 0 26 26" fill="none" xmlns="http://www.w3.org/2000/svg">
<circle cx="12.62" cy="13.62" r="9.62" fill="#11B03E"/>
<path d="M11.7548 15.348L8.47829 12.4719L8.13501 12.8619L11.7883 16.0682L17.8151 9.74707L17.4383 9.3916L11.7548 15.348Z" fill="white"/>
<path d="M13 3.37988C10.4488 3.37988 8.00202 4.39347 6.19736 6.19724C4.39362 8.00201 3.38 10.4488 3.38 12.9999C3.38 15.551 4.39359 17.9979 6.19736 19.8025C8.00213 21.6063 10.4489 22.6199 13 22.6199C15.5511 22.6199 17.998 21.6063 19.8026 19.8025C21.6064 17.9978 22.62 15.551 22.62 12.9999C22.62 10.4488 21.6064 8.0019 19.8026 6.19724C17.9979 4.39349 15.5511 3.37988 13 3.37988ZM13 22.0999C10.5869 22.0999 8.27216 21.1411 6.565 19.4349C4.85875 17.7276 3.9 15.4129 3.9 12.9999C3.9 10.5868 4.85875 8.27204 6.565 6.56488C8.27227 4.85863 10.5869 3.89988 13 3.89988C15.4131 3.89988 17.7278 4.85863 19.435 6.56488C21.1413 8.27215 22.1 10.5868 22.1 12.9999C22.1 15.4129 21.1413 17.7277 19.435 19.4349C17.7277 21.1411 15.4131 22.0999 13 22.0999Z" fill="#11B03E"/>
</svg>
