<svg width="26" height="28" viewBox="0 0 26 28" fill="none" xmlns="http://www.w3.org/2000/svg">
<path d="M16 12.25C16 11.8358 16.3358 11.5 16.75 11.5H20.25C20.6642 11.5 21 11.8358 21 12.25C21 12.6642 20.6642 13 20.25 13H16.75C16.3358 13 16 12.6642 16 12.25ZM16.75 15C16.3358 15 16 15.3358 16 15.75C16 16.1642 16.3358 16.5 16.75 16.5H20.25C20.6642 16.5 21 16.1642 21 15.75C21 15.3358 20.6642 15 20.25 15H16.75ZM14 12C14 12.8284 13.3284 13.5 12.5 13.5C11.6716 13.5 11 12.8284 11 12C11 11.1716 11.6716 10.5 12.5 10.5C13.3284 10.5 14 11.1716 14 12ZM6 14.5C5.44772 14.5 5 14.9477 5 15.5V16.5C5 16.5 5 18.5 7.75 18.5C10.5 18.5 10.5 16.5 10.5 16.5V15.5C10.5 14.9477 10.0523 14.5 9.5 14.5H6ZM9.5 11.75C9.5 12.7165 8.7165 13.5 7.75 13.5C6.7835 13.5 6 12.7165 6 11.75C6 10.7835 6.7835 10 7.75 10C8.7165 10 9.5 10.7835 9.5 11.75ZM12.5 17.5H11.2852C11.3544 17.3298 11.4007 17.1715 11.4318 17.0359C11.4639 16.8954 11.4809 16.7748 11.4898 16.6837C11.4943 16.6379 11.4969 16.5991 11.4983 16.5682L11.4988 16.5547H11.5V15.5C11.5 15.1357 11.4026 14.7942 11.2324 14.5H13.5C14.0523 14.5 14.5 14.9477 14.5 15.5C14.5 16.6046 13.6046 17.5 12.5 17.5ZM1.00415 7.75C1.00415 5.67893 2.68308 4 4.75415 4H21.2508C23.3218 4 25.0008 5.67893 25.0008 7.75V20.2501C25.0008 22.3211 23.3218 24.0001 21.2508 24.0001H4.75415C2.68309 24.0001 1.00415 22.3211 1.00415 20.2501V7.75ZM4.75415 5.5C3.51151 5.5 2.50415 6.50736 2.50415 7.75V20.2501C2.50415 21.4927 3.51151 22.5001 4.75415 22.5001H21.2508C22.4934 22.5001 23.5008 21.4927 23.5008 20.2501V7.75C23.5008 6.50736 22.4934 5.5 21.2508 5.5H4.75415Z" fill="#14142B"/>
</svg>
