<svg width="64" height="48" viewBox="0 0 64 48" fill="none" xmlns="http://www.w3.org/2000/svg">
<path d="M62 40H2C0.896 40 0 39.104 0 38V2C0 0.896 0.896 0 2 0H42C43.104 0 44 0.896 44 2C44 3.104 43.104 4 42 4H4V36H60V4H58C56.896 4 56 3.104 56 2C56 0.896 56.896 0 58 0H62C63.104 0 64 0.896 64 2V38C64 39.104 63.104 40 62 40Z" fill="white"/>
<path d="M46 48H18C16.896 48 16 47.104 16 46C16 44.896 16.896 44 18 44H46C47.104 44 48 44.896 48 46C48 47.104 47.104 48 46 48Z" fill="white"/>
<path d="M54 32H10C8.896 32 8 31.104 8 30V10C8 8.896 8.896 8 10 8H54C55.104 8 56 8.896 56 10V30C56 31.104 55.104 32 54 32ZM12 28H52V12H12V28Z" fill="white"/>
<path d="M50 0C51.105 0 52 0.895 52 2C52 3.105 51.105 4 50 4C48.895 4 48 3.105 48 2C48 0.895 48.895 0 50 0Z" fill="white"/>
</svg>
