<svg width="85" height="85" viewBox="0 0 85 85" fill="none" xmlns="http://www.w3.org/2000/svg">
<path d="M55.3696 0C63.8675 0 68.1165 0 72.7638 1.46059C75.231 2.36309 77.4715 3.79302 79.3291 5.6506C81.1866 7.50819 82.6166 9.7487 83.5191 12.2158C84.9797 16.8632 84.9797 21.1121 84.9797 29.6234V55.343C84.9797 63.8675 84.9797 68.1431 83.5191 72.7373C82.6166 75.2044 81.1866 77.4449 79.3291 79.3025C77.4715 81.1601 75.231 82.59 72.7638 83.4925C68.1165 84.9797 63.8675 84.9797 55.3696 84.9797H29.6101C21.0856 84.9797 16.81 84.9797 12.2158 83.5191C9.7487 82.6166 7.50819 81.1866 5.6506 79.3291C3.79302 77.4715 2.36309 75.231 1.46059 72.7638C0 68.1165 0 63.8675 0 55.3563V29.6101C0 21.0856 0 16.81 1.46059 12.2158C2.36309 9.7487 3.79302 7.50819 5.6506 5.6506C7.50819 3.79302 9.7487 2.36309 12.2158 1.46059C16.8632 0 21.1121 0 29.6101 0H55.3696Z" fill="#00D632"/>
<path d="M56.3926 31.602C57.0565 32.2659 58.1586 32.2659 58.7827 31.602L62.1022 28.1497C62.8059 27.4858 62.7661 26.2907 62.0225 25.5737C59.414 23.3017 56.3814 21.5688 53.0996 20.4749L54.1486 15.4293C54.3743 14.3272 53.5511 13.2915 52.449 13.2915H46.0224C45.6207 13.2958 45.2327 13.438 44.9233 13.6942C44.6139 13.9504 44.4019 14.3051 44.3228 14.699L43.3934 19.187C34.8423 19.6251 27.5925 23.9671 27.5925 32.8634C27.5925 40.5647 33.5809 43.8709 39.9145 46.1415C45.9029 48.4253 49.0764 49.2751 49.0764 52.4884C49.0764 55.7946 45.9162 57.7332 41.2423 57.7332C36.9933 57.7332 32.5319 56.3125 29.0796 52.8469C28.9193 52.6863 28.7289 52.5589 28.5193 52.472C28.3096 52.385 28.0849 52.3403 27.858 52.3403C27.6311 52.3403 27.4064 52.385 27.1968 52.472C26.9872 52.5589 26.7968 52.6863 26.6364 52.8469L23.0514 56.432C22.7141 56.7704 22.5247 57.2288 22.5247 57.7066C22.5247 58.1845 22.7141 58.6429 23.0514 58.9813C25.8398 61.7299 29.3717 63.7216 33.3976 64.8237L32.4151 69.564C32.1893 70.666 32.9993 71.6885 34.1014 71.7017L40.5412 71.7549C40.9475 71.7567 41.3418 71.6173 41.6566 71.3605C41.9715 71.1038 42.1874 70.7457 42.2674 70.3474L43.1969 65.8461C53.4847 65.1557 59.752 59.4859 59.752 51.2137C59.752 43.5921 53.5113 40.3788 45.9428 37.763C41.6141 36.1563 37.8697 35.0543 37.8697 31.748C37.8697 28.5347 41.3618 27.26 44.8672 27.26C49.3287 27.26 53.6175 29.1057 56.4192 31.6285L56.3926 31.602Z" fill="white"/>
</svg>
