<svg width="12" height="17" viewBox="0 0 12 17" fill="none" xmlns="http://www.w3.org/2000/svg">
<path fill-rule="evenodd" clip-rule="evenodd" d="M3.33986 15.3301C3.33986 14.4075 2.59247 13.6601 1.66993 13.6601C0.747384 13.6601 0 14.4075 0 15.3301C0 16.2526 0.747384 17 1.66993 17C2.59247 17 3.33986 16.2526 3.33986 15.3301Z" fill="#F2F2F2"/>
<path fill-rule="evenodd" clip-rule="evenodd" d="M11.838 15.3301C11.838 14.4075 11.0906 13.6601 10.1681 13.6601C9.24555 13.6601 8.49817 14.4075 8.49817 15.3301C8.49817 16.2526 9.24555 17 10.1681 17C11.0906 17 11.838 16.2526 11.838 15.3301Z" fill="#F2F2F2"/>
<path fill-rule="evenodd" clip-rule="evenodd" d="M3.33986 8.53906C3.33986 7.61651 2.59247 6.86913 1.66993 6.86913C0.747384 6.86913 0 7.61651 0 8.53906C0 9.4616 0.747384 10.209 1.66993 10.209C2.59247 10.209 3.33986 9.4616 3.33986 8.53906Z" fill="#F2F2F2"/>
<path fill-rule="evenodd" clip-rule="evenodd" d="M11.838 8.53906C11.838 7.61651 11.0906 6.86913 10.1681 6.86913C9.24555 6.86913 8.49817 7.61651 8.49817 8.53906C8.49817 9.4616 9.24555 10.209 10.1681 10.209C11.0906 10.209 11.838 9.4616 11.838 8.53906Z" fill="#F2F2F2"/>
<path fill-rule="evenodd" clip-rule="evenodd" d="M3.33986 1.74804C3.33986 0.825496 2.59247 0.0781119 1.66993 0.0781119C0.747384 0.0781119 0 0.825496 0 1.74804C0 2.67059 0.747384 3.41797 1.66993 3.41797C2.59247 3.41797 3.33986 2.67059 3.33986 1.74804Z" fill="#F2F2F2"/>
<path fill-rule="evenodd" clip-rule="evenodd" d="M11.838 1.74804C11.838 0.825496 11.0906 0.0781119 10.1681 0.0781119C9.24555 0.0781119 8.49817 0.825496 8.49817 1.74804C8.49817 2.67059 9.24555 3.41797 10.1681 3.41797C11.0906 3.41797 11.838 2.67059 11.838 1.74804Z" fill="#F2F2F2"/>
</svg>
