<svg width="12" height="17" viewBox="0 0 12 17" fill="none" xmlns="http://www.w3.org/2000/svg">
<path fill-rule="evenodd" clip-rule="evenodd" d="M3.33986 15.2519C3.33986 14.3294 2.59247 13.582 1.66993 13.582C0.747384 13.582 0 14.3294 0 15.2519C0 16.1745 0.747384 16.9219 1.66993 16.9219C2.59247 16.9219 3.33986 16.1745 3.33986 15.2519Z" fill="#F2F2F2"/>
<path fill-rule="evenodd" clip-rule="evenodd" d="M11.838 15.2519C11.838 14.3294 11.0906 13.582 10.1681 13.582C9.24555 13.582 8.49817 14.3294 8.49817 15.2519C8.49817 16.1745 9.24555 16.9219 10.1681 16.9219C11.0906 16.9219 11.838 16.1745 11.838 15.2519Z" fill="#F2F2F2"/>
<path fill-rule="evenodd" clip-rule="evenodd" d="M3.33986 8.46093C3.33986 7.53839 2.59247 6.791 1.66993 6.791C0.747384 6.791 0 7.53839 0 8.46093C0 9.38348 0.747384 10.1309 1.66993 10.1309C2.59247 10.1309 3.33986 9.38348 3.33986 8.46093Z" fill="#F2F2F2"/>
<path fill-rule="evenodd" clip-rule="evenodd" d="M11.838 8.46093C11.838 7.53839 11.0906 6.791 10.1681 6.791C9.24555 6.791 8.49817 7.53839 8.49817 8.46093C8.49817 9.38348 9.24555 10.1309 10.1681 10.1309C11.0906 10.1309 11.838 9.38348 11.838 8.46093Z" fill="#F2F2F2"/>
<path fill-rule="evenodd" clip-rule="evenodd" d="M3.33986 1.66992C3.33986 0.747371 2.59247 -1.3113e-05 1.66993 -1.3113e-05C0.747384 -1.3113e-05 0 0.747371 0 1.66992C0 2.59246 0.747384 3.33984 1.66993 3.33984C2.59247 3.33984 3.33986 2.59246 3.33986 1.66992Z" fill="#F2F2F2"/>
<path fill-rule="evenodd" clip-rule="evenodd" d="M11.838 1.66992C11.838 0.747371 11.0906 -1.3113e-05 10.1681 -1.3113e-05C9.24555 -1.3113e-05 8.49817 0.747371 8.49817 1.66992C8.49817 2.59246 9.24555 3.33984 10.1681 3.33984C11.0906 3.33984 11.838 2.59246 11.838 1.66992Z" fill="#F2F2F2"/>
</svg>
