<svg width="19" height="19" viewBox="0 0 19 19" fill="none" xmlns="http://www.w3.org/2000/svg">
<path d="M7.61801 9.37646C7.07952 9.37646 6.56308 9.16254 6.18231 8.78177C5.80154 8.401 5.58762 7.88456 5.58762 7.34607C5.58762 6.80758 5.80154 6.29114 6.18231 5.91037C6.56308 5.5296 7.07952 5.31568 7.61801 5.31568C8.1565 5.31568 8.67294 5.5296 9.05371 5.91037C9.43448 6.29114 9.6484 6.80758 9.6484 7.34607C9.6484 7.88456 9.43448 8.401 9.05371 8.78177C8.67294 9.16254 8.1565 9.37646 7.61801 9.37646ZM8.02409 16.8194V13.7982C8.02409 13.3578 8.15403 12.9526 8.38865 12.5908C7.58432 12.4764 6.76496 12.531 5.98292 12.7511C5.20089 12.9713 4.47339 13.3522 3.8469 13.8695C4.83328 15.3292 6.31868 16.3785 8.02409 16.8203V16.8194ZM3.0185 12.228C4.33644 11.2527 5.93331 10.7275 7.57289 10.73C8.51409 10.73 9.41648 10.8997 10.2503 11.2101C11.0426 10.9006 11.9874 10.73 12.9873 10.73C14.4852 10.73 15.8614 11.1127 16.7827 11.7732C17.0873 10.6812 17.1304 9.5328 16.9086 8.42102C16.6868 7.30923 16.2062 6.26532 15.5058 5.37383C14.8055 4.48234 13.905 3.76832 12.8773 3.28961C11.8497 2.8109 10.7237 2.58096 9.5906 2.6184C8.45752 2.65584 7.34918 2.95961 6.35535 3.50512C5.36152 4.05062 4.51014 4.82252 3.87015 5.7583C3.23016 6.69409 2.81956 7.76744 2.6716 8.89144C2.52364 10.0154 2.64249 11.1585 3.0185 12.228ZM16.0364 13.5148C15.6818 13.0339 14.4952 12.5348 12.9873 12.5348C11.1771 12.5348 9.82887 13.254 9.82887 13.7982V17.0468C11.0813 17.0475 12.3123 16.7222 13.4008 16.1029C14.4894 15.4837 15.398 14.5917 16.0373 13.5148H16.0364ZM9.82887 18.8516C4.84495 18.8516 0.804932 14.8116 0.804932 9.82765C0.804932 4.84373 4.84495 0.803711 9.82887 0.803711C14.8128 0.803711 18.8528 4.84373 18.8528 9.82765C18.8528 14.8116 14.8128 18.8516 9.82887 18.8516ZM12.9873 10.2789C12.5086 10.2789 12.0495 10.0887 11.7111 9.75024C11.3726 9.41178 11.1825 8.95272 11.1825 8.47406C11.1825 7.9954 11.3726 7.53635 11.7111 7.19788C12.0495 6.85942 12.5086 6.66927 12.9873 6.66927C13.4659 6.66927 13.925 6.85942 14.2634 7.19788C14.6019 7.53635 14.792 7.9954 14.792 8.47406C14.792 8.95272 14.6019 9.41178 14.2634 9.75024C13.925 10.0887 13.4659 10.2789 12.9873 10.2789Z" fill="#333030"/>
</svg>
