<svg width="36" height="36" viewBox="0 0 36 36" fill="none" xmlns="http://www.w3.org/2000/svg">
<mask id="path-1-outside-1_185_2071" maskUnits="userSpaceOnUse" x="0.245972" y="0.245605" width="35" height="35" fill="black">
<rect fill="white" x="0.245972" y="0.245605" width="35" height="35"/>
<path fill-rule="evenodd" clip-rule="evenodd" d="M3.24597 11.7724C3.24597 7.0676 7.04642 3.24561 11.7443 3.24561C15.0185 3.24561 16.4654 4.61571 18.0001 7.04473C19.5347 4.61571 20.9817 3.24561 24.2558 3.24561C28.9537 3.24561 32.7542 7.0676 32.7542 11.7724C32.7542 16.1766 30.2432 20.4118 27.3619 23.9259C24.6327 27.2544 21.4127 30.1217 19.2144 32.079C19.0715 32.2063 18.9329 32.3297 18.799 32.4492C18.3438 32.8553 17.6563 32.8553 17.2011 32.4492C17.0673 32.3297 16.9286 32.2063 16.7857 32.079C14.5875 30.1217 11.3674 27.2544 8.63824 23.9259C5.75696 20.4118 3.24597 16.1766 3.24597 11.7724Z"/>
</mask>
<path d="M18.0001 7.04473L16.0173 8.29745C16.447 8.97766 17.1955 9.39009 18.0001 9.39009C18.8047 9.39009 19.5531 8.97766 19.9828 8.29745L18.0001 7.04473ZM27.3619 23.9259L29.1756 25.413L29.1756 25.413L27.3619 23.9259ZM19.2144 32.079L20.7741 33.8306L20.7741 33.8306L19.2144 32.079ZM18.799 32.4492L20.3605 34.1992L20.3605 34.1992L18.799 32.4492ZM17.2011 32.4492L15.6397 34.1992L15.6397 34.1992L17.2011 32.4492ZM16.7857 32.079L18.3454 30.3274L18.3454 30.3274L16.7857 32.079ZM8.63824 23.9259L6.82458 25.413L6.82458 25.413L8.63824 23.9259ZM11.7443 0.900241C5.74214 0.900241 0.900607 5.78128 0.900607 11.7724H5.59134C5.59134 8.35393 8.35069 5.59097 11.7443 5.59097V0.900241ZM35.0995 11.7724C35.0995 5.78128 30.258 0.900241 24.2558 0.900241V5.59097C27.6494 5.59097 30.4088 8.35393 30.4088 11.7724H35.0995ZM29.1756 25.413C32.1449 21.7915 35.0995 17.018 35.0995 11.7724H30.4088C30.4088 15.3353 28.3414 19.0322 25.5482 22.4388L29.1756 25.413ZM20.7741 33.8306C22.9606 31.8838 26.3138 28.9033 29.1756 25.413L25.5482 22.4388C22.9517 25.6056 19.8648 28.3596 17.6548 30.3274L20.7741 33.8306ZM20.3605 34.1992C20.4933 34.0807 20.631 33.9581 20.7741 33.8306L17.6548 30.3274C17.512 30.4545 17.3725 30.5788 17.2375 30.6992L20.3605 34.1992ZM15.6397 34.1992C16.9845 35.3992 19.0156 35.3992 20.3605 34.1992L17.2375 30.6992C17.672 30.3115 18.3282 30.3115 18.7626 30.6992L15.6397 34.1992ZM15.226 33.8306C15.3691 33.9581 15.5068 34.0807 15.6397 34.1992L18.7626 30.6992C18.6277 30.5788 18.4881 30.4545 18.3454 30.3274L15.226 33.8306ZM6.82458 25.413C9.68637 28.9033 13.0396 31.8838 15.226 33.8306L18.3454 30.3274C16.1353 28.3595 13.0484 25.6056 10.4519 22.4388L6.82458 25.413ZM0.900607 11.7724C0.900607 17.018 3.8552 21.7915 6.82458 25.413L10.4519 22.4388C7.65873 19.0322 5.59134 15.3353 5.59134 11.7724H0.900607ZM24.2558 0.900241C22.2682 0.900241 20.6036 1.32387 19.1687 2.28681C17.792 3.21074 16.8349 4.49793 16.0173 5.792L19.9828 8.29745C20.6999 7.16251 21.2336 6.55014 21.7826 6.18176C22.2734 5.85239 22.9693 5.59097 24.2558 5.59097V0.900241ZM19.9828 5.792C19.1652 4.49793 18.2082 3.21074 16.8314 2.28681C15.3966 1.32387 13.7319 0.900241 11.7443 0.900241V5.59097C13.0309 5.59097 13.7268 5.85239 14.2176 6.18176C14.7665 6.55014 15.3002 7.16251 16.0173 8.29745L19.9828 5.792Z" fill="white" mask="url(#path-1-outside-1_185_2071)"/>
<mask id="path-3-outside-2_185_2071" maskUnits="userSpaceOnUse" x="0.245972" y="0.245605" width="35" height="35" fill="black">
<rect fill="white" x="0.245972" y="0.245605" width="35" height="35"/>
<path fill-rule="evenodd" clip-rule="evenodd" d="M3.24597 11.7724C3.24597 7.0676 7.04642 3.24561 11.7443 3.24561C15.0185 3.24561 16.4654 4.61571 18.0001 7.04473C19.5347 4.61571 20.9817 3.24561 24.2558 3.24561C28.9537 3.24561 32.7542 7.0676 32.7542 11.7724C32.7542 16.1766 30.2432 20.4118 27.3619 23.9259C24.6327 27.2544 21.4127 30.1217 19.2144 32.079C19.0715 32.2063 18.9329 32.3297 18.799 32.4492C18.3438 32.8553 17.6563 32.8553 17.2011 32.4492C17.0673 32.3297 16.9286 32.2063 16.7857 32.079C14.5875 30.1217 11.3674 27.2544 8.63824 23.9259C5.75696 20.4118 3.24597 16.1766 3.24597 11.7724Z"/>
</mask>
<path fill-rule="evenodd" clip-rule="evenodd" d="M3.24597 11.7724C3.24597 7.0676 7.04642 3.24561 11.7443 3.24561C15.0185 3.24561 16.4654 4.61571 18.0001 7.04473C19.5347 4.61571 20.9817 3.24561 24.2558 3.24561C28.9537 3.24561 32.7542 7.0676 32.7542 11.7724C32.7542 16.1766 30.2432 20.4118 27.3619 23.9259C24.6327 27.2544 21.4127 30.1217 19.2144 32.079C19.0715 32.2063 18.9329 32.3297 18.799 32.4492C18.3438 32.8553 17.6563 32.8553 17.2011 32.4492C17.0673 32.3297 16.9286 32.2063 16.7857 32.079C14.5875 30.1217 11.3674 27.2544 8.63824 23.9259C5.75696 20.4118 3.24597 16.1766 3.24597 11.7724Z" fill="#FF0000" fill-opacity="0.95"/>
<path d="M18.0001 7.04473L16.0173 8.29745C16.447 8.97766 17.1955 9.39009 18.0001 9.39009C18.8047 9.39009 19.5531 8.97766 19.9828 8.29745L18.0001 7.04473ZM27.3619 23.9259L29.1756 25.413L29.1756 25.413L27.3619 23.9259ZM19.2144 32.079L20.7741 33.8306L20.7741 33.8306L19.2144 32.079ZM18.799 32.4492L20.3605 34.1992L20.3605 34.1992L18.799 32.4492ZM17.2011 32.4492L15.6397 34.1992L15.6397 34.1992L17.2011 32.4492ZM16.7857 32.079L18.3454 30.3274L18.3454 30.3274L16.7857 32.079ZM8.63824 23.9259L6.82458 25.413L6.82458 25.413L8.63824 23.9259ZM11.7443 0.900241C5.74214 0.900241 0.900607 5.78128 0.900607 11.7724H5.59134C5.59134 8.35393 8.35069 5.59097 11.7443 5.59097V0.900241ZM35.0995 11.7724C35.0995 5.78128 30.258 0.900241 24.2558 0.900241V5.59097C27.6494 5.59097 30.4088 8.35393 30.4088 11.7724H35.0995ZM29.1756 25.413C32.1449 21.7915 35.0995 17.018 35.0995 11.7724H30.4088C30.4088 15.3353 28.3414 19.0322 25.5482 22.4388L29.1756 25.413ZM20.7741 33.8306C22.9606 31.8838 26.3138 28.9033 29.1756 25.413L25.5482 22.4388C22.9517 25.6056 19.8648 28.3596 17.6548 30.3274L20.7741 33.8306ZM20.3605 34.1992C20.4933 34.0807 20.631 33.9581 20.7741 33.8306L17.6548 30.3274C17.512 30.4545 17.3725 30.5788 17.2375 30.6992L20.3605 34.1992ZM15.6397 34.1992C16.9845 35.3992 19.0156 35.3992 20.3605 34.1992L17.2375 30.6992C17.672 30.3115 18.3282 30.3115 18.7626 30.6992L15.6397 34.1992ZM15.226 33.8306C15.3691 33.9581 15.5068 34.0807 15.6397 34.1992L18.7626 30.6992C18.6277 30.5788 18.4881 30.4545 18.3454 30.3274L15.226 33.8306ZM6.82458 25.413C9.68637 28.9033 13.0396 31.8838 15.226 33.8306L18.3454 30.3274C16.1353 28.3595 13.0484 25.6056 10.4519 22.4388L6.82458 25.413ZM0.900607 11.7724C0.900607 17.018 3.8552 21.7915 6.82458 25.413L10.4519 22.4388C7.65873 19.0322 5.59134 15.3353 5.59134 11.7724H0.900607ZM24.2558 0.900241C22.2682 0.900241 20.6036 1.32387 19.1687 2.28681C17.792 3.21074 16.8349 4.49793 16.0173 5.792L19.9828 8.29745C20.6999 7.16251 21.2336 6.55014 21.7826 6.18176C22.2734 5.85239 22.9693 5.59097 24.2558 5.59097V0.900241ZM19.9828 5.792C19.1652 4.49793 18.2082 3.21074 16.8314 2.28681C15.3966 1.32387 13.7319 0.900241 11.7443 0.900241V5.59097C13.0309 5.59097 13.7268 5.85239 14.2176 6.18176C14.7665 6.55014 15.3002 7.16251 16.0173 8.29745L19.9828 5.792Z" fill="white" mask="url(#path-3-outside-2_185_2071)"/>
</svg>
