<svg width="20" height="21" viewBox="0 0 20 21" fill="none" xmlns="http://www.w3.org/2000/svg">
<path d="M15.4475 17.1392C13.9354 18.4494 12.0008 19.1695 9.99999 19.1667C5.39749 19.1667 1.66666 15.4358 1.66666 10.8333C1.66666 6.23083 5.39749 2.5 9.99999 2.5C14.6025 2.5 18.3333 6.23083 18.3333 10.8333C18.3333 12.6133 17.775 14.2633 16.825 15.6167L14.1667 10.8333H16.6667C16.6665 9.29684 16.1357 7.80755 15.1639 6.61741C14.1921 5.42726 12.839 4.60933 11.3336 4.30196C9.82816 3.9946 8.26277 4.21668 6.90222 4.93064C5.54168 5.64459 4.46951 6.80659 3.86709 8.22007C3.26468 9.63354 3.16899 11.2117 3.59623 12.6876C4.02347 14.1635 4.9474 15.4465 6.21172 16.3196C7.47605 17.1927 9.00315 17.6023 10.5347 17.4791C12.0662 17.3558 13.5082 16.7074 14.6167 15.6433L15.4475 17.1392Z" fill="white"/>
<path d="M9.16666 13.3334H10.8333V15H9.16666V13.3334ZM7.13916 9.01087C7.24743 8.46903 7.50734 7.96908 7.88866 7.56919C8.26997 7.16929 8.757 6.88591 9.29308 6.752C9.82917 6.6181 10.3923 6.63918 10.9168 6.8128C11.4414 6.98642 11.9059 7.30543 12.2562 7.73272C12.6065 8.16001 12.8283 8.678 12.8958 9.22642C12.9632 9.77484 12.8736 10.3311 12.6372 10.8306C12.4008 11.33 12.0275 11.7521 11.5606 12.0476C11.0937 12.3432 10.5525 12.5001 9.99999 12.5H9.16666V10.8334H9.99999C10.2367 10.8334 10.4686 10.7661 10.6686 10.6395C10.8686 10.5128 11.0285 10.332 11.1298 10.118C11.2311 9.90404 11.2695 9.6657 11.2406 9.43074C11.2117 9.19578 11.1166 8.97386 10.9665 8.7908C10.8164 8.60774 10.6174 8.47106 10.3927 8.39668C10.1679 8.3223 9.92669 8.31326 9.69701 8.37063C9.46734 8.42799 9.25867 8.5494 9.0953 8.72072C8.93192 8.89204 8.82056 9.10623 8.77416 9.33837L7.13916 9.01087Z" fill="white"/>
</svg>
