<svg width="52" height="52" viewBox="0 0 52 52" fill="none" xmlns="http://www.w3.org/2000/svg">
<path fill-rule="evenodd" clip-rule="evenodd" d="M6.44194 4.29423C6.44194 3.10833 7.4033 2.14697 8.5892 2.14697H42.9454C44.1313 2.14697 45.0926 3.10833 45.0926 4.29423V47.2394C45.0926 48.4253 44.1313 49.3867 42.9454 49.3867H8.5892C7.4033 49.3867 6.44194 48.4253 6.44194 47.2394V38.6504C6.44194 37.4645 7.4033 36.5031 8.5892 36.5031C9.7751 36.5031 10.7365 37.4645 10.7365 38.6504V45.0922H40.7981V6.44149H10.7365V12.8833C10.7365 14.0692 9.7751 15.0305 8.5892 15.0305C7.4033 15.0305 6.44194 14.0692 6.44194 12.8833V4.29423ZM4.29468 19.3251C4.29468 18.1392 5.25604 17.1778 6.44194 17.1778H10.7365C11.9224 17.1778 12.8837 18.1392 12.8837 19.3251C12.8837 20.511 11.9224 21.4723 10.7365 21.4723H6.44194C5.25604 21.4723 4.29468 20.511 4.29468 19.3251ZM4.29468 25.7668C4.29468 24.5809 5.25604 23.6196 6.44194 23.6196H10.7365C11.9224 23.6196 12.8837 24.5809 12.8837 25.7668C12.8837 26.9527 11.9224 27.9141 10.7365 27.9141H6.44194C5.25604 27.9141 4.29468 26.9527 4.29468 25.7668ZM4.29468 32.2086C4.29468 31.0227 5.25604 30.0614 6.44194 30.0614H10.7365C11.9224 30.0614 12.8837 31.0227 12.8837 32.2086C12.8837 33.3945 11.9224 34.3559 10.7365 34.3559H6.44194C5.25604 34.3559 4.29468 33.3945 4.29468 32.2086Z" fill="white"/>
<path d="M32.6552 23.8323C36.1705 23.8323 39.0204 26.6821 39.0204 30.1975C39.0204 33.7127 36.1705 36.5626 32.6552 36.5626C29.1398 36.5626 26.2901 33.7127 26.2901 30.1975C26.2901 26.6821 29.1398 23.8323 32.6552 23.8323ZM26.3158 26.1461C25.9724 26.6823 25.6953 27.2649 25.4957 27.8824L17.3238 27.8827C16.8452 27.8827 16.4571 28.2708 16.4571 28.7494V29.4179C16.4571 30.0379 16.6783 30.6375 17.0809 31.1088C18.5313 32.8074 20.8064 33.6705 23.9755 33.6705C24.6657 33.6705 25.3137 33.6295 25.92 33.5479C26.2038 34.1207 26.5596 34.6514 26.9749 35.1293C26.0542 35.3147 25.0533 35.4065 23.9755 35.4065C20.3348 35.4065 17.5734 34.359 15.7608 32.2362C15.0898 31.4505 14.7212 30.4511 14.7212 29.4179V26.1461H26.3158ZM32.6552 26.1468L32.5512 26.1562C32.315 26.199 32.1288 26.3853 32.0858 26.6215L32.0766 26.7255L32.0754 29.6188H29.1879L29.0838 29.6281C28.8476 29.671 28.6614 29.8572 28.6185 30.0934L28.6092 30.1975L28.6185 30.3014C28.6614 30.5376 28.8476 30.7239 29.0838 30.7667L29.1879 30.7761H32.0754L32.0766 33.6692L32.0858 33.7733C32.1288 34.0095 32.315 34.1957 32.5512 34.2386L32.6552 34.2479L32.7592 34.2386C32.9954 34.1957 33.1817 34.0095 33.2245 33.7733L33.2339 33.6692L33.2327 30.7761H36.1316L36.2356 30.7667C36.4718 30.7239 36.6581 30.5376 36.7009 30.3014L36.7103 30.1975L36.7009 30.0934C36.6581 29.8572 36.4718 29.671 36.2356 29.6281L36.1316 29.6188H33.2327L33.2339 26.7255L33.2245 26.6215C33.1817 26.3853 32.9954 26.199 32.7592 26.1562L32.6552 26.1468ZM23.9755 12.2646C27.1713 12.2646 29.762 14.8554 29.762 18.0511C29.762 21.2469 27.1713 23.8376 23.9755 23.8376C20.7797 23.8376 18.189 21.2469 18.189 18.0511C18.189 14.8554 20.7797 12.2646 23.9755 12.2646ZM23.9755 14.0006C21.7384 14.0006 19.9249 15.8141 19.9249 18.0511C19.9249 20.2882 21.7384 22.1017 23.9755 22.1017C26.2126 22.1017 28.026 20.2882 28.026 18.0511C28.026 15.8141 26.2126 14.0006 23.9755 14.0006Z" fill="white"/>
</svg>
