<svg width="51" height="51" viewBox="0 0 51 51" fill="none" xmlns="http://www.w3.org/2000/svg">
<path fill-rule="evenodd" clip-rule="evenodd" d="M13.2676 9.40529C15.5852 9.37103 17.4535 7.48157 17.4535 5.15576C17.4535 2.80855 15.5507 0.905762 13.2035 0.905762C10.8562 0.905762 8.95346 2.80855 8.95346 5.15576C8.95346 7.49585 10.8447 9.39421 13.1821 9.40571C9.70316 9.43809 6.89793 11.3283 6.89793 13.6553C6.89793 13.9687 6.89785 14.3445 6.89778 14.7459C6.89756 15.8982 6.89729 17.2614 6.89858 17.9651C7.48887 17.9702 8.70674 17.9542 9.98211 17.9375C11.1884 17.9218 12.4461 17.9053 13.2729 17.9053C14.6213 17.9053 16.778 17.8821 18.3199 17.8655C18.8574 17.8597 19.3202 17.8547 19.6479 17.8518V13.6553C19.6479 11.3081 16.7937 9.40529 13.2729 9.40529C13.2711 9.40529 13.2693 9.40529 13.2676 9.40529ZM42.4995 37.1297C42.4995 39.459 40.6256 41.3506 38.3031 41.3793C41.7996 41.3982 44.6253 43.2937 44.6253 45.6292V49.8257C44.2976 49.8286 43.8349 49.8336 43.2974 49.8394C41.7555 49.856 39.5987 49.8792 38.2503 49.8792C37.4237 49.8792 36.1662 49.8956 34.96 49.9114L34.9594 49.9114L34.958 49.9115C33.6832 49.9281 32.466 49.9441 31.876 49.939C31.8747 49.2352 31.875 47.8718 31.8752 46.7194L31.8753 45.6292C31.8753 43.294 34.7005 41.3986 38.1965 41.3793C35.8737 41.3509 33.9995 39.4592 33.9995 37.1297C33.9995 34.7824 35.9023 32.8797 38.2495 32.8797C40.5967 32.8797 42.4995 34.7824 42.4995 37.1297ZM25.5 4.78128C24.6198 4.78128 23.9062 5.49482 23.9062 6.37503C23.9062 7.25523 24.6198 7.96878 25.5 7.96878C35.1822 7.96878 43.0312 15.8178 43.0312 25.5C43.0312 26.3802 43.7448 27.0938 44.625 27.0938C45.5052 27.0938 46.2188 26.3802 46.2188 25.5C46.2188 14.0574 36.9426 4.78128 25.5 4.78128ZM7.96875 25.5C7.96875 24.6198 7.2552 23.9063 6.375 23.9063C5.4948 23.9063 4.78125 24.6198 4.78125 25.5C4.78125 36.9427 14.0573 46.2188 25.5 46.2188C26.3802 46.2188 27.0938 45.5052 27.0938 44.625C27.0938 43.7448 26.3802 43.0313 25.5 43.0313C15.8178 43.0313 7.96875 35.1823 7.96875 25.5Z" fill="white"/>
<path d="M12.8302 22.9809V24.1622H14.7189L14.5534 25.2006H12.8302V26.4572L12.9055 27.5859H11.6714L11.7467 26.4572V23.0336L11.6714 21.9425H15.0951L14.9296 22.9809H12.8302ZM17.6417 27.7063C16.9093 27.7063 16.36 27.4555 15.9939 26.9539C15.6277 26.4472 15.4446 25.7098 15.4446 24.7416C15.4446 23.7835 15.6251 23.0586 15.9863 22.567C16.3525 22.0704 16.9043 21.8221 17.6417 21.8221C18.3791 21.8221 18.9284 22.0704 19.2896 22.567C19.6558 23.0586 19.8389 23.7835 19.8389 24.7416C19.8389 25.7098 19.6558 26.4472 19.2896 26.9539C18.9234 27.4555 18.3741 27.7063 17.6417 27.7063ZM17.6417 26.6454C17.9126 26.6454 18.1233 26.5877 18.2738 26.4723C18.4293 26.3519 18.5397 26.1563 18.6049 25.8854C18.6751 25.6095 18.7102 25.2282 18.7102 24.7416C18.7102 24.2701 18.6751 23.9014 18.6049 23.6355C18.5397 23.3697 18.4293 23.179 18.2738 23.0637C18.1183 22.9433 17.9076 22.8831 17.6417 22.8831C17.3759 22.8831 17.1652 22.9433 17.0097 23.0637C16.8542 23.179 16.7413 23.3697 16.6711 23.6355C16.6059 23.9014 16.5732 24.2701 16.5732 24.7416C16.5732 25.2282 16.6059 25.6095 16.6711 25.8854C16.7413 26.1563 16.8517 26.3519 17.0021 26.4723C17.1577 26.5877 17.3709 26.6454 17.6417 26.6454ZM24.0764 26.5475L23.9109 27.5859H20.5775L20.6527 26.4572V23.0336L20.5775 21.9425H21.8115L21.7363 23.0336V26.4572L21.7438 26.5475H24.0764ZM28.0665 26.5475L27.901 27.5859H24.5676L24.6428 26.4572V23.0336L24.5676 21.9425H25.8016L25.7264 23.0336V26.4572L25.7339 26.5475H28.0665ZM30.5893 27.7063C29.8569 27.7063 29.3076 27.4555 28.9414 26.9539C28.5752 26.4472 28.3921 25.7098 28.3921 24.7416C28.3921 23.7835 28.5727 23.0586 28.9339 22.567C29.3001 22.0704 29.8519 21.8221 30.5893 21.8221C31.3267 21.8221 31.876 22.0704 32.2372 22.567C32.6034 23.0586 32.7865 23.7835 32.7865 24.7416C32.7865 25.7098 32.6034 26.4472 32.2372 26.9539C31.871 27.4555 31.3217 27.7063 30.5893 27.7063ZM30.5893 26.6454C30.8602 26.6454 31.0709 26.5877 31.2214 26.4723C31.3769 26.3519 31.4873 26.1563 31.5525 25.8854C31.6227 25.6095 31.6578 25.2282 31.6578 24.7416C31.6578 24.2701 31.6227 23.9014 31.5525 23.6355C31.4873 23.3697 31.3769 23.179 31.2214 23.0637C31.0659 22.9433 30.8552 22.8831 30.5893 22.8831C30.3235 22.8831 30.1128 22.9433 29.9573 23.0637C29.8017 23.179 29.6889 23.3697 29.6186 23.6355C29.5534 23.9014 29.5208 24.2701 29.5208 24.7416C29.5208 25.2282 29.5534 25.6095 29.6186 25.8854C29.6889 26.1563 29.7992 26.3519 29.9497 26.4723C30.1052 26.5877 30.3184 26.6454 30.5893 26.6454ZM34.444 21.9425L34.4665 23.0712L34.9857 26.6303L35.821 21.9425H37.1528L37.9504 26.683L38.4922 23.0712L38.5148 21.9425H39.7262L39.4704 23.0712L38.9136 26.4873L38.8082 27.5859H37.04L36.3778 23.2518L35.7006 27.5859H34L33.8871 26.4572L33.3228 23.0712L33.067 21.9425H34.444Z" fill="white"/>
</svg>
