<svg width="44" height="45" viewBox="0 0 44 45" fill="none" xmlns="http://www.w3.org/2000/svg">
<path fill-rule="evenodd" clip-rule="evenodd" d="M3.96191 15.2416C3.96191 9.49874 8.60085 4.8335 14.3353 4.8335C18.3318 4.8335 20.0979 6.50589 21.9712 9.47082C23.8444 6.50589 25.6106 4.8335 29.6071 4.8335C35.3415 4.8335 39.9805 9.49874 39.9805 15.2416C39.9805 20.6175 36.9155 25.7871 33.3985 30.0765C30.0672 34.1394 26.1367 37.6392 23.4535 40.0284C23.279 40.1838 23.1098 40.3344 22.9464 40.4802C22.3908 40.976 21.5516 40.976 20.996 40.4802C20.8326 40.3344 20.6634 40.1838 20.4889 40.0284C17.8057 37.6392 13.8752 34.1394 10.5439 30.0765C7.0269 25.7871 3.96191 20.6175 3.96191 15.2416Z" fill="#FF0000"/>
</svg>
