<svg width="44" height="45" viewBox="0 0 44 45" fill="none" xmlns="http://www.w3.org/2000/svg">
<mask id="path-1-inside-1_171_1841" fill="white">
<path fill-rule="evenodd" clip-rule="evenodd" d="M21.9709 3.33984C11.4019 3.33984 2.83398 11.9077 2.83398 22.4767C2.83398 33.0456 11.4019 41.6136 21.9709 41.6136C32.5398 41.6136 41.1077 33.0456 41.1077 22.4767C41.1077 11.9077 32.5398 3.33984 21.9709 3.33984ZM5.08745 22.4767C5.08745 13.1523 12.6464 5.59331 21.9709 5.59331C31.2952 5.59331 38.8542 13.1523 38.8542 22.4767C38.8542 31.8011 31.2952 39.3601 21.9709 39.3601C12.6464 39.3601 5.08745 31.8011 5.08745 22.4767ZM24.1682 13.6889C24.1682 14.9023 23.1846 15.886 21.9711 15.886C20.7577 15.886 19.774 14.9023 19.774 13.6889C19.774 12.4755 20.7577 11.4918 21.9711 11.4918C23.1846 11.4918 24.1682 12.4755 24.1682 13.6889ZM17.915 18.4211H19.0417H21.9712C22.5935 18.4211 23.098 18.9255 23.098 19.5478V30.1391H24.9007H26.0275V32.3926H24.9007H21.9712H19.0417H17.915V30.1391H19.0417H20.8445V20.6746H19.0417H17.915V18.4211Z"/>
</mask>
<path fill-rule="evenodd" clip-rule="evenodd" d="M21.9709 3.33984C11.4019 3.33984 2.83398 11.9077 2.83398 22.4767C2.83398 33.0456 11.4019 41.6136 21.9709 41.6136C32.5398 41.6136 41.1077 33.0456 41.1077 22.4767C41.1077 11.9077 32.5398 3.33984 21.9709 3.33984ZM5.08745 22.4767C5.08745 13.1523 12.6464 5.59331 21.9709 5.59331C31.2952 5.59331 38.8542 13.1523 38.8542 22.4767C38.8542 31.8011 31.2952 39.3601 21.9709 39.3601C12.6464 39.3601 5.08745 31.8011 5.08745 22.4767ZM24.1682 13.6889C24.1682 14.9023 23.1846 15.886 21.9711 15.886C20.7577 15.886 19.774 14.9023 19.774 13.6889C19.774 12.4755 20.7577 11.4918 21.9711 11.4918C23.1846 11.4918 24.1682 12.4755 24.1682 13.6889ZM17.915 18.4211H19.0417H21.9712C22.5935 18.4211 23.098 18.9255 23.098 19.5478V30.1391H24.9007H26.0275V32.3926H24.9007H21.9712H19.0417H17.915V30.1391H19.0417H20.8445V20.6746H19.0417H17.915V18.4211Z" fill="white"/>
<path d="M17.915 18.4211V11.6607H11.1546V18.4211H17.915ZM23.098 30.1391H16.3375V36.8995H23.098V30.1391ZM26.0275 30.1391H32.7879V23.3787H26.0275V30.1391ZM26.0275 32.3926V39.153H32.7879V32.3926H26.0275ZM17.915 32.3926H11.1546V39.153H17.915V32.3926ZM17.915 30.1391V23.3787H11.1546V30.1391H17.915ZM20.8445 30.1391V36.8995H27.6049V30.1391H20.8445ZM20.8445 20.6746H27.6049V13.9141H20.8445V20.6746ZM17.915 20.6746H11.1546V27.435H17.915V20.6746ZM9.59439 22.4767C9.59439 15.6414 15.1355 10.1003 21.9709 10.1003V-3.42056C7.6682 -3.42056 -3.92642 8.17405 -3.92642 22.4767H9.59439ZM21.9709 34.8532C15.1355 34.8532 9.59439 29.312 9.59439 22.4767H-3.92642C-3.92642 36.7793 7.66818 48.374 21.9709 48.374V34.8532ZM34.3473 22.4767C34.3473 29.312 28.8061 34.8532 21.9709 34.8532V48.374C36.2734 48.374 47.8681 36.7793 47.8681 22.4767H34.3473ZM21.9709 10.1003C28.8061 10.1003 34.3473 15.6414 34.3473 22.4767H47.8681C47.8681 8.17403 36.2734 -3.42056 21.9709 -3.42056V10.1003ZM21.9709 -1.16709C8.91275 -1.16709 -1.67295 9.41861 -1.67295 22.4767H11.8479C11.8479 16.886 16.3801 12.3537 21.9709 12.3537V-1.16709ZM45.6147 22.4767C45.6147 9.4186 35.0289 -1.16709 21.9709 -1.16709V12.3537C27.5616 12.3537 32.0938 16.886 32.0938 22.4767H45.6147ZM21.9709 46.1205C35.0289 46.1205 45.6147 35.5347 45.6147 22.4767H32.0938C32.0938 28.0674 27.5615 32.5997 21.9709 32.5997V46.1205ZM-1.67295 22.4767C-1.67295 35.5347 8.91274 46.1205 21.9709 46.1205V32.5997C16.3801 32.5997 11.8479 28.0674 11.8479 22.4767H-1.67295ZM21.9711 22.6464C26.9182 22.6464 30.9286 18.636 30.9286 13.6889H17.4078C17.4078 11.1687 19.4509 9.12563 21.9711 9.12563V22.6464ZM13.0136 13.6889C13.0136 18.636 17.024 22.6464 21.9711 22.6464V9.12563C24.4913 9.12563 26.5344 11.1687 26.5344 13.6889H13.0136ZM21.9711 4.73136C17.024 4.73136 13.0136 8.74178 13.0136 13.6889H26.5344C26.5344 16.2091 24.4913 18.2522 21.9711 18.2522V4.73136ZM30.9286 13.6889C30.9286 8.74179 26.9182 4.73136 21.9711 4.73136V18.2522C19.4509 18.2522 17.4078 16.2091 17.4078 13.6889H30.9286ZM19.0417 11.6607H17.915V25.1815H19.0417V11.6607ZM21.9712 11.6607H19.0417V25.1815H21.9712V11.6607ZM29.8584 19.5478C29.8584 15.1919 26.3272 11.6607 21.9712 11.6607V25.1815C18.8598 25.1815 16.3375 22.6592 16.3375 19.5478H29.8584ZM29.8584 30.1391V19.5478H16.3375V30.1391H29.8584ZM24.9007 23.3787H23.098V36.8995H24.9007V23.3787ZM26.0275 23.3787H24.9007V36.8995H26.0275V23.3787ZM32.7879 32.3926V30.1391H19.2671V32.3926H32.7879ZM24.9007 39.153H26.0275V25.6322H24.9007V39.153ZM21.9712 39.153H24.9007V25.6322H21.9712V39.153ZM19.0417 39.153H21.9712V25.6322H19.0417V39.153ZM17.915 39.153H19.0417V25.6322H17.915V39.153ZM11.1546 30.1391V32.3926H24.6754V30.1391H11.1546ZM19.0417 23.3787H17.915V36.8995H19.0417V23.3787ZM20.8445 23.3787H19.0417V36.8995H20.8445V23.3787ZM14.0841 20.6746V30.1391H27.6049V20.6746H14.0841ZM19.0417 27.435H20.8445V13.9141H19.0417V27.435ZM17.915 27.435H19.0417V13.9141H17.915V27.435ZM11.1546 18.4211V20.6746H24.6754V18.4211H11.1546Z" fill="white" mask="url(#path-1-inside-1_171_1841)"/>
</svg>
