<svg width="33" height="33" viewBox="0 0 33 33" fill="none" xmlns="http://www.w3.org/2000/svg">
<mask id="path-1-outside-1_375_2428" maskUnits="userSpaceOnUse" x="-0.0244141" y="-0.0249023" width="33" height="33" fill="black">
<rect fill="white" x="-0.0244141" y="-0.0249023" width="33" height="33"/>
<path fill-rule="evenodd" clip-rule="evenodd" d="M2.97559 10.7914C2.97559 6.4786 6.45933 2.9751 10.7657 2.9751C13.767 2.9751 15.0934 4.23103 16.5002 6.45763C17.9069 4.23103 19.2333 2.9751 22.2346 2.9751C26.541 2.9751 30.0248 6.4786 30.0248 10.7914C30.0248 14.8286 27.723 18.7108 25.0819 21.932C22.5801 24.9832 19.6284 27.6115 17.6133 29.4057C17.4823 29.5224 17.3553 29.6355 17.2325 29.7451C16.8153 30.1174 16.1851 30.1174 15.7678 29.7451C15.6451 29.6355 15.518 29.5224 15.387 29.4057C13.372 27.6115 10.4202 24.9832 7.9185 21.932C5.27733 18.7108 2.97559 14.8286 2.97559 10.7914Z"/>
</mask>
<path d="M16.5002 6.45763L14.5174 7.71035C14.9472 8.39056 15.6956 8.80299 16.5002 8.80299C17.3048 8.80299 18.0532 8.39056 18.483 7.71035L16.5002 6.45763ZM25.0819 21.932L26.8955 23.4191H26.8955L25.0819 21.932ZM17.6133 29.4057L19.173 31.1573L19.173 31.1573L17.6133 29.4057ZM17.2325 29.7451L18.794 31.4951L18.794 31.4951L17.2325 29.7451ZM15.7678 29.7451L14.2064 31.4951L15.7678 29.7451ZM15.387 29.4057L16.9467 27.6541L16.9467 27.6541L15.387 29.4057ZM7.9185 21.932L6.10484 23.4191H6.10484L7.9185 21.932ZM10.7657 0.629733C5.15505 0.629733 0.630222 5.19227 0.630222 10.7914H5.32095C5.32095 7.76492 7.7636 5.32046 10.7657 5.32046V0.629733ZM32.3701 10.7914C32.3701 5.19227 27.8453 0.629733 22.2346 0.629733V5.32046C25.2367 5.32046 27.6794 7.76492 27.6794 10.7914H32.3701ZM26.8955 23.4191C29.6248 20.0904 32.3701 15.6699 32.3701 10.7914H27.6794C27.6794 13.9872 25.8213 17.3312 23.2682 20.445L26.8955 23.4191ZM19.173 31.1573C21.1763 29.3736 24.2611 26.632 26.8955 23.4191L23.2682 20.445C20.8991 23.3344 18.0805 25.8494 16.0537 27.6541L19.173 31.1573ZM18.794 31.4951C18.9157 31.3865 19.0418 31.2742 19.173 31.1573L16.0537 27.6541C15.9228 27.7706 15.7948 27.8846 15.671 27.995L18.794 31.4951ZM14.2064 31.4951C15.5133 32.6612 17.4871 32.6612 18.794 31.4951L15.6711 27.995C16.1434 27.5735 16.8569 27.5735 17.3293 27.995L14.2064 31.4951ZM13.8273 31.1573C13.9585 31.2742 14.0847 31.3865 14.2064 31.4951L17.3293 27.995C17.2055 27.8846 17.0775 27.7706 16.9467 27.6541L13.8273 31.1573ZM6.10484 23.4191C8.7392 26.632 11.8241 29.3736 13.8273 31.1573L16.9467 27.6541C14.9198 25.8494 12.1012 23.3344 9.73216 20.445L6.10484 23.4191ZM0.630222 10.7914C0.630222 15.6699 3.37556 20.0904 6.10484 23.4191L9.73216 20.445C7.17909 17.3312 5.32095 13.9872 5.32095 10.7914H0.630222ZM22.2346 0.629733C20.3834 0.629733 18.8171 1.02482 17.4625 1.93392C16.166 2.80399 15.2711 4.01203 14.5174 5.2049L18.483 7.71035C19.1361 6.67662 19.6077 6.14339 20.0764 5.82886C20.4869 5.55334 21.0845 5.32046 22.2346 5.32046V0.629733ZM18.483 5.2049C17.7293 4.01203 16.8344 2.80399 15.5378 1.93392C14.1832 1.02482 12.6169 0.629733 10.7657 0.629733V5.32046C11.9159 5.32046 12.5134 5.55334 12.924 5.82886C13.3927 6.1434 13.8643 6.67662 14.5174 7.71035L18.483 5.2049Z" fill="white" mask="url(#path-1-outside-1_375_2428)"/>
<mask id="path-3-outside-2_375_2428" maskUnits="userSpaceOnUse" x="-0.0244141" y="-0.0249023" width="33" height="33" fill="black">
<rect fill="white" x="-0.0244141" y="-0.0249023" width="33" height="33"/>
<path fill-rule="evenodd" clip-rule="evenodd" d="M2.97559 10.7914C2.97559 6.4786 6.45933 2.9751 10.7657 2.9751C13.767 2.9751 15.0934 4.23103 16.5002 6.45763C17.9069 4.23103 19.2333 2.9751 22.2346 2.9751C26.541 2.9751 30.0248 6.4786 30.0248 10.7914C30.0248 14.8286 27.723 18.7108 25.0819 21.932C22.5801 24.9832 19.6284 27.6115 17.6133 29.4057C17.4823 29.5224 17.3553 29.6355 17.2325 29.7451C16.8153 30.1174 16.1851 30.1174 15.7678 29.7451C15.6451 29.6355 15.518 29.5224 15.387 29.4057C13.372 27.6115 10.4202 24.9832 7.9185 21.932C5.27733 18.7108 2.97559 14.8286 2.97559 10.7914Z"/>
</mask>
<path d="M16.5002 6.45763L14.5174 7.71035C14.9472 8.39056 15.6956 8.80299 16.5002 8.80299C17.3048 8.80299 18.0532 8.39056 18.483 7.71035L16.5002 6.45763ZM25.0819 21.932L26.8955 23.4191H26.8955L25.0819 21.932ZM17.6133 29.4057L19.173 31.1573L19.173 31.1573L17.6133 29.4057ZM17.2325 29.7451L18.794 31.4951L18.794 31.4951L17.2325 29.7451ZM15.7678 29.7451L14.2064 31.4951L15.7678 29.7451ZM15.387 29.4057L16.9467 27.6541L16.9467 27.6541L15.387 29.4057ZM7.9185 21.932L6.10484 23.4191H6.10484L7.9185 21.932ZM10.7657 0.629733C5.15505 0.629733 0.630222 5.19227 0.630222 10.7914H5.32095C5.32095 7.76492 7.7636 5.32046 10.7657 5.32046V0.629733ZM32.3701 10.7914C32.3701 5.19227 27.8453 0.629733 22.2346 0.629733V5.32046C25.2367 5.32046 27.6794 7.76492 27.6794 10.7914H32.3701ZM26.8955 23.4191C29.6248 20.0904 32.3701 15.6699 32.3701 10.7914H27.6794C27.6794 13.9872 25.8213 17.3312 23.2682 20.445L26.8955 23.4191ZM19.173 31.1573C21.1763 29.3736 24.2611 26.632 26.8955 23.4191L23.2682 20.445C20.8991 23.3344 18.0805 25.8494 16.0537 27.6541L19.173 31.1573ZM18.794 31.4951C18.9157 31.3865 19.0418 31.2742 19.173 31.1573L16.0537 27.6541C15.9228 27.7706 15.7948 27.8846 15.671 27.995L18.794 31.4951ZM14.2064 31.4951C15.5133 32.6612 17.4871 32.6612 18.794 31.4951L15.6711 27.995C16.1434 27.5735 16.8569 27.5735 17.3293 27.995L14.2064 31.4951ZM13.8273 31.1573C13.9585 31.2742 14.0847 31.3865 14.2064 31.4951L17.3293 27.995C17.2055 27.8846 17.0775 27.7706 16.9467 27.6541L13.8273 31.1573ZM6.10484 23.4191C8.7392 26.632 11.8241 29.3736 13.8273 31.1573L16.9467 27.6541C14.9198 25.8494 12.1012 23.3344 9.73216 20.445L6.10484 23.4191ZM0.630222 10.7914C0.630222 15.6699 3.37556 20.0904 6.10484 23.4191L9.73216 20.445C7.17909 17.3312 5.32095 13.9872 5.32095 10.7914H0.630222ZM22.2346 0.629733C20.3834 0.629733 18.8171 1.02482 17.4625 1.93392C16.166 2.80399 15.2711 4.01203 14.5174 5.2049L18.483 7.71035C19.1361 6.67662 19.6077 6.14339 20.0764 5.82886C20.4869 5.55334 21.0845 5.32046 22.2346 5.32046V0.629733ZM18.483 5.2049C17.7293 4.01203 16.8344 2.80399 15.5378 1.93392C14.1832 1.02482 12.6169 0.629733 10.7657 0.629733V5.32046C11.9159 5.32046 12.5134 5.55334 12.924 5.82886C13.3927 6.1434 13.8643 6.67662 14.5174 7.71035L18.483 5.2049Z" fill="white" mask="url(#path-3-outside-2_375_2428)"/>
</svg>
