<svg width="63" height="63" viewBox="0 0 63 63" fill="none" xmlns="http://www.w3.org/2000/svg">
<path fill-rule="evenodd" clip-rule="evenodd" d="M4.97634 31.9161C4.74818 32.0038 4.60264 32.2287 4.61606 32.4728C4.62948 32.7169 4.79879 32.9245 5.03521 32.9867L24.3964 38.0818L29.4915 57.443C29.5537 57.6794 29.7613 57.8487 30.0054 57.8621C30.2495 57.8756 30.4744 57.73 30.5621 57.5019L46.0982 17.1081C46.1781 16.9003 46.1282 16.6649 45.9707 16.5075C45.8133 16.35 45.5779 16.3001 45.3701 16.38L4.97634 31.9161ZM24.8142 37.0266L7.0097 32.3412L44.5915 17.8867L30.137 55.4685L25.4516 37.664L34.498 28.6176C34.674 28.4416 34.674 28.1563 34.498 27.9803C34.322 27.8043 34.0366 27.8043 33.8606 27.9803L24.8142 37.0266Z" fill="white"/>
<path d="M4.61606 32.4728L5.17858 32.4419L5.17858 32.4419L4.61606 32.4728ZM4.97634 31.9161L5.17858 32.4419L5.17858 32.4419L4.97634 31.9161ZM5.03521 32.9867L4.89183 33.5315L4.89183 33.5315L5.03521 32.9867ZM24.3964 38.0818L24.9412 37.9384C24.8896 37.742 24.7362 37.5886 24.5398 37.537L24.3964 38.0818ZM29.4915 57.443L30.0363 57.2996L30.0363 57.2996L29.4915 57.443ZM30.0054 57.8621L29.9744 58.4247L29.9744 58.4247L30.0054 57.8621ZM30.5621 57.5019L31.0879 57.7041L31.0879 57.7041L30.5621 57.5019ZM46.0982 17.1081L45.5724 16.9058L45.5724 16.9058L46.0982 17.1081ZM45.3701 16.38L45.5724 16.9058L45.5724 16.9058L45.3701 16.38ZM7.0097 32.3412L6.80746 31.8154C6.57929 31.9032 6.43376 32.1281 6.44718 32.3722C6.4606 32.6163 6.62991 32.8238 6.86632 32.886L7.0097 32.3412ZM24.8142 37.0266L24.6709 37.5715C24.8646 37.6224 25.0709 37.5667 25.2126 37.425L24.8142 37.0266ZM44.5915 17.8867L45.1173 18.0889C45.1973 17.8811 45.1473 17.6458 44.9899 17.4883C44.8325 17.3309 44.5971 17.2809 44.3893 17.3609L44.5915 17.8867ZM30.137 55.4685L29.5922 55.6119C29.6544 55.8483 29.862 56.0176 30.106 56.031C30.3501 56.0444 30.575 55.8989 30.6628 55.6707L30.137 55.4685ZM25.4516 37.664L25.0532 37.2657C24.9115 37.4074 24.8558 37.6136 24.9068 37.8074L25.4516 37.664ZM34.498 28.6176L34.8963 29.016L34.498 28.6176ZM5.17858 32.4419L5.17858 32.4419L4.77411 31.3903C4.31777 31.5658 4.0267 32.0156 4.05354 32.5038L5.17858 32.4419ZM5.17858 32.4419L5.17858 32.4419L4.05354 32.5038C4.08039 32.9919 4.41901 33.4071 4.89183 33.5315L5.17858 32.4419ZM24.5398 37.537L5.17858 32.4419L4.89183 33.5315L24.253 38.6266L24.5398 37.537ZM30.0363 57.2996L24.9412 37.9384L23.8516 38.2252L28.9467 57.5864L30.0363 57.2996ZM30.0363 57.2996L30.0363 57.2996L28.9467 57.5864C29.0711 58.0592 29.4863 58.3978 29.9744 58.4247L30.0363 57.2996ZM30.0363 57.2996L30.0363 57.2996L29.9744 58.4247C30.4626 58.4515 30.9124 58.1604 31.0879 57.7041L30.0363 57.2996ZM45.5724 16.9058L30.0363 57.2996L31.0879 57.7041L46.624 17.3103L45.5724 16.9058ZM45.5724 16.9058L45.5724 16.9058L46.624 17.3103C46.7838 16.8947 46.6839 16.424 46.3691 16.1091L45.5724 16.9058ZM45.5724 16.9058L45.5724 16.9058L46.3691 16.1091C46.0542 15.7943 45.5835 15.6944 45.1679 15.8542L45.5724 16.9058ZM5.17858 32.4419L45.5724 16.9058L45.1679 15.8542L4.77411 31.3903L5.17858 32.4419ZM6.86632 32.886L24.6709 37.5715L24.9576 36.4818L7.15307 31.7964L6.86632 32.886ZM44.3893 17.3609L6.80746 31.8154L7.21193 32.867L44.7938 18.4125L44.3893 17.3609ZM30.6628 55.6707L45.1173 18.0889L44.0657 17.6844L29.6112 55.2663L30.6628 55.6707ZM24.9068 37.8074L29.5922 55.6119L30.6818 55.3251L25.9964 37.5207L24.9068 37.8074ZM34.0996 28.2193L25.0532 37.2657L25.8499 38.0624L34.8963 29.016L34.0996 28.2193ZM34.0996 28.3786C34.0556 28.3346 34.0556 28.2633 34.0996 28.2193L34.8963 29.016C35.2924 28.62 35.2924 27.9779 34.8963 27.5819L34.0996 28.3786ZM34.259 28.3786C34.215 28.4226 34.1436 28.4226 34.0996 28.3786L34.8963 27.5819C34.5003 27.1859 33.8583 27.1859 33.4622 27.5819L34.259 28.3786ZM25.2126 37.425L34.259 28.3786L33.4622 27.5819L24.4159 36.6283L25.2126 37.425Z" fill="white"/>
</svg>
