<svg width="128" height="29" viewBox="0 0 128 29" fill="none" xmlns="http://www.w3.org/2000/svg">
<path d="M127.469 24.8687V24.9606C127.46 26.9795 125.812 28.6092 123.793 28.6001C121.774 28.5909 120.142 26.9427 120.154 24.9239C120.163 22.9019 121.811 21.2752 123.83 21.2844H123.861C125.846 21.2783 127.463 22.8836 127.469 24.8687Z" fill="#1D1D1B"/>
<path d="M106.848 23.4785C104.06 23.6715 101.643 21.5699 101.447 18.7821C101.254 15.9944 103.355 13.5773 106.146 13.3812C106.253 13.3751 106.364 13.3689 106.474 13.3689C109.262 13.1759 111.682 15.2775 111.875 18.0653C112.068 20.8531 109.966 23.2732 107.179 23.4662C107.068 23.4754 106.958 23.4785 106.848 23.4785ZM111.921 8.67565V9.93475C107.231 6.75177 100.849 7.97411 97.6663 12.6643C94.4834 17.3546 95.7057 23.7358 100.396 26.9188C103.876 29.2808 108.444 29.2808 111.921 26.9188V28.1779H117.708V8.67259L111.921 8.67565Z" fill="#1D1D1B"/>
<path d="M93.9457 15.7484V28.1035H88.1587V17.8224C88.1587 14.9979 86.6944 13.4661 84.1762 13.4661C83.974 13.4324 83.7657 13.4324 83.5635 13.4661C81.3149 13.6714 79.6483 15.6443 79.8199 17.8929V28.1372H73.9992V8.63193H79.7525V10.8438C81.1678 9.00874 83.395 7.98859 85.7079 8.12032C85.8795 8.12032 86.0817 8.08662 86.2533 8.08662C90.4931 8.0805 93.9365 11.5085 93.9457 15.7484Z" fill="#1D1D1B"/>
<path d="M71.3074 8.6981V14.3472H71.2399C68.9607 14.3472 65.6582 16.0138 65.6582 19.0773V28.2004H59.7334V8.6981H65.6215V11.25C67.0399 9.59265 69.1261 8.65828 71.3074 8.6981Z" fill="#1D1D1B"/>
<path d="M45.8408 23.438C43.0469 23.4502 40.7707 21.1955 40.7585 18.3985C40.7462 15.6015 43.004 13.3284 45.7979 13.3162C48.5919 13.3039 50.868 15.5617 50.8803 18.3556V18.3648C50.7884 21.1159 48.5888 23.3308 45.8408 23.438ZM50.914 8.63208V9.89118C49.2321 8.72705 47.2408 8.09903 45.1944 8.08678C39.5178 8.18481 34.993 12.8658 35.0941 18.5425C35.189 24.0813 39.6556 28.551 45.1944 28.6459C47.2378 28.6459 49.2291 28.0302 50.914 26.8752V28.1343H56.701V8.62902L50.914 8.63208Z" fill="#1D1D1B"/>
<path d="M32.6843 0.000119201H26.6246V28.1844H32.6843V0.000119201Z" fill="#1D1D1B"/>
<path d="M6.39962 0.000119201H0V28.1844H6.39962V0.000119201Z" fill="#1D1D1B"/>
<path d="M24.7091 28.1842H16.7685L7.17052 14.9438L9.65502 13.072C13.7509 9.97783 16.1497 5.13443 16.1221 0H22.3839C22.4176 5.98915 20.0679 11.7455 15.8494 15.9976L24.7091 28.1842Z" fill="#1D1D1B"/>
</svg>
