<svg width="24" height="24" viewBox="0 0 24 24" fill="none" xmlns="http://www.w3.org/2000/svg">
<path d="M6.50244 3.00244C4.56944 3.00244 3.00244 4.56945 3.00244 6.50244V12.5024C3.00244 14.4354 4.56944 16.0024 6.50244 16.0024H6.99853V14.0024H6.50244C5.67401 14.0024 5.00244 13.3309 5.00244 12.5024V6.50244C5.00244 5.67401 5.67401 5.00244 6.50244 5.00244H12.5024C13.3309 5.00244 14.0024 5.67401 14.0024 6.50244V12.5024C14.0024 13.3309 13.3309 14.0024 12.5024 14.0024H10.9957V16.0024H12.5024C14.4354 16.0024 16.0024 14.4354 16.0024 12.5024V6.50244C16.0024 4.56944 14.4354 3.00244 12.5024 3.00244H6.50244ZM10 11.4999C10 10.6715 10.6716 9.99994 11.5 9.99994H12.9988V7.99994H11.5C9.567 7.99994 8 9.56694 8 11.4999V17.4999C8 19.4329 9.567 20.9999 11.5 20.9999H17.5C19.433 20.9999 21 19.4329 21 17.4999V11.4999C21 9.56694 19.433 7.99994 17.5 7.99994H17.0049V9.99994H17.5C18.3284 9.99994 19 10.6715 19 11.4999V17.4999C19 18.3284 18.3284 18.9999 17.5 18.9999H11.5C10.6716 18.9999 10 18.3284 10 17.4999V11.4999Z" fill="#14142B"/>
</svg>
