<svg width="28" height="26" viewBox="0 0 28 26" fill="none" xmlns="http://www.w3.org/2000/svg">
<g clip-path="url(#clip0_307_1386)">
<path d="M20.5684 17.6683V14.6834C21.0907 14.1945 21.5055 13.6129 21.7892 12.9722C22.0728 12.3314 22.2196 11.644 22.2212 10.9495C22.2229 10.255 22.0792 9.56707 21.7985 8.92514C21.5179 8.28321 21.1057 7.69996 20.5857 7.20888C20.0658 6.71779 19.4482 6.32854 18.7685 6.06346C18.0888 5.79839 17.3604 5.66272 16.6251 5.66424C15.8897 5.66576 15.1619 5.80444 14.4835 6.07233C13.805 6.34021 13.1893 6.73201 12.6716 7.22524L9.51215 7.2263L11.0935 5.73488C12.5597 4.35018 14.5482 3.57227 16.6217 3.57227C18.6951 3.57227 20.6836 4.35018 22.1498 5.73488C23.616 7.11958 24.4396 8.99764 24.4396 10.9559C24.4396 12.9142 23.616 14.7922 22.1498 16.1769L20.5695 17.6683H20.5684ZM15.8299 22.1426C14.3637 23.5273 12.3752 24.3052 10.3017 24.3052C8.22827 24.3052 6.23974 23.5273 4.77359 22.1426C3.30744 20.7579 2.48376 18.8798 2.48376 16.9216C2.48376 14.9633 3.30744 13.0852 4.77359 11.7005L7.933 11.7027L6.35386 13.1941C5.83161 13.683 5.41676 14.2645 5.13312 14.9053C4.84948 15.5461 4.70264 16.2334 4.70103 16.9279C4.69942 17.6224 4.84307 18.3104 5.12374 18.9523C5.4044 19.5942 5.81655 20.1775 6.33653 20.6686C6.8565 21.1597 7.47406 21.5489 8.15375 21.814C8.83344 22.0791 9.56187 22.2147 10.2972 22.2132C11.0326 22.2117 11.7604 22.073 12.4388 21.8051C13.1173 21.5373 13.733 21.1455 14.2507 20.6522L15.8299 19.1608V22.1426Z" fill="white"/>
</g>
<g clip-path="url(#clip1_307_1386)">
<path d="M9.12395 13.7964C8.94042 13.7353 8.93866 13.6365 9.12747 13.5735L15.8381 11.3368C16.0241 11.2749 16.1307 11.379 16.0786 11.5611L14.1611 18.2714C14.1083 18.4574 14.0011 18.4637 13.9224 18.2872L12.6588 15.4436L14.7683 12.6309L11.9556 14.7404L9.12395 13.7964V13.7964Z" fill="white"/>
</g>
<defs>
<clipPath id="clip0_307_1386">
<rect width="26.8031" height="25.314" fill="white" transform="translate(0.994629 0.0976562)"/>
</clipPath>
<clipPath id="clip1_307_1386">
<rect width="8.438" height="8.438" fill="white" transform="translate(8.43982 10.5215)"/>
</clipPath>
</defs>
</svg>
