<svg width="18" height="18" viewBox="0 0 18 18" fill="none" xmlns="http://www.w3.org/2000/svg">
<path d="M8.16677 8.16663H9.83344H13.1668V9.83329H9.83344H8.16677H4.83344V8.16663H8.16677ZM9.00011 17.3333C4.39761 17.3333 0.666774 13.6025 0.666774 8.99996C0.666774 4.39746 4.39761 0.666626 9.00011 0.666626C13.6026 0.666626 17.3334 4.39746 17.3334 8.99996C17.3334 13.6025 13.6026 17.3333 9.00011 17.3333ZM9.00011 15.6666C10.7682 15.6666 12.4639 14.9642 13.7142 13.714C14.9644 12.4638 15.6668 10.7681 15.6668 8.99996C15.6668 7.23185 14.9644 5.53616 13.7142 4.28591C12.4639 3.03567 10.7682 2.33329 9.00011 2.33329C7.232 2.33329 5.5363 3.03567 4.28606 4.28591C3.03582 5.53616 2.33344 7.23185 2.33344 8.99996C2.33344 10.7681 3.03582 12.4638 4.28606 13.714C5.5363 14.9642 7.232 15.6666 9.00011 15.6666Z" fill="white"/>
</svg>
