<svg width="34" height="52" viewBox="0 0 34 52" fill="none" xmlns="http://www.w3.org/2000/svg">
<path d="M31.625 52H2.375C1.478 52 0.75 51.272 0.75 50.375V1.625C0.75 0.728 1.478 0 2.375 0H8.875C9.772 0 10.5 0.728 10.5 1.625C10.5 2.522 9.772 3.25 8.875 3.25H4V48.75H30V3.25H25.125C24.228 3.25 23.5 2.522 23.5 1.625C23.5 0.728 24.228 0 25.125 0H31.625C32.522 0 33.25 0.728 33.25 1.625V50.375C33.25 51.272 32.522 52 31.625 52Z" fill="white"/>
<path d="M25.125 45.5H8.875C7.978 45.5 7.25 44.772 7.25 43.875V8.125C7.25 7.228 7.978 6.5 8.875 6.5H25.125C26.022 6.5 26.75 7.228 26.75 8.125V43.875C26.75 44.772 26.022 45.5 25.125 45.5ZM10.5 42.25H23.5V9.75H10.5V42.25Z" fill="white"/>
<path d="M18.625 3.25H15.375C14.478 3.25 13.75 2.522 13.75 1.625C13.75 0.728 14.478 0 15.375 0H18.625C19.522 0 20.25 0.728 20.25 1.625C20.25 2.522 19.522 3.25 18.625 3.25Z" fill="white"/>
</svg>
