<svg width="103" height="104" viewBox="0 0 103 104" fill="none" xmlns="http://www.w3.org/2000/svg">
<g filter="url(#filter0_d_620_3586)">
<mask id="mask0_620_3586" style="mask-type:alpha" maskUnits="userSpaceOnUse" x="3" y="2" width="97" height="97">
<rect x="3" y="2" width="97" height="97" rx="21.4248" fill="#FEFEFE"/>
</mask>
<g mask="url(#mask0_620_3586)">
<rect x="3" y="2" width="97" height="97" rx="21.4248" fill="url(#paint0_linear_620_3586)"/>
<g filter="url(#filter1_i_620_3586)">
<path d="M69.7457 56.5154V33.6278C69.7457 32.7355 68.9286 32.0667 68.0539 32.243L41.8739 37.5212C41.1047 37.6763 40.5515 38.3522 40.5515 39.1368V72.7171C40.5515 77.804 36.5118 81.9716 31.4273 82.13L29.4263 82.1923C25.1755 82.3247 21.6577 78.9148 21.6577 74.662V74.4657C21.6577 70.91 24.1072 67.8228 27.5698 67.0144L34.6926 65.3515C35.9178 65.0654 36.7845 63.9731 36.7845 62.7149V25.3223C36.7845 23.9792 37.7302 22.8217 39.0463 22.5539L70.5476 16.1425C72.0796 15.8307 73.5127 17.0015 73.5127 18.565V65.7812C73.5127 70.8253 69.5945 75.0018 64.5607 75.3235L62.5098 75.4545C58.4028 75.7169 54.8532 72.6172 54.56 68.5124C54.257 64.6069 56.8989 61.083 60.7327 60.279L67.9124 58.7731C68.9807 58.549 69.7457 57.6069 69.7457 56.5154Z" fill="white"/>
</g>
</g>
</g>
<defs>
<filter id="filter0_d_620_3586" x="0.263046" y="0.675667" width="102.474" height="102.474" filterUnits="userSpaceOnUse" color-interpolation-filters="sRGB">
<feFlood flood-opacity="0" result="BackgroundImageFix"/>
<feColorMatrix in="SourceAlpha" type="matrix" values="0 0 0 0 0 0 0 0 0 0 0 0 0 0 0 0 0 0 127 0" result="hardAlpha"/>
<feOffset dy="1.41262"/>
<feGaussianBlur stdDeviation="1.36848"/>
<feComposite in2="hardAlpha" operator="out"/>
<feColorMatrix type="matrix" values="0 0 0 0 0 0 0 0 0 0 0 0 0 0 0 0 0 0 0.25 0"/>
<feBlend mode="normal" in2="BackgroundImageFix" result="effect1_dropShadow_620_3586"/>
<feBlend mode="normal" in="SourceGraphic" in2="effect1_dropShadow_620_3586" result="shape"/>
</filter>
<filter id="filter1_i_620_3586" x="21.6577" y="16.0918" width="51.855" height="67.2812" filterUnits="userSpaceOnUse" color-interpolation-filters="sRGB">
<feFlood flood-opacity="0" result="BackgroundImageFix"/>
<feBlend mode="normal" in="SourceGraphic" in2="BackgroundImageFix" result="shape"/>
<feColorMatrix in="SourceAlpha" type="matrix" values="0 0 0 0 0 0 0 0 0 0 0 0 0 0 0 0 0 0 127 0" result="hardAlpha"/>
<feOffset dy="1.17718"/>
<feGaussianBlur stdDeviation="0.824029"/>
<feComposite in2="hardAlpha" operator="arithmetic" k2="-1" k3="1"/>
<feColorMatrix type="matrix" values="0 0 0 0 0.631373 0 0 0 0 0.298039 0 0 0 0 0.290196 0 0 0 1 0"/>
<feBlend mode="normal" in2="shape" result="effect1_innerShadow_620_3586"/>
</filter>
<linearGradient id="paint0_linear_620_3586" x1="51.5" y1="2" x2="51.5" y2="99" gradientUnits="userSpaceOnUse">
<stop stop-color="#E96777"/>
<stop offset="1" stop-color="#E63E45"/>
</linearGradient>
</defs>
</svg>
