<svg width="38" height="72" viewBox="0 0 38 72" fill="none" xmlns="http://www.w3.org/2000/svg">
<rect x="1" y="1" width="36" height="70" rx="18" stroke="white" stroke-width="2"/>
<circle cx="19" cy="53" r="15" fill="white"/>
<path fill-rule="evenodd" clip-rule="evenodd" d="M19.1897 45.0561C19.3696 45.1461 19.4833 45.33 19.4833 45.5313V61.6813C19.4833 61.8825 19.3696 62.0664 19.1897 62.1564C19.0097 62.2464 18.7943 62.227 18.6333 62.1063L13.3917 58.175H10.5938C9.71355 58.175 9 57.4615 9 56.5813V50.6313C9 49.751 9.71355 49.0375 10.5938 49.0375H13.3917L18.6333 45.1063C18.7943 44.9855 19.0097 44.9661 19.1897 45.0561ZM18.4208 46.5938L13.8875 49.9938C13.7955 50.0627 13.6837 50.1 13.5688 50.1H10.5938C10.3003 50.1 10.0625 50.3379 10.0625 50.6313V56.5813C10.0625 56.8747 10.3003 57.1125 10.5938 57.1125H13.5688C13.6837 57.1125 13.7955 57.1498 13.8875 57.2188L18.4208 60.6188V46.5938ZM28.7485 50.5392C28.956 50.7466 28.956 51.083 28.7485 51.2905L26.4325 53.6065L28.7485 55.9225C28.956 56.13 28.956 56.4663 28.7485 56.6738C28.5411 56.8813 28.2047 56.8813 27.9972 56.6738L25.6812 54.3578L23.3652 56.6738C23.1577 56.8813 22.8214 56.8813 22.6139 56.6738C22.4064 56.4663 22.4064 56.13 22.6139 55.9225L24.9299 53.6065L22.6139 51.2905C22.4064 51.083 22.4064 50.7466 22.6139 50.5392C22.8214 50.3317 23.1577 50.3317 23.3652 50.5392L25.6812 52.8552L27.9972 50.5392C28.2047 50.3317 28.5411 50.3317 28.7485 50.5392Z" fill="black"/>
<path d="M19.1897 45.0561L19.0779 45.2797L19.0779 45.2797L19.1897 45.0561ZM19.1897 62.1564L19.3015 62.38L19.3015 62.38L19.1897 62.1564ZM18.6333 62.1063L18.4833 62.3063L18.4833 62.3063L18.6333 62.1063ZM13.3917 58.175L13.5417 57.975L13.475 57.925H13.3917V58.175ZM13.3917 49.0375V49.2875H13.475L13.5417 49.2375L13.3917 49.0375ZM18.6333 45.1063L18.4833 44.9063L18.4833 44.9063L18.6333 45.1063ZM13.8875 49.9938L13.7375 49.7938L13.7375 49.7938L13.8875 49.9938ZM18.4208 46.5938H18.6708V46.0938L18.2708 46.3938L18.4208 46.5938ZM13.8875 57.2188L14.0375 57.0188L14.0375 57.0188L13.8875 57.2188ZM18.4208 60.6188L18.2708 60.8188L18.6708 61.1188V60.6188H18.4208ZM28.7485 51.2905L28.9253 51.4673L28.9253 51.4673L28.7485 51.2905ZM26.4325 53.6065L26.2557 53.4297L26.079 53.6065L26.2557 53.7833L26.4325 53.6065ZM27.9972 56.6738L28.174 56.497L28.174 56.497L27.9972 56.6738ZM25.6812 54.3578L25.858 54.181L25.6812 54.0042L25.5044 54.181L25.6812 54.3578ZM23.3652 56.6738L23.542 56.8506L23.542 56.8506L23.3652 56.6738ZM22.6139 55.9225L22.7907 56.0993L22.7907 56.0993L22.6139 55.9225ZM24.9299 53.6065L25.1067 53.7833L25.2835 53.6065L25.1067 53.4297L24.9299 53.6065ZM23.3652 50.5392L23.542 50.3624L23.542 50.3624L23.3652 50.5392ZM25.6812 52.8552L25.5044 53.032L25.6812 53.2087L25.858 53.032L25.6812 52.8552ZM27.9972 50.5392L28.174 50.716L28.174 50.716L27.9972 50.5392ZM19.7333 45.5313C19.7333 45.2353 19.5661 44.9648 19.3015 44.8325L19.0779 45.2797C19.1731 45.3273 19.2333 45.4247 19.2333 45.5313H19.7333ZM19.7333 61.6813V45.5313H19.2333V61.6813H19.7333ZM19.3015 62.38C19.5661 62.2477 19.7333 61.9772 19.7333 61.6813H19.2333C19.2333 61.7878 19.1731 61.8852 19.0779 61.9328L19.3015 62.38ZM18.4833 62.3063C18.7201 62.4838 19.0368 62.5124 19.3015 62.38L19.0779 61.9328C18.9826 61.9805 18.8686 61.9702 18.7833 61.9063L18.4833 62.3063ZM13.2417 58.375L18.4833 62.3063L18.7833 61.9063L13.5417 57.975L13.2417 58.375ZM10.5938 58.425H13.3917V57.925H10.5938V58.425ZM8.75 56.5813C8.75 57.5995 9.57548 58.425 10.5938 58.425V57.925C9.85162 57.925 9.25 57.3234 9.25 56.5813H8.75ZM8.75 50.6313V56.5813H9.25V50.6313H8.75ZM10.5938 48.7875C9.57547 48.7875 8.75 49.613 8.75 50.6313H9.25C9.25 49.8891 9.85162 49.2875 10.5938 49.2875V48.7875ZM13.3917 48.7875H10.5938V49.2875H13.3917V48.7875ZM18.4833 44.9063L13.2417 48.8375L13.5417 49.2375L18.7833 45.3063L18.4833 44.9063ZM19.3015 44.8325C19.0368 44.7001 18.7201 44.7287 18.4833 44.9063L18.7833 45.3063C18.8686 45.2423 18.9826 45.2321 19.0779 45.2797L19.3015 44.8325ZM14.0375 50.1938L18.5708 46.7938L18.2708 46.3938L13.7375 49.7938L14.0375 50.1938ZM13.5688 50.35C13.7378 50.35 13.9023 50.2952 14.0375 50.1938L13.7375 49.7938C13.6888 49.8303 13.6296 49.85 13.5688 49.85V50.35ZM10.5938 50.35H13.5688V49.85H10.5938V50.35ZM10.3125 50.6313C10.3125 50.4759 10.4384 50.35 10.5938 50.35V49.85C10.1623 49.85 9.8125 50.1998 9.8125 50.6313H10.3125ZM10.3125 56.5813V50.6313H9.8125V56.5813H10.3125ZM10.5938 56.8625C10.4384 56.8625 10.3125 56.7366 10.3125 56.5813H9.8125C9.8125 57.0127 10.1623 57.3625 10.5938 57.3625V56.8625ZM13.5688 56.8625H10.5938V57.3625H13.5688V56.8625ZM14.0375 57.0188C13.9023 56.9173 13.7378 56.8625 13.5688 56.8625V57.3625C13.6296 57.3625 13.6888 57.3822 13.7375 57.4188L14.0375 57.0188ZM18.5708 60.4188L14.0375 57.0188L13.7375 57.4188L18.2708 60.8188L18.5708 60.4188ZM18.1708 46.5938V60.6188H18.6708V46.5938H18.1708ZM28.9253 51.4673C29.2304 51.1622 29.2304 50.6675 28.9253 50.3624L28.5717 50.716C28.6816 50.8258 28.6816 51.0039 28.5717 51.1137L28.9253 51.4673ZM26.6093 53.7833L28.9253 51.4673L28.5717 51.1137L26.2557 53.4297L26.6093 53.7833ZM26.2557 53.7833L28.5717 56.0993L28.9253 55.7457L26.6093 53.4297L26.2557 53.7833ZM28.5717 56.0993C28.6816 56.2091 28.6816 56.3872 28.5717 56.497L28.9253 56.8506C29.2304 56.5455 29.2304 56.0508 28.9253 55.7457L28.5717 56.0993ZM28.5717 56.497C28.4619 56.6069 28.2838 56.6069 28.174 56.497L27.8204 56.8506C28.1255 57.1557 28.6202 57.1557 28.9253 56.8506L28.5717 56.497ZM28.174 56.497L25.858 54.181L25.5044 54.5346L27.8204 56.8506L28.174 56.497ZM23.542 56.8506L25.858 54.5346L25.5044 54.181L23.1884 56.497L23.542 56.8506ZM22.4371 56.8506C22.7422 57.1557 23.2369 57.1557 23.542 56.8506L23.1884 56.497C23.0786 56.6069 22.9005 56.6069 22.7907 56.497L22.4371 56.8506ZM22.4371 55.7457C22.132 56.0508 22.132 56.5455 22.4371 56.8506L22.7907 56.497C22.6808 56.3872 22.6808 56.2091 22.7907 56.0993L22.4371 55.7457ZM24.7531 53.4297L22.4371 55.7457L22.7907 56.0993L25.1067 53.7833L24.7531 53.4297ZM25.1067 53.4297L22.7907 51.1137L22.4371 51.4673L24.7531 53.7833L25.1067 53.4297ZM22.7907 51.1137C22.6808 51.0039 22.6808 50.8258 22.7907 50.716L22.4371 50.3624C22.132 50.6675 22.132 51.1622 22.4371 51.4673L22.7907 51.1137ZM22.7907 50.716C22.9005 50.6061 23.0786 50.6061 23.1884 50.716L23.542 50.3624C23.2369 50.0573 22.7422 50.0573 22.4371 50.3624L22.7907 50.716ZM23.1884 50.716L25.5044 53.032L25.858 52.6784L23.542 50.3624L23.1884 50.716ZM27.8204 50.3624L25.5044 52.6784L25.858 53.032L28.174 50.716L27.8204 50.3624ZM28.9253 50.3624C28.6202 50.0573 28.1255 50.0573 27.8204 50.3624L28.174 50.716C28.2838 50.6061 28.4619 50.6061 28.5717 50.716L28.9253 50.3624Z" fill="black"/>
</svg>
