<svg width="34" height="34" viewBox="0 0 34 34" fill="none" xmlns="http://www.w3.org/2000/svg">
<path fill-rule="evenodd" clip-rule="evenodd" d="M31.3846 33.9999H20.9214C19.4797 33.9999 18.3077 32.8279 18.3077 31.3845V2.61532C18.3077 1.17196 19.4797 -6.10352e-05 20.9214 -6.10352e-05H31.3846C32.828 -6.10352e-05 34 1.17196 34 2.61532V31.3845C34 32.8279 32.828 33.9999 31.3846 33.9999ZM31.3846 3.92301C31.3846 3.2005 30.7994 2.61532 30.0753 2.61532H22.2308C21.5083 2.61532 20.9215 3.2005 20.9215 3.92301V30.0768C20.9215 30.7993 21.5067 31.3845 22.2308 31.3845H30.0753C30.7994 31.3845 31.3846 30.7993 31.3846 30.0768V3.92301ZM13.0769 33.9999H2.61375C1.17203 33.9999 0 32.8279 0 31.3845V2.61532C0 1.17196 1.17203 -6.10352e-05 2.61375 -6.10352e-05H13.0769C14.5203 -6.10352e-05 15.6923 1.17196 15.6923 2.61532V31.3845C15.6923 32.8279 14.5203 33.9999 13.0769 33.9999ZM13.0769 3.92301C13.0769 3.2005 12.4918 2.61532 11.7676 2.61532H3.92316C3.20064 2.61532 2.61383 3.2005 2.61383 3.92301V30.0768C2.61383 30.7993 3.19901 31.3845 3.92316 31.3845H11.7676C12.4918 31.3845 13.0769 30.7993 13.0769 30.0768V3.92301Z" fill="white"/>
</svg>
