<svg width="36" height="35" viewBox="0 0 36 35" fill="none" xmlns="http://www.w3.org/2000/svg">
<path d="M8.61914 3.5C7.16939 3.5 5.99414 4.67525 5.99414 6.125V27.875C5.99414 29.3247 7.16939 30.5 8.61914 30.5H13.8691C15.3189 30.5 16.4941 29.3247 16.4941 27.875V6.125C16.4941 4.67525 15.3189 3.5 13.8691 3.5H8.61914ZM8.24414 6.125C8.24414 5.91789 8.41203 5.75 8.61914 5.75H13.8691C14.0762 5.75 14.2441 5.91789 14.2441 6.125V27.875C14.2441 28.0821 14.0762 28.25 13.8691 28.25H8.61914C8.41203 28.25 8.24414 28.0821 8.24414 27.875V6.125ZM22.1191 3.5C20.6694 3.5 19.4941 4.67525 19.4941 6.125V27.875C19.4941 29.3247 20.6694 30.5 22.1191 30.5H27.3691C28.8189 30.5 29.9941 29.3247 29.9941 27.875V6.125C29.9941 4.67525 28.8189 3.5 27.3691 3.5H22.1191ZM21.7441 6.125C21.7441 5.91789 21.912 5.75 22.1191 5.75H27.3691C27.5762 5.75 27.7441 5.91789 27.7441 6.125V27.875C27.7441 28.0821 27.5762 28.25 27.3691 28.25H22.1191C21.912 28.25 21.7441 28.0821 21.7441 27.875V6.125Z" fill="white"/>
</svg>
