<?xml version="1.0" encoding="UTF-8"?>
<svg width="100pt" height="100pt" version="1.1" viewBox="0 0 100 100" xmlns="http://www.w3.org/2000/svg">
 <g>
  <path d="m15.594 0h18.883c5.0781 0 9.2266 4.1484 9.2266 9.2266v81.473c0 5.1484-4.1484 9.3008-9.2266 9.3008h-18.883c-5.0781 0-9.2266-4.1484-9.2266-9.3008v-81.473c0-5.0781 4.1484-9.2266 9.2266-9.2266zm18.883 4.4336h-18.883c-2.6484 0-4.793 2.1445-4.793 4.793v81.473c0 2.7188 2.1445 4.8633 4.793 4.8633h18.883c2.6484 0 4.793-2.1445 4.793-4.8633v-81.473c0-2.6484-2.1445-4.793-4.793-4.793z"/>
  <path d="m65.594 0h18.812c5.0781 0 9.2266 4.1484 9.2266 9.2266v81.473c0 5.1484-4.1484 9.3008-9.2266 9.3008h-18.812c-5.0781 0-9.3008-4.1484-9.3008-9.3008v-81.473c0-5.0781 4.2188-9.2266 9.3008-9.2266zm18.812 4.4336h-18.812c-2.6484 0-4.8633 2.1445-4.8633 4.793v81.473c0 2.7188 2.2188 4.8633 4.8633 4.8633h18.812c2.6484 0 4.8633-2.1445 4.8633-4.8633v-81.473c0-2.6484-2.2188-4.793-4.8633-4.793z"/>
 </g>
</svg>
