<svg width="66" height="77" viewBox="0 0 66 77" fill="none" xmlns="http://www.w3.org/2000/svg">
<path d="M58.9619 19.2231C58.9619 19.6321 58.9618 20.0411 58.5528 20.4501C55.2809 36.8099 44.6471 42.1268 30.7414 42.1268H23.7884C22.1524 42.1268 20.5165 43.3538 20.5165 44.9897L16.8356 67.8933L16.0176 74.4372C16.0176 75.6642 16.8355 76.4822 17.6535 76.4822H30.3323C31.9683 76.4822 33.1953 75.2552 33.1953 74.0282V73.2103L35.6493 58.4865V57.6685C36.0583 56.0325 37.2852 55.2146 38.5122 55.2146H40.5572C52.827 55.2146 62.2338 50.3066 64.6877 35.9919C65.9147 29.857 65.0968 24.9491 62.2338 21.6771C61.4158 20.8591 60.1888 20.0411 58.9619 19.2231Z" fill="#2199D6"/>
<path d="M55.6875 17.9946C55.2785 17.9946 54.8696 17.5856 54.0516 17.5856C53.6426 17.5856 52.8246 17.1766 52.4156 17.1766C50.3706 16.7676 48.3256 16.7676 46.2807 16.7676H27.467C27.058 16.7676 26.649 16.7676 26.24 17.1766C25.4221 17.5856 24.6041 18.4035 24.6041 19.2215L20.5142 44.5791V45.3971C20.9232 43.7611 22.1501 42.5342 23.7861 42.5342H30.739C44.6448 42.5342 55.2785 36.8082 58.5505 20.8575C58.5505 20.4485 58.5505 20.0395 58.9595 19.6305C58.1415 19.2215 57.3235 18.8125 56.5055 18.4036C56.0965 17.9946 55.6875 17.9946 55.6875 17.9946Z" fill="#252C5E"/>
<path d="M24.6045 19.2227C24.6045 18.4047 25.4225 17.5867 26.2405 17.1777C26.6495 17.1777 27.0585 16.7687 27.4675 16.7687H46.2811C48.3261 16.7687 50.78 16.7687 52.416 17.1777C52.825 17.1777 53.643 17.1777 54.052 17.5867C54.461 17.5867 54.87 17.9957 55.688 17.9957C56.097 17.9957 56.0969 17.9957 56.5059 18.4047C57.3239 18.8137 58.1419 19.2227 58.9599 19.6317C59.7779 13.4968 58.9599 9.40683 55.688 5.72589C52.007 1.63596 45.4631 0 37.2833 0H13.1527C11.5167 0 9.88075 1.22697 9.88075 2.86294L0.0649414 65.8479C0.0649414 67.0749 0.882928 68.3018 2.10991 68.3018H16.8336L20.5146 44.5803L24.6045 19.2227Z" fill="#263577"/>
</svg>
