<svg width="34" height="38" viewBox="0 0 34 38" fill="none" xmlns="http://www.w3.org/2000/svg">
<path d="M5.40098 0.00101302C4.44733 0.0213039 3.52499 0.296151 2.73 0.768372C1.14178 1.71281 0.0460888 3.48733 0 5.57936V5.60887V32.142V32.1715C0.0461152 34.2633 1.14367 36.0471 2.73 36.9972C4.31634 37.9473 6.41923 38.0597 8.26396 37.0562C8.27318 37.0507 8.28425 37.047 8.29347 37.0414L31.1962 23.7158C32.8526 22.7511 34 20.9489 34 18.8756C34 16.8022 32.8526 15 31.1962 14.0353L8.29347 0.724337C8.28425 0.718803 8.27318 0.715114 8.26396 0.70958C7.34351 0.207846 6.35477 -0.0190565 5.40112 0.001249L5.40098 0.00101302ZM5.46001 2.81961C5.91932 2.80854 6.40261 2.93028 6.90618 3.20328V3.18853L29.7796 16.4844C30.6171 16.9732 31.1668 17.8273 31.1668 18.875C31.1668 19.9227 30.6171 20.7768 29.7796 21.2656L6.90618 34.5766C6.90065 34.5821 6.89696 34.5766 6.89143 34.5766L6.87667 34.5913C5.88425 35.1171 4.95091 35.0174 4.19091 34.5618C3.42908 34.1062 2.86832 33.2872 2.83328 32.1417V5.60854C2.86833 4.46303 3.43092 3.65511 4.19091 3.20314C4.57459 2.97441 5.00068 2.83053 5.46001 2.81946V2.81961Z" fill="white"/>
</svg>
