<svg width="36" height="36" viewBox="0 0 36 36" fill="none" xmlns="http://www.w3.org/2000/svg">
<g clip-path="url(#clip0_185_2071)">
<path fill-rule="evenodd" clip-rule="evenodd" d="M1.04789 13.6933C0.860569 13.7654 0.74109 13.95 0.752108 14.1504C0.763126 14.3508 0.902126 14.5212 1.09621 14.5723L16.8475 18.7174L20.9926 34.4687C21.0437 34.6628 21.2141 34.8018 21.4145 34.8128C21.6149 34.8238 21.7995 34.7043 21.8716 34.517L34.5128 1.64982C34.5784 1.47922 34.5374 1.28599 34.4081 1.15675C34.2789 1.0275 34.0857 0.986493 33.9151 1.05211L1.04789 13.6933ZM17.1903 17.8511L2.71722 14.0424L33.2758 2.28904L21.5225 32.8477L17.7137 18.3742L25.0724 11.0155C25.2169 10.871 25.2169 10.6368 25.0724 10.4923C24.9279 10.3478 24.6937 10.3478 24.5492 10.4923L17.1903 17.8511Z" fill="white"/>
<path d="M0.752108 14.1504L1.39213 14.1152L1.39213 14.1152L0.752108 14.1504ZM1.04789 13.6933L0.817787 13.0951L0.817787 13.0951L1.04789 13.6933ZM1.09621 14.5723L0.933087 15.1922L0.933087 15.1922L1.09621 14.5723ZM16.8475 18.7174L17.4674 18.5542C17.4086 18.3308 17.2341 18.1563 17.0106 18.0975L16.8475 18.7174ZM20.9926 34.4687L20.3727 34.6318L20.3727 34.6318L20.9926 34.4687ZM21.4145 34.8128L21.3793 35.4528L21.3793 35.4528L21.4145 34.8128ZM21.8716 34.517L22.4698 34.7471L22.4698 34.7471L21.8716 34.517ZM34.5128 1.64982L33.9145 1.41971L33.9145 1.41972L34.5128 1.64982ZM33.9151 1.05211L33.685 0.453841L33.685 0.453841L33.9151 1.05211ZM2.71722 14.0424L2.48712 13.4441C2.22751 13.5439 2.06192 13.7998 2.07719 14.0775C2.09246 14.3553 2.2851 14.5915 2.55409 14.6622L2.71722 14.0424ZM17.1903 17.8511L17.0272 18.471C17.2477 18.529 17.4824 18.4655 17.6436 18.3043L17.1903 17.8511ZM33.2758 2.28904L33.8741 2.51914C33.965 2.28271 33.9082 2.01491 33.7291 1.83579C33.55 1.65667 33.2822 1.59984 33.0457 1.69077L33.2758 2.28904ZM21.5225 32.8477L20.9026 33.0108C20.9734 33.2798 21.2096 33.4724 21.4873 33.4877C21.7651 33.503 22.0209 33.3374 22.1208 33.0778L21.5225 32.8477ZM17.7137 18.3742L17.2605 17.921C17.0993 18.0822 17.0358 18.3169 17.0938 18.5374L17.7137 18.3742ZM25.0724 11.0155L24.6192 10.5623L25.0724 11.0155ZM1.39213 14.1152C1.39638 14.1925 1.35028 14.2638 1.27799 14.2916L0.817787 13.0951C0.370861 13.267 0.0857964 13.7075 0.112084 14.1856L1.39213 14.1152ZM1.25934 13.9524C1.33424 13.9721 1.38788 14.0379 1.39213 14.1152L0.112084 14.1856C0.138371 14.6637 0.470011 15.0703 0.933087 15.1922L1.25934 13.9524ZM17.0106 18.0975L1.25934 13.9524L0.933087 15.1922L16.6844 19.3373L17.0106 18.0975ZM21.6125 34.3055L17.4674 18.5542L16.2276 18.8805L20.3727 34.6318L21.6125 34.3055ZM21.4497 34.1728C21.527 34.177 21.5928 34.2306 21.6125 34.3055L20.3727 34.6318C20.4946 35.0949 20.9012 35.4265 21.3793 35.4528L21.4497 34.1728ZM21.2733 34.2869C21.3011 34.2146 21.3723 34.1685 21.4497 34.1728L21.3793 35.4528C21.8574 35.4791 22.2979 35.194 22.4698 34.7471L21.2733 34.2869ZM33.9145 1.41972L21.2733 34.2869L22.4698 34.7471L35.111 1.87992L33.9145 1.41972ZM33.9549 1.61C33.905 1.56012 33.8892 1.48555 33.9145 1.41971L35.111 1.87993C35.2676 1.47289 35.1697 1.01185 34.8614 0.703497L33.9549 1.61ZM34.1452 1.65037C34.0793 1.67569 34.0048 1.65987 33.9549 1.61L34.8614 0.703497C34.553 0.395137 34.092 0.297292 33.685 0.453841L34.1452 1.65037ZM1.27799 14.2916L34.1452 1.65037L33.685 0.453841L0.817787 13.0951L1.27799 14.2916ZM2.55409 14.6622L17.0272 18.471L17.3535 17.2312L2.88035 13.4225L2.55409 14.6622ZM33.0457 1.69077L2.48712 13.4441L2.94732 14.6406L33.5059 2.8873L33.0457 1.69077ZM22.1208 33.0778L33.8741 2.51914L32.6776 2.05894L20.9243 32.6176L22.1208 33.0778ZM17.0938 18.5374L20.9026 33.0108L22.1424 32.6845L18.3336 18.2111L17.0938 18.5374ZM24.6192 10.5623L17.2605 17.921L18.167 18.8275L25.5257 11.4688L24.6192 10.5623ZM24.6192 10.9455C24.5134 10.8397 24.5134 10.6681 24.6192 10.5623L25.5257 11.4688C25.9205 11.074 25.9205 10.4338 25.5257 10.039L24.6192 10.9455ZM25.0024 10.9455C24.8966 11.0513 24.725 11.0513 24.6192 10.9455L25.5257 10.039C25.1309 9.6442 24.4907 9.6442 24.0959 10.039L25.0024 10.9455ZM17.6436 18.3043L25.0024 10.9455L24.0959 10.039L16.7371 17.3978L17.6436 18.3043Z" fill="white"/>
</g>
<defs>
<clipPath id="clip0_185_2071">
<rect width="36" height="36" fill="white"/>
</clipPath>
</defs>
</svg>
