<svg width="96" height="97" viewBox="0 0 96 97" fill="none" xmlns="http://www.w3.org/2000/svg">
<circle cx="48" cy="48.7686" r="48" fill="url(#paint0_linear_620_3595)"/>
<path fill-rule="evenodd" clip-rule="evenodd" d="M74.0692 45.569C72.8275 45.569 71.64 45.7913 70.5444 46.1936C69.2699 38.5817 62.4413 32.769 54.2071 32.769C54.2071 32.769 46.7589 32.769 46.7589 36.769V62.3668C46.7589 63.6909 47.8709 64.769 49.2427 64.769H74.0692C79.5539 64.769 84.0002 60.4709 84.0002 55.169C84.0002 49.8672 79.5539 45.569 74.0692 45.569ZM41.7932 55.9692L42.207 63.5692C42.207 64.2316 42.7631 64.7692 43.4484 64.7692C44.1336 64.7692 44.6897 64.2316 44.6897 63.5692L45.1035 55.9692L44.6897 37.1692C44.6897 36.5068 44.1336 35.9692 43.4484 35.9692C42.7631 35.9692 42.207 36.5068 42.207 37.1692L41.7932 55.9692ZM36.8275 55.9689L37.2413 63.5689C37.2413 64.2313 37.7974 64.7689 38.4827 64.7689C39.1679 64.7689 39.7241 64.2313 39.7241 63.5689L40.1378 55.9689L39.7241 41.9689C39.7241 41.3065 39.1679 40.7689 38.4827 40.7689C37.7974 40.7689 37.2413 41.3065 37.2413 41.9689L36.8275 55.9689ZM32.2756 63.5693L31.8618 55.9693L32.2756 40.3693C32.2756 39.7069 32.8317 39.1693 33.517 39.1693C34.2022 39.1693 34.7584 39.7069 34.7584 40.3693L35.1722 55.9693L34.7584 63.5693C34.7584 64.2317 34.2022 64.7693 33.517 64.7693C32.8317 64.7693 32.2756 64.2317 32.2756 63.5693ZM26.8961 55.9694L27.3099 63.5694C27.3099 64.2318 27.8661 64.7694 28.5513 64.7694C29.2366 64.7694 29.7927 64.2318 29.7927 63.5694L30.2065 55.9694L29.7927 43.5694C29.7927 42.907 29.2366 42.3694 28.5513 42.3694C27.8661 42.3694 27.3099 42.907 27.3099 43.5694L26.8961 55.9694ZM22.3452 63.5688L21.9314 55.9688L22.3452 49.9688C22.3452 49.3064 22.9013 48.7688 23.5865 48.7688C24.2718 48.7688 24.8279 49.3064 24.8279 49.9688L25.2417 55.9688L24.8279 63.5688C24.8279 64.2312 24.2718 64.7688 23.5865 64.7688C22.9013 64.7688 22.3452 64.2312 22.3452 63.5688ZM16.9657 55.9692L17.3795 63.5692C17.3795 64.2316 17.9356 64.7692 18.6209 64.7692C19.3061 64.7692 19.8622 64.2316 19.8622 63.5692L20.276 55.9692L19.8622 48.3692C19.8622 47.7068 19.3061 47.1692 18.6209 47.1692C17.9356 47.1692 17.3795 47.7068 17.3795 48.3692L16.9657 55.9692ZM12.4138 60.3693L12 55.9693L12.4138 51.5693C12.4138 50.9069 12.9699 50.3693 13.6552 50.3693C14.3404 50.3693 14.8966 50.9069 14.8966 51.5693L15.3103 55.9693L14.8966 60.3693C14.8966 61.0317 14.3404 61.5693 13.6552 61.5693C12.9699 61.5693 12.4138 61.0317 12.4138 60.3693Z" fill="white"/>
<defs>
<linearGradient id="paint0_linear_620_3595" x1="0" y1="0.768555" x2="0" y2="96.7686" gradientUnits="userSpaceOnUse">
<stop stop-color="#FF7700"/>
<stop offset="1" stop-color="#FF3300"/>
</linearGradient>
</defs>
</svg>
