<svg width="102" height="102" viewBox="0 0 102 102" fill="none" xmlns="http://www.w3.org/2000/svg">
<circle cx="51" cy="51" r="51" fill="#1ED760"/>
<path d="M81.1693 45.212C83.4295 46.5578 86.3605 45.811 87.7047 43.5443C89.0489 41.2808 88.3055 38.3531 86.0378 37.0072C67.1123 25.7733 37.1648 24.7162 19.1502 30.1855C16.6276 30.9521 15.2067 33.6149 15.9708 36.1367C16.7341 38.6568 19.3986 40.0794 21.9187 39.3144C37.6128 34.5515 64.7292 35.4493 81.1693 45.212Z" fill="white"/>
<path d="M80.6305 59.6722C81.7808 57.8048 81.1916 55.3574 79.3218 54.2054C63.5814 44.5327 40.5539 41.8088 22.031 47.4307C19.9309 48.0702 18.7459 50.2867 19.3789 52.3892C20.0184 54.4876 22.2381 55.6726 24.3415 55.0372C40.5564 50.1167 61.4557 52.5567 75.1612 60.9818C77.0311 62.1304 79.4769 61.5437 80.6305 59.6722Z" fill="white"/>
<path d="M74.3897 73.5599C75.3056 72.0605 74.8336 70.1024 73.3359 69.1872C59.892 60.9734 43.2283 59.0623 23.8002 63.5026C22.0855 63.8937 21.0177 65.5986 21.4096 67.31C21.8008 69.0189 23.5048 70.0916 25.2154 69.6997C42.9692 65.6439 58.042 67.2976 70.0187 74.6169C71.5164 75.5328 73.4737 75.0625 74.3897 73.5599Z" fill="white"/>
</svg>
