<svg width="64" height="64" viewBox="0 0 64 64" fill="none" xmlns="http://www.w3.org/2000/svg">
<path d="M62 48H2C0.896 48 0 47.104 0 46V10C0 8.896 0.896 8 2 8H42C43.104 8 44 8.896 44 10C44 11.104 43.104 12 42 12H4V44H60V12H58C56.896 12 56 11.104 56 10C56 8.896 56.896 8 58 8H62C63.104 8 64 8.896 64 10V46C64 47.104 63.104 48 62 48Z" fill="white"/>
<path d="M46 56H18C16.896 56 16 55.104 16 54C16 52.896 16.896 52 18 52H46C47.104 52 48 52.896 48 54C48 55.104 47.104 56 46 56Z" fill="white"/>
<path d="M54 40H10C8.896 40 8 39.104 8 38V18C8 16.896 8.896 16 10 16H54C55.104 16 56 16.896 56 18V38C56 39.104 55.104 40 54 40ZM12 36H52V20H12V36Z" fill="white"/>
<path d="M50 8C51.105 8 52 8.895 52 10C52 11.105 51.105 12 50 12C48.895 12 48 11.105 48 10C48 8.895 48.895 8 50 8Z" fill="white"/>
</svg>
