<svg width="30" height="33" viewBox="0 0 30 33" fill="none" xmlns="http://www.w3.org/2000/svg">
<path d="M18.384 29.616L15 33L11.616 29.616C4.965 28.08 0 22.116 0 15C0 6.72 6.72 0 15 0C23.28 0 30 6.72 30 15C30 22.116 25.035 28.08 18.384 29.616ZM6.0345 20.124C8.2365 23.409 11.5425 25.5 15.24 25.5C18.936 25.5 22.2435 23.4105 24.444 20.124C21.9476 17.7909 18.6569 16.4952 15.24 16.5C11.8226 16.4948 8.53127 17.7905 6.0345 20.124ZM15 13.5C16.1935 13.5 17.3381 13.0259 18.182 12.182C19.0259 11.3381 19.5 10.1935 19.5 9C19.5 7.80653 19.0259 6.66193 18.182 5.81802C17.3381 4.97411 16.1935 4.5 15 4.5C13.8065 4.5 12.6619 4.97411 11.818 5.81802C10.9741 6.66193 10.5 7.80653 10.5 9C10.5 10.1935 10.9741 11.3381 11.818 12.182C12.6619 13.0259 13.8065 13.5 15 13.5Z" fill="white"/>
</svg>
