<svg width="29" height="28" viewBox="0 0 29 28" fill="none" xmlns="http://www.w3.org/2000/svg">
<path fill-rule="evenodd" clip-rule="evenodd" d="M14.8344 2.3335C8.38095 2.3335 3.14337 7.56016 3.14337 14.0002C3.14337 20.4402 8.38095 25.6668 14.8344 25.6668C21.2878 25.6668 26.5254 20.4402 26.5254 14.0002C26.5254 7.56016 21.2878 2.3335 14.8344 2.3335ZM22.2699 19.6352C20.5981 17.6052 16.5413 16.9168 14.8344 16.9168C13.1275 16.9168 9.07072 17.6052 7.3989 19.6352C6.20642 18.0718 5.48158 16.1235 5.48158 14.0002C5.48158 8.85516 9.67865 4.66683 14.8344 4.66683C19.9901 4.66683 24.1872 8.85516 24.1872 14.0002C24.1872 16.1235 23.4624 18.0718 22.2699 19.6352ZM10.7425 11.0835C10.7425 8.82016 12.5663 7.00016 14.8344 7.00016C17.1024 7.00016 18.9262 8.82016 18.9262 11.0835C18.9262 13.3468 17.1024 15.1668 14.8344 15.1668C12.5663 15.1668 10.7425 13.3468 10.7425 11.0835Z" fill="#3F484A"/>
</svg>
