<svg width="34" height="42" viewBox="0 0 34 42" fill="none" xmlns="http://www.w3.org/2000/svg">
<path d="M22.2216 22.6132C22.2216 24.0921 22.2216 26.6078 22.2216 28.0815C20.6761 28.0962 16.6682 28.1512 14.452 28.1512C12.379 28.1512 8.08313 28.242 6.68328 28.2292C6.68115 26.9927 6.68247 24.1942 6.68247 22.6132C6.68247 19.5547 10.161 17.0753 14.452 17.0753C18.743 17.0753 22.2216 19.5547 22.2216 22.6132Z" fill="white"/>
<path d="M19.6308 11.538C19.6308 14.5966 17.3117 17.076 14.4511 17.076C11.5904 17.076 9.27136 14.5966 9.27136 11.538C9.27136 8.4795 11.5904 6.00006 14.4511 6.00006C17.3117 6.00006 19.6308 8.4795 19.6308 11.538Z" fill="white"/>
<g clip-path="url(#clip0_441_164)">
<path fill-rule="evenodd" clip-rule="evenodd" d="M25.8471 13.6045C26.0617 13.6045 26.2676 13.6827 26.4193 13.8219C26.5711 13.9611 26.6563 14.15 26.6563 14.3468V16.5739H29.0838C29.2984 16.5739 29.5042 16.6521 29.6559 16.7913C29.8077 16.9306 29.8929 17.1194 29.8929 17.3163C29.8929 17.5131 29.8077 17.702 29.6559 17.8412C29.5042 17.9804 29.2984 18.0586 29.0838 18.0586H26.6563V20.2857C26.6563 20.4826 26.5711 20.6714 26.4193 20.8106C26.2676 20.9498 26.0617 21.028 25.8471 21.028C25.6325 21.028 25.4267 20.9498 25.275 20.8106C25.1232 20.6714 25.038 20.4826 25.038 20.2857V18.0586H22.6105C22.3959 18.0586 22.1901 17.9804 22.0384 17.8412C21.8866 17.702 21.8014 17.5131 21.8014 17.3163C21.8014 17.1194 21.8866 16.9306 22.0384 16.7913C22.1901 16.6521 22.3959 16.5739 22.6105 16.5739H25.038V14.3468C25.038 14.15 25.1232 13.9611 25.275 13.8219C25.4267 13.6827 25.6325 13.6045 25.8471 13.6045Z" fill="white"/>
</g>
<rect x="0.73" y="0.73" width="32.54" height="40.54" rx="1.73154" stroke="white" stroke-width="1.46"/>
<path fill-rule="evenodd" clip-rule="evenodd" d="M33 33H1V41H33V33ZM16.9615 35C15.8782 35 15 35.8782 15 36.9615C15 38.0449 15.8782 38.9231 16.9615 38.9231C18.0449 38.9231 18.9231 38.0449 18.9231 36.9615C18.9231 35.8782 18.0449 35 16.9615 35Z" fill="white"/>
<defs>
<clipPath id="clip0_441_164">
<rect width="25.8928" height="23.7553" fill="white" transform="translate(4 6.18079)"/>
</clipPath>
</defs>
</svg>
