<svg width="32" height="52" viewBox="0 0 32 52" fill="none" xmlns="http://www.w3.org/2000/svg">
<path d="M20.2736 27.9437C20.2736 29.3356 20.2736 31.7033 20.2736 33.0903C18.7629 33.1041 14.8451 33.1559 12.6787 33.1559C10.6523 33.1559 6.45295 33.2413 5.08455 33.2292C5.08248 32.0655 5.08377 29.4316 5.08377 27.9437C5.08377 25.065 8.48414 22.7314 12.6787 22.7314C16.8733 22.7314 20.2736 25.065 20.2736 27.9437Z" fill="white"/>
<path d="M17.7411 17.5198C17.7411 20.3985 15.4742 22.732 12.6778 22.732C9.88141 22.732 7.6145 20.3985 7.6145 17.5198C7.6145 14.6412 9.88141 12.3076 12.6778 12.3076C15.4742 12.3076 17.7411 14.6412 17.7411 17.5198Z" fill="white"/>
<g clip-path="url(#clip0_185_2088)">
<path fill-rule="evenodd" clip-rule="evenodd" d="M23.8176 19.4644C24.0274 19.4644 24.2286 19.538 24.3769 19.669C24.5253 19.8 24.6086 19.9777 24.6086 20.163V22.2591H26.9815C27.1913 22.2591 27.3924 22.3327 27.5408 22.4637C27.6891 22.5948 27.7725 22.7725 27.7725 22.9578C27.7725 23.1431 27.6891 23.3208 27.5408 23.4518C27.3924 23.5829 27.1913 23.6565 26.9815 23.6565H24.6086V25.7525C24.6086 25.9378 24.5253 26.1156 24.3769 26.2466C24.2286 26.3776 24.0274 26.4512 23.8176 26.4512C23.6078 26.4512 23.4067 26.3776 23.2583 26.2466C23.11 26.1156 23.0267 25.9378 23.0267 25.7525V23.6565H20.6538C20.444 23.6565 20.2428 23.5829 20.0945 23.4518C19.9461 23.3208 19.8628 23.1431 19.8628 22.9578C19.8628 22.7725 19.9461 22.5948 20.0945 22.4637C20.2428 22.3327 20.444 22.2591 20.6538 22.2591H23.0267V20.163C23.0267 19.9777 23.11 19.8 23.2583 19.669C23.4067 19.538 23.6078 19.4644 23.8176 19.4644Z" fill="white"/>
</g>
<rect x="1.23077" y="1.23077" width="29.5385" height="49.2308" rx="1.23077" stroke="white" stroke-width="2.46154"/>
<rect x="1.23071" y="43.0771" width="29.5385" height="7.38462" fill="white"/>
<rect x="14.7693" y="45.5386" width="3.69231" height="3.69231" rx="1.84615" fill="black"/>
<defs>
<clipPath id="clip0_185_2088">
<rect width="25.3109" height="22.358" fill="white" transform="translate(2.46155 12.4775)"/>
</clipPath>
</defs>
</svg>
