<svg width="98" height="99" viewBox="0 0 98 99" fill="none" xmlns="http://www.w3.org/2000/svg">
<path d="M0 49.7686C0 76.8305 21.938 98.7685 49 98.7685C76.0619 98.7685 98 76.8305 98 49.7686C98 22.7066 76.0619 0.768555 49 0.768555C21.938 0.768555 0 22.7066 0 49.7686Z" fill="#FF0000"/>
<path d="M72.275 37.8234C71.6625 35.6797 70.1313 34.1484 67.9875 33.5359C64.3125 32.6172 48.6937 32.6172 48.6937 32.6172C48.6937 32.6172 33.3813 32.6172 29.4 33.5359C27.2563 34.1484 25.725 35.6797 25.1125 37.8234C24.5 41.8047 24.5 49.7672 24.5 49.7672C24.5 49.7672 24.5 57.7297 25.4188 61.7109C26.0313 63.8547 27.5625 65.3859 29.7062 65.9984C33.3812 66.9172 49 66.9172 49 66.9172C49 66.9172 64.3125 66.9172 68.2937 65.9984C70.4375 65.3859 71.9688 63.8547 72.5813 61.7109C73.5 57.7297 73.5 49.7672 73.5 49.7672C73.5 49.7672 73.5 41.8047 72.275 37.8234ZM44.1 57.1172V42.4172L56.9625 49.7672L44.1 57.1172Z" fill="white"/>
</svg>
