<svg width="60" height="60" viewBox="0 0 60 60" fill="none" xmlns="http://www.w3.org/2000/svg">
<path d="M60 30C60 13.4315 46.5685 0 30 0C13.4315 0 0 13.4315 0 30C0 46.5685 13.4315 60 30 60C46.5685 60 60 46.5685 60 30Z" fill="white"/>
<path fill-rule="evenodd" clip-rule="evenodd" d="M44.6813 30.3411C44.6813 29.2775 44.5858 28.2548 44.4086 27.2729H30.2812V33.0752H38.354C38.0063 34.9502 36.9494 36.5389 35.3608 37.6025V41.3662H40.2085C43.0449 38.7548 44.6813 34.9093 44.6813 30.3411Z" fill="#4285F4"/>
<path fill-rule="evenodd" clip-rule="evenodd" d="M30.2806 45.0001C34.3306 45.0001 37.726 43.6569 40.2078 41.366L35.3601 37.6024C34.0169 38.5024 32.2987 39.0342 30.2806 39.0342C26.3737 39.0342 23.0669 36.3956 21.8874 32.8501H16.876V36.7365C19.3442 41.6388 24.4169 45.0001 30.2806 45.0001Z" fill="#34A853"/>
<path fill-rule="evenodd" clip-rule="evenodd" d="M21.8881 32.8501C21.5881 31.9501 21.4176 30.9887 21.4176 30C21.4176 29.0114 21.5881 28.05 21.8881 27.15V23.2637H16.8767C15.8608 25.2887 15.2812 27.5796 15.2812 30C15.2812 32.4205 15.8608 34.7114 16.8767 36.7364L21.8881 32.8501Z" fill="#FBBC05"/>
<path fill-rule="evenodd" clip-rule="evenodd" d="M30.2806 20.9659C32.4828 20.9659 34.4601 21.7227 36.0147 23.2091L40.3169 18.9068C37.7192 16.4864 34.3237 15 30.2806 15C24.4169 15 19.3442 18.3614 16.876 23.2637L21.8874 27.15C23.0669 23.6046 26.3737 20.9659 30.2806 20.9659Z" fill="#EA4335"/>
</svg>
