<svg width="42" height="40" viewBox="0 0 42 40" fill="none" xmlns="http://www.w3.org/2000/svg">
<g clip-path="url(#clip0_435_3058)">
<path d="M30.3314 27.2278V22.6023C31.1407 21.8446 31.7836 20.9434 32.2231 19.9505C32.6626 18.9576 32.8902 17.8924 32.8927 16.8162C32.8952 15.74 32.6726 14.6739 32.2377 13.6792C31.8027 12.6844 31.1641 11.7806 30.3583 11.0196C29.5525 10.2586 28.5956 9.65544 27.5423 9.24468C26.489 8.83392 25.3602 8.62369 24.2207 8.62604C23.0812 8.6284 21.9534 8.8433 20.9021 9.25842C19.8507 9.67353 18.8966 10.2807 18.0943 11.045L13.1984 11.0466L15.649 8.73551C17.921 6.58975 21.0024 5.38428 24.2155 5.38428C27.4285 5.38428 30.51 6.58975 32.782 8.73551C35.054 10.8813 36.3303 13.7915 36.3303 16.8261C36.3303 19.8606 35.054 22.7709 32.782 24.9167L30.3332 27.2278H30.3314ZM22.9885 34.1612C20.7165 36.3069 17.635 37.5124 14.422 37.5124C11.2089 37.5124 8.12746 36.3069 5.85549 34.1612C3.58351 32.0154 2.30713 29.1052 2.30713 26.0706C2.30713 23.036 3.58351 20.1258 5.85549 17.98L10.7514 17.9833L8.30429 20.2944C7.49501 21.0521 6.85215 21.9532 6.41262 22.9462C5.97309 23.9391 5.74554 25.0042 5.74305 26.0805C5.74055 27.1567 5.96316 28.2227 6.39808 29.2175C6.833 30.2122 7.47168 31.116 8.27744 31.877C9.0832 32.638 10.0402 33.2412 11.0934 33.652C12.1467 34.0628 13.2755 34.273 14.415 34.2706C15.5545 34.2683 16.6823 34.0534 17.7337 33.6383C18.785 33.2232 19.7392 32.616 20.5414 31.8517L22.9885 29.5406V34.1612Z" fill="white"/>
</g>
<path d="M12.5979 21.2275C12.3135 21.1327 12.3108 20.9796 12.6034 20.8821L23.0023 17.416C23.2906 17.3201 23.4556 17.4813 23.375 17.7636L20.4036 28.162C20.3218 28.4502 20.1557 28.46 20.0336 28.1865L18.0755 23.78L21.3445 19.4214L16.9859 22.6904L12.5979 21.2275Z" fill="white"/>
<defs>
<clipPath id="clip0_435_3058">
<rect width="41.5345" height="39.2271" fill="white"/>
</clipPath>
</defs>
</svg>
