<svg width="60" height="60" viewBox="0 0 60 60" fill="none" xmlns="http://www.w3.org/2000/svg">
<path d="M0 30C0 46.5685 13.4315 60 30 60C46.5685 60 60 46.5685 60 30C60 13.4315 46.5685 0 30 0C13.4315 0 0 13.4315 0 30Z" fill="#F00073"/>
<path d="M30 17.2495C34.125 17.2495 34.6875 17.2495 36.375 17.2495C37.875 17.2495 38.625 17.6245 39.1875 17.812C39.9375 18.187 40.5 18.3745 41.0625 18.937C41.625 19.4995 42 20.062 42.1875 20.812C42.375 21.3745 42.5625 22.1245 42.75 23.6245C42.75 25.312 42.75 25.687 42.75 29.9995C42.75 34.312 42.75 34.687 42.75 36.3745C42.75 37.8745 42.375 38.6245 42.1875 39.187C41.8125 39.937 41.625 40.4995 41.0625 41.062C40.5 41.6245 39.9375 41.9995 39.1875 42.187C38.625 42.3745 37.875 42.562 36.375 42.7495C34.6875 42.7495 34.3125 42.7495 30 42.7495C25.6875 42.7495 25.3125 42.7495 23.625 42.7495C22.125 42.7495 21.375 42.3745 20.8125 42.187C20.0625 41.812 19.5 41.6245 18.9375 41.062C18.375 40.4995 18 39.937 17.8125 39.187C17.625 38.6245 17.4375 37.8745 17.25 36.3745C17.25 34.687 17.25 34.312 17.25 29.9995C17.25 25.687 17.25 25.312 17.25 23.6245C17.25 22.1245 17.625 21.3745 17.8125 20.812C18.1875 20.062 18.375 19.4995 18.9375 18.937C19.5 18.3745 20.0625 17.9995 20.8125 17.812C21.375 17.6245 22.125 17.437 23.625 17.2495C25.3125 17.2495 25.875 17.2495 30 17.2495ZM30 14.437C25.6875 14.437 25.3125 14.437 23.625 14.437C21.9375 14.437 20.8125 14.812 19.875 15.187C18.9375 15.562 18 16.1245 17.0625 17.062C16.125 17.9995 15.75 18.7495 15.1875 19.8745C14.8125 20.812 14.625 21.937 14.4375 23.6245C14.4375 25.312 14.4375 25.8745 14.4375 29.9995C14.4375 34.312 14.4375 34.687 14.4375 36.3745C14.4375 38.062 14.8125 39.187 15.1875 40.1245C15.5625 41.062 16.125 41.9995 17.0625 42.937C18 43.8745 18.75 44.2495 19.875 44.812C20.8125 45.187 21.9375 45.3745 23.625 45.562C25.3125 45.562 25.875 45.562 30 45.562C34.125 45.562 34.6875 45.562 36.375 45.562C38.0625 45.562 39.1875 45.187 40.125 44.812C41.0625 44.437 42 43.8745 42.9375 42.937C43.875 41.9995 44.25 41.2495 44.8125 40.1245C45.1875 39.187 45.375 38.062 45.5625 36.3745C45.5625 34.687 45.5625 34.1245 45.5625 29.9995C45.5625 25.8745 45.5625 25.312 45.5625 23.6245C45.5625 21.937 45.1875 20.812 44.8125 19.8745C44.4375 18.937 43.875 17.9995 42.9375 17.062C42 16.1245 41.25 15.7495 40.125 15.187C39.1875 14.812 38.0625 14.6245 36.375 14.437C34.6875 14.437 34.3125 14.437 30 14.437Z" fill="white"/>
<path d="M30 21.937C25.5 21.937 21.9375 25.4995 21.9375 29.9995C21.9375 34.4995 25.5 38.062 30 38.062C34.5 38.062 38.0625 34.4995 38.0625 29.9995C38.0625 25.4995 34.5 21.937 30 21.937ZM30 35.2495C27.1875 35.2495 24.75 32.9995 24.75 29.9995C24.75 27.187 27 24.7495 30 24.7495C32.8125 24.7495 35.25 26.9995 35.25 29.9995C35.25 32.812 32.8125 35.2495 30 35.2495Z" fill="white"/>
<path d="M38.25 23.6245C39.2855 23.6245 40.125 22.785 40.125 21.7495C40.125 20.714 39.2855 19.8745 38.25 19.8745C37.2145 19.8745 36.375 20.714 36.375 21.7495C36.375 22.785 37.2145 23.6245 38.25 23.6245Z" fill="white"/>
</svg>
