<svg width="40" height="41" viewBox="0 0 40 41" fill="none" xmlns="http://www.w3.org/2000/svg">
<path fill-rule="evenodd" clip-rule="evenodd" d="M3.18687 20.6433C3.04075 20.6995 2.94756 20.8435 2.95615 20.9998C2.96474 21.1561 3.07317 21.289 3.22457 21.3289L15.6234 24.5917L18.8862 36.9905C18.9261 37.1419 19.059 37.2504 19.2153 37.259C19.3716 37.2676 19.5156 37.1744 19.5718 37.0282L29.5211 11.1603C29.5722 11.0272 29.5403 10.8765 29.4394 10.7757C29.3386 10.6749 29.1879 10.6429 29.0548 10.6941L3.18687 20.6433ZM15.8909 23.916L4.48902 20.9155L28.5562 11.6589L19.2996 35.7261L16.2991 24.3242L22.0924 18.531C22.2051 18.4182 22.2051 18.2355 22.0924 18.1228C21.9796 18.0101 21.7969 18.0101 21.6842 18.1228L15.8909 23.916Z" fill="white"/>
<path d="M2.95615 20.9998L2.4569 21.0272L2.4569 21.0272L2.95615 20.9998ZM3.18687 20.6433L3.00738 20.1766L3.00738 20.1766L3.18687 20.6433ZM3.22457 21.3289L3.09732 21.8124L3.09732 21.8124L3.22457 21.3289ZM15.6234 24.5917L16.1069 24.4645C16.061 24.2902 15.9249 24.1541 15.7506 24.1082L15.6234 24.5917ZM18.8862 36.9905L18.4027 37.1178L18.4027 37.1178L18.8862 36.9905ZM19.2153 37.259L19.1879 37.7582L19.1879 37.7582L19.2153 37.259ZM19.5718 37.0282L20.0385 37.2077L20.0385 37.2077L19.5718 37.0282ZM29.5211 11.1603L29.0544 10.9808L29.5211 11.1603ZM29.0548 10.6941L29.2343 11.1607L29.0548 10.6941ZM4.48902 20.9155L4.30953 20.4488C4.10703 20.5267 3.97786 20.7263 3.98977 20.943C4.00168 21.1596 4.15195 21.3438 4.36177 21.3991L4.48902 20.9155ZM15.8909 23.916L15.7637 24.3996C15.9357 24.4448 16.1187 24.3953 16.2445 24.2696L15.8909 23.916ZM28.5562 11.6589L29.0229 11.8384C29.0938 11.654 29.0495 11.4451 28.9097 11.3054C28.77 11.1656 28.5611 11.1213 28.3767 11.1922L28.5562 11.6589ZM19.2996 35.7261L18.8161 35.8533C18.8713 36.0632 19.0555 36.2134 19.2721 36.2253C19.4888 36.2372 19.6884 36.1081 19.7663 35.9056L19.2996 35.7261ZM16.2991 24.3242L15.9455 23.9707C15.8198 24.0964 15.7703 24.2795 15.8156 24.4515L16.2991 24.3242ZM21.6842 18.1228L22.0377 18.4763L21.6842 18.1228ZM3.4554 20.9723C3.45871 21.0327 3.42275 21.0882 3.36636 21.1099L3.00738 20.1766C2.65876 20.3107 2.4364 20.6543 2.4569 21.0272L3.4554 20.9723ZM3.35181 20.8453C3.41024 20.8607 3.45208 20.912 3.4554 20.9723L2.4569 21.0272C2.47741 21.4002 2.7361 21.7174 3.09732 21.8124L3.35181 20.8453ZM15.7506 24.1082L3.35181 20.8453L3.09732 21.8124L15.4961 25.0753L15.7506 24.1082ZM19.3698 36.8633L16.1069 24.4645L15.1398 24.719L18.4027 37.1178L19.3698 36.8633ZM19.2428 36.7597C19.3031 36.763 19.3544 36.8049 19.3698 36.8633L18.4027 37.1178C18.4977 37.479 18.8149 37.7377 19.1879 37.7582L19.2428 36.7597ZM19.1052 36.8487C19.1269 36.7924 19.1824 36.7564 19.2428 36.7597L19.1879 37.7582C19.5608 37.7787 19.9044 37.5563 20.0385 37.2077L19.1052 36.8487ZM29.0544 10.9808L19.1052 36.8487L20.0385 37.2077L29.9877 11.3398L29.0544 10.9808ZM29.0859 11.1292C29.047 11.0903 29.0346 11.0322 29.0544 10.9808L29.9877 11.3398C30.1098 11.0223 30.0335 10.6627 29.793 10.4221L29.0859 11.1292ZM29.2343 11.1607C29.183 11.1805 29.1248 11.1681 29.0859 11.1292L29.793 10.4221C29.5525 10.1816 29.1928 10.1053 28.8753 10.2274L29.2343 11.1607ZM3.36636 21.1099L29.2343 11.1607L28.8753 10.2274L3.00738 20.1766L3.36636 21.1099ZM4.36177 21.3991L15.7637 24.3996L16.0182 23.4325L4.61627 20.432L4.36177 21.3991ZM28.3767 11.1922L4.30953 20.4488L4.66851 21.3822L28.7357 12.1256L28.3767 11.1922ZM19.7663 35.9056L29.0229 11.8384L28.0895 11.4794L18.8329 35.5466L19.7663 35.9056ZM15.8156 24.4515L18.8161 35.8533L19.7831 35.5988L16.7826 24.197L15.8156 24.4515ZM21.7388 18.1774L15.9455 23.9707L16.6526 24.6778L22.4459 18.8845L21.7388 18.1774ZM21.7388 18.4763C21.6563 18.3938 21.6563 18.2599 21.7388 18.1774L22.4459 18.8845C22.7539 18.5765 22.7539 18.0772 22.4459 17.7692L21.7388 18.4763ZM22.0377 18.4763C21.9552 18.5589 21.8214 18.5589 21.7388 18.4763L22.4459 17.7692C22.1379 17.4612 21.6386 17.4612 21.3306 17.7692L22.0377 18.4763ZM16.2445 24.2696L22.0377 18.4763L21.3306 17.7692L15.5374 23.5625L16.2445 24.2696Z" fill="white"/>
</svg>
