<svg width="60" height="60" viewBox="0 0 60 60" fill="none" xmlns="http://www.w3.org/2000/svg">
<path d="M0 30C0 46.5685 13.4315 60 30 60C46.5685 60 60 46.5685 60 30C60 13.4315 46.5685 0 30 0C13.4315 0 0 13.4315 0 30Z" fill="#001935"/>
<path d="M32.6024 45C28.0826 45 24.7305 42.6836 24.7305 37.1281V28.2392H20.625V23.4181C25.1448 22.2505 27.028 18.371 27.2352 15H31.9244V22.646H37.3858V28.2392H31.9244V35.9793C31.9244 38.2957 33.092 39.1055 34.9564 39.1055H37.6118V45H32.6024Z" fill="white"/>
</svg>
