<svg width="20" height="20" viewBox="0 0 20 20" fill="none" xmlns="http://www.w3.org/2000/svg">
<path fill-rule="evenodd" clip-rule="evenodd" d="M9.19295 10.3936C12.5171 13.7169 13.2712 9.87224 15.3877 11.9873C17.4282 14.0273 18.6019 14.436 16.0157 17.0206C15.6919 17.2808 13.6344 20.4119 6.40374 13.183C-0.827818 5.95331 2.30133 3.89368 2.56164 3.56994C5.15316 0.978184 5.55571 2.1578 7.59618 4.19775C9.7118 6.31373 5.8688 7.07032 9.19295 10.3936Z" stroke="black" stroke-width="1.5" stroke-linecap="round" stroke-linejoin="round"/>
<path d="M10.4348 6.95659C10.8961 6.95659 11.3384 7.13982 11.6646 7.46597C11.9907 7.79212 12.1739 8.23447 12.1739 8.69572H10.4348V6.95659ZM10.4348 4.34789C11.5879 4.34789 12.6938 4.80597 13.5092 5.62134C14.3246 6.43672 14.7826 7.5426 14.7826 8.69572H13.0435C13.0435 8.00385 12.7687 7.34032 12.2794 6.85109C11.7902 6.36187 11.1267 6.08702 10.4348 6.08702V4.34789ZM10.4348 1.7392C12.2798 1.7392 14.0492 2.47211 15.3538 3.77672C16.6584 5.08132 17.3913 6.85073 17.3913 8.69572H15.6522C15.6522 7.31198 15.1025 5.98492 14.1241 5.00647C13.1456 4.02802 11.8186 3.47833 10.4348 3.47833V1.7392Z" fill="black"/>
</svg>
