<svg width="20" height="20" viewBox="0 0 20 20" fill="none" xmlns="http://www.w3.org/2000/svg">
<path d="M3.33336 5.34501L0.630859 2.64334L1.81003 1.46417L4.51169 4.16667H17.2134C17.3433 4.16666 17.4713 4.19702 17.5874 4.25531C17.7035 4.31361 17.8043 4.39823 17.8819 4.50242C17.9594 4.60661 18.0116 4.72749 18.0341 4.85541C18.0566 4.98333 18.049 5.11475 18.0117 5.23917L16.0117 11.9058C15.9602 12.0776 15.8548 12.2281 15.711 12.3352C15.5671 12.4422 15.3926 12.5 15.2134 12.5H5.00003V14.1667H14.1667V15.8333H4.16669C3.94568 15.8333 3.73372 15.7455 3.57744 15.5893C3.42116 15.433 3.33336 15.221 3.33336 15V5.34501ZM5.00003 5.83334V10.8333H14.5934L16.0934 5.83334H5.00003ZM4.58336 19.1667C4.25184 19.1667 3.9339 19.035 3.69948 18.8006C3.46506 18.5661 3.33336 18.2482 3.33336 17.9167C3.33336 17.5852 3.46506 17.2672 3.69948 17.0328C3.9339 16.7984 4.25184 16.6667 4.58336 16.6667C4.91488 16.6667 5.23282 16.7984 5.46724 17.0328C5.70166 17.2672 5.83336 17.5852 5.83336 17.9167C5.83336 18.2482 5.70166 18.5661 5.46724 18.8006C5.23282 19.035 4.91488 19.1667 4.58336 19.1667ZM14.5834 19.1667C14.2518 19.1667 13.9339 19.035 13.6995 18.8006C13.4651 18.5661 13.3334 18.2482 13.3334 17.9167C13.3334 17.5852 13.4651 17.2672 13.6995 17.0328C13.9339 16.7984 14.2518 16.6667 14.5834 16.6667C14.9149 16.6667 15.2328 16.7984 15.4672 17.0328C15.7017 17.2672 15.8334 17.5852 15.8334 17.9167C15.8334 18.2482 15.7017 18.5661 15.4672 18.8006C15.2328 19.035 14.9149 19.1667 14.5834 19.1667Z" fill="#333030"/>
</svg>
