<svg width="20" height="20" viewBox="0 0 20 20" fill="none" xmlns="http://www.w3.org/2000/svg">
<path d="M14.5837 10.0002C17.1149 10.0002 19.167 12.0522 19.167 14.5836C19.167 17.1148 17.1149 19.1669 14.5837 19.1669C12.0523 19.1669 10.0003 17.1148 10.0003 14.5836C10.0003 12.0522 12.0523 10.0002 14.5837 10.0002ZM10.0188 11.6663C9.77158 12.0524 9.572 12.4719 9.42833 12.9166L3.54398 12.9168C3.19932 12.9168 2.91992 13.1962 2.91992 13.5409V14.0222C2.91992 14.4687 3.07918 14.9004 3.36906 15.2398C4.41348 16.4629 6.05171 17.0844 8.33366 17.0844C8.83066 17.0844 9.29725 17.0549 9.73383 16.9962C9.93816 17.4086 10.1944 17.7907 10.4934 18.1348C9.8305 18.2683 9.10975 18.3344 8.33366 18.3344C5.71208 18.3344 3.72374 17.5802 2.41849 16.0516C1.93535 15.4858 1.66992 14.7662 1.66992 14.0222V11.6663H10.0188ZM14.5837 11.6668L14.5087 11.6736C14.3387 11.7044 14.2046 11.8386 14.1737 12.0087L14.167 12.0835L14.1662 14.1669H12.0869L12.012 14.1736C11.8419 14.2045 11.7078 14.3386 11.6769 14.5087L11.6702 14.5836L11.6769 14.6584C11.7078 14.8285 11.8419 14.9627 12.012 14.9935L12.0869 15.0002H14.1662L14.167 17.0835L14.1737 17.1584C14.2046 17.3285 14.3387 17.4626 14.5087 17.4935L14.5837 17.5002L14.6585 17.4935C14.8286 17.4626 14.9627 17.3285 14.9936 17.1584L15.0003 17.0835L14.9995 15.0002H17.0869L17.1617 14.9935C17.3318 14.9627 17.466 14.8285 17.4968 14.6584L17.5036 14.5836L17.4968 14.5087C17.466 14.3386 17.3318 14.2045 17.1617 14.1736L17.0869 14.1669H14.9995L15.0003 12.0835L14.9936 12.0087C14.9627 11.8386 14.8286 11.7044 14.6585 11.6736L14.5837 11.6668ZM8.33366 1.67072C10.6348 1.67072 12.5003 3.5362 12.5003 5.83738C12.5003 8.13858 10.6348 10.0041 8.33366 10.0041C6.03245 10.0041 4.16696 8.13858 4.16696 5.83738C4.16696 3.5362 6.03245 1.67072 8.33366 1.67072ZM8.33366 2.92072C6.72281 2.92072 5.41696 4.22656 5.41696 5.83738C5.41696 7.44822 6.72281 8.75407 8.33366 8.75407C9.9445 8.75407 11.2503 7.44822 11.2503 5.83738C11.2503 4.22656 9.9445 2.92072 8.33366 2.92072Z" fill="black"/>
</svg>
