<svg width="18" height="17" viewBox="0 0 18 17" fill="none" xmlns="http://www.w3.org/2000/svg">
    <path d="M3.89914 0.380859C2.32118 0.380859 1.04199 1.66005 1.04199 3.238V13.5237C1.04199 15.1017 2.32118 16.3809 3.89914 16.3809H14.1848C15.7628 16.3809 17.042 15.1017 17.042 13.5237V7.04192C17.042 6.28416 16.741 5.55743 16.2052 5.02162L12.4012 1.2177C11.8654 0.681879 11.1387 0.380859 10.3809 0.380859H3.89914ZM2.18485 3.238C2.18485 2.29123 2.95236 1.52372 3.89914 1.52372H10.1848V5.52372C10.1848 6.47049 10.9524 7.238 11.8991 7.238H15.8991V13.5237C15.8991 14.4705 15.1316 15.238 14.1848 15.238H3.89914C2.95236 15.238 2.18485 14.4705 2.18485 13.5237V3.238ZM15.614 6.09515H11.8991C11.5835 6.09515 11.3277 5.83931 11.3277 5.52372V1.80887C11.4225 1.87168 11.5115 1.94421 11.5931 2.02582L15.397 5.82974C15.4786 5.91135 15.5512 6.00034 15.614 6.09515Z" fill="#14142B" stroke="black" stroke-width="0.55"/>
</svg>
