<svg width="20" height="20" viewBox="0 0 20 20" fill="none" xmlns="http://www.w3.org/2000/svg">
    <path d="M14.3931 9.07743C17.1341 9.07743 19.3563 11.2995 19.3563 14.0406C19.3563 16.7816 17.1341 19.0038 14.3931 19.0038C11.652 19.0038 9.42995 16.7816 9.42995 14.0406C9.42995 11.2995 11.652 9.07743 14.3931 9.07743ZM9.44999 10.8816C9.18225 11.2997 8.96612 11.7539 8.81055 12.2355L2.43855 12.2357C2.06533 12.2357 1.76277 12.5383 1.76277 12.9115V13.4327C1.76277 13.9162 1.93523 14.3837 2.24913 14.7512C3.38011 16.0757 5.1541 16.7487 7.62517 16.7487C8.16336 16.7487 8.6686 16.7167 9.14137 16.6531C9.36264 17.0997 9.64012 17.5136 9.9639 17.8862C9.24605 18.0307 8.46557 18.1023 7.62517 18.1023C4.78632 18.1023 2.6332 17.2855 1.21978 15.6303C0.696601 15.0176 0.40918 14.2384 0.40918 13.4327V10.8816H9.44999ZM14.3931 10.8821L14.312 10.8894C14.1278 10.9228 13.9826 11.0681 13.9491 11.2523L13.9419 11.3333L13.941 13.5894H11.6895L11.6083 13.5966C11.4242 13.6301 11.279 13.7753 11.2455 13.9595L11.2383 14.0406L11.2455 14.1216C11.279 14.3058 11.4242 14.4511 11.6083 14.4845L11.6895 14.4918H13.941L13.9419 16.7477L13.9491 16.8288C13.9826 17.013 14.1278 17.1582 14.312 17.1917L14.3931 17.1989L14.4742 17.1917C14.6583 17.1582 14.8036 17.013 14.837 16.8288L14.8443 16.7477L14.8434 14.4918H17.1038L17.1849 14.4845C17.369 14.4511 17.5143 14.3058 17.5477 14.1216L17.555 14.0406L17.5477 13.9595C17.5143 13.7753 17.369 13.6301 17.1849 13.5966L17.1038 13.5894H14.8434L14.8443 11.3333L14.837 11.2523C14.8036 11.0681 14.6583 10.9228 14.4742 10.8894L14.3931 10.8821ZM7.62517 0.0576172C10.117 0.0576172 12.1371 2.0777 12.1371 4.56959C12.1371 7.06149 10.117 9.08158 7.62517 9.08158C5.13324 9.08158 3.11316 7.06149 3.11316 4.56959C3.11316 2.0777 5.13324 0.0576172 7.62517 0.0576172ZM7.62517 1.41121C5.88081 1.41121 4.46675 2.82527 4.46675 4.56959C4.46675 6.31392 5.88081 7.72799 7.62517 7.72799C9.3695 7.72799 10.7835 6.31392 10.7835 4.56959C10.7835 2.82527 9.3695 1.41121 7.62517 1.41121Z" fill="black"/>
</svg>
