<svg width="20" height="20" viewBox="0 0 20 20" fill="none" xmlns="http://www.w3.org/2000/svg">
<path d="M17.5 2.5C17.721 2.5 17.933 2.5878 18.0893 2.74408C18.2456 2.90036 18.3334 3.11232 18.3334 3.33333V7.91667C17.7808 7.91667 17.2509 8.13616 16.8602 8.52686C16.4695 8.91756 16.25 9.44747 16.25 10C16.25 10.5525 16.4695 11.0824 16.8602 11.4731C17.2509 11.8638 17.7808 12.0833 18.3334 12.0833V16.6667C18.3334 16.8877 18.2456 17.0996 18.0893 17.2559C17.933 17.4122 17.721 17.5 17.5 17.5H2.50002C2.27901 17.5 2.06704 17.4122 1.91076 17.2559C1.75448 17.0996 1.66669 16.8877 1.66669 16.6667V12.0833C2.21922 12.0833 2.74913 11.8638 3.13983 11.4731C3.53053 11.0824 3.75002 10.5525 3.75002 10C3.75002 9.44747 3.53053 8.91756 3.13983 8.52686C2.74913 8.13616 2.21922 7.91667 1.66669 7.91667V3.33333C1.66669 3.11232 1.75448 2.90036 1.91076 2.74408C2.06704 2.5878 2.27901 2.5 2.50002 2.5H17.5ZM16.6667 4.16667H3.33335V6.64L3.46335 6.7075C4.02862 7.01587 4.50496 7.4646 4.84649 8.01047C5.18803 8.55634 5.38325 9.18096 5.41335 9.82417L5.41669 10C5.41679 10.6735 5.23545 11.3347 4.89173 11.9139C4.54801 12.4931 4.05459 12.969 3.46335 13.2917L3.33335 13.36V15.8333H16.6667V13.3592L16.5367 13.2925C15.9714 12.9841 15.4951 12.5354 15.1535 11.9895C14.812 11.4437 14.6168 10.819 14.5867 10.1758L14.5834 10C14.5834 8.58 15.3725 7.34417 16.5367 6.70833L16.6667 6.63917V4.16667ZM13.3334 7.5V12.5H6.66669V7.5H13.3334Z" fill="#333030"/>
</svg>
