<svg width="20" height="20" viewBox="0 0 20 20" fill="none" xmlns="http://www.w3.org/2000/svg">
<path d="M7.95841 9.58366C7.46113 9.58366 6.98422 9.38611 6.63259 9.03448C6.28096 8.68285 6.08341 8.20594 6.08341 7.70866C6.08341 7.21138 6.28096 6.73446 6.63259 6.38283C6.98422 6.0312 7.46113 5.83366 7.95841 5.83366C8.4557 5.83366 8.93261 6.0312 9.28424 6.38283C9.63587 6.73446 9.83342 7.21138 9.83342 7.70866C9.83342 8.20594 9.63587 8.68285 9.28424 9.03448C8.93261 9.38611 8.4557 9.58366 7.95841 9.58366ZM8.33341 16.457V13.667C8.33341 13.2603 8.45341 12.8862 8.67008 12.552C7.9273 12.4463 7.17065 12.4968 6.44846 12.7001C5.72628 12.9034 5.05446 13.2551 4.47591 13.7328C5.38681 15.0808 6.75853 16.0498 8.33341 16.4578V16.457ZM3.71091 12.217C4.92799 11.3163 6.40265 10.8313 7.91675 10.8337C8.78591 10.8337 9.61925 10.9903 10.3892 11.277C11.1209 10.9912 11.9934 10.8337 12.9167 10.8337C14.3001 10.8337 15.5709 11.187 16.4217 11.797C16.703 10.7886 16.7429 9.72804 16.538 8.70134C16.3331 7.67464 15.8894 6.71062 15.2426 5.88735C14.5958 5.06409 13.7643 4.40472 12.8152 3.96265C11.8662 3.52057 10.8264 3.30822 9.78004 3.3428C8.73368 3.37737 7.71016 3.6579 6.79239 4.16166C5.87462 4.66541 5.08839 5.37824 4.49738 6.24241C3.90637 7.10657 3.5272 8.09778 3.39056 9.13576C3.25393 10.1737 3.36367 11.2293 3.71091 12.217ZM15.7326 13.4053C15.4051 12.9612 14.3092 12.5003 12.9167 12.5003C11.2451 12.5003 10.0001 13.1645 10.0001 13.667V16.667C11.1566 16.6676 12.2934 16.3672 13.2987 15.7954C14.3039 15.2235 15.143 14.3998 15.7334 13.4053H15.7326ZM10.0001 18.3337C5.39758 18.3337 1.66675 14.6028 1.66675 10.0003C1.66675 5.39783 5.39758 1.66699 10.0001 1.66699C14.6026 1.66699 18.3334 5.39783 18.3334 10.0003C18.3334 14.6028 14.6026 18.3337 10.0001 18.3337ZM12.9167 10.417C12.4747 10.417 12.0508 10.2414 11.7382 9.92884C11.4257 9.61628 11.2501 9.19235 11.2501 8.75033C11.2501 8.3083 11.4257 7.88438 11.7382 7.57181C12.0508 7.25925 12.4747 7.08366 12.9167 7.08366C13.3588 7.08366 13.7827 7.25925 14.0953 7.57181C14.4078 7.88438 14.5834 8.3083 14.5834 8.75033C14.5834 9.19235 14.4078 9.61628 14.0953 9.92884C13.7827 10.2414 13.3588 10.417 12.9167 10.417Z" fill="#333030"/>
</svg>
