<svg width="20" height="20" viewBox="0 0 20 20" fill="none" xmlns="http://www.w3.org/2000/svg">
<path d="M2.16667 16.6725V16.3333H16.6667H17.1667V15.8333V6.08333V4.96065L16.3322 5.71169L10 11.4107L2.16667 4.36065V3.33333C2.16667 3.24493 2.20179 3.16014 2.2643 3.09763L1.91074 2.74408L2.2643 3.09763C2.32681 3.03512 2.41159 3 2.5 3H17.5C17.5884 3 17.6732 3.03512 17.7357 3.09763C17.7982 3.16014 17.8333 3.24493 17.8333 3.33333V16.6703C17.8324 16.7574 17.7974 16.8406 17.7358 16.9023L18.0896 17.2557L17.7358 16.9023C17.6743 16.9638 17.5912 16.9989 17.5042 17H2.49384C2.40704 16.9999 2.32382 16.9654 2.26247 16.904C2.20113 16.8426 2.16667 16.7593 2.16667 16.6725ZM3.695 3.66667H2.39211L3.3605 4.5383L9.6655 10.2133L10 10.5144L10.3345 10.2133L16.6395 4.5383L17.6079 3.66667H16.305H3.695ZM0.5 13H6.16667V13.6667H0.5V13ZM0.5 8.83333H3.66667V9.5H0.5V8.83333Z" stroke="black"/>
</svg>
