<svg width="22" height="22" viewBox="0 0 22 22" fill="none" xmlns="http://www.w3.org/2000/svg">
    <g clip-path="url(#clip0_1367_2832)">
        <path d="M7.55215 2.68054C7.73895 2.16749 8.08485 1.72334 8.54221 1.40926C8.99956 1.09517 9.54588 0.926601 10.1059 0.926758H11.9107C13.0892 0.926758 14.0918 1.65896 14.4645 2.68054H19.1299C19.3692 2.68054 19.5987 2.77292 19.768 2.93737C19.9372 3.10182 20.0323 3.32486 20.0323 3.55743V17.5877C20.0323 17.8202 19.9372 18.0433 19.768 18.2077C19.5987 18.3722 19.3692 18.4645 19.1299 18.4645H2.88677C2.64744 18.4645 2.41791 18.3722 2.24868 18.2077C2.07945 18.0433 1.98438 17.8202 1.98438 17.5877V3.55743C1.98438 3.32486 2.07945 3.10182 2.24868 2.93737C2.41791 2.77292 2.64744 2.68054 2.88677 2.68054H7.55215ZM3.78916 4.43431V16.7108H18.2275V4.43431H14.4645C14.2777 4.94736 13.9318 5.39151 13.4744 5.70559C13.0171 6.01968 12.4708 6.18825 11.9107 6.18809H10.1059C9.54588 6.18825 8.99956 6.01968 8.54221 5.70559C8.08485 5.39151 7.73895 4.94736 7.55215 4.43431H3.78916ZM10.1059 2.68054C9.86659 2.68054 9.63707 2.77292 9.46783 2.93737C9.2986 3.10182 9.20353 3.32486 9.20353 3.55743C9.20353 3.78999 9.2986 4.01303 9.46783 4.17748C9.63707 4.34193 9.86659 4.43431 10.1059 4.43431H11.9107C12.15 4.43431 12.3796 4.34193 12.5488 4.17748C12.718 4.01303 12.8131 3.78999 12.8131 3.55743C12.8131 3.32486 12.718 3.10182 12.5488 2.93737C12.3796 2.77292 12.15 2.68054 11.9107 2.68054H10.1059ZM9.20353 7.94187L13.7155 10.5725L9.20353 13.2032V7.94187Z" fill="#333030"/>
    </g>
    <defs>
        <clipPath id="clip0_1367_2832">
            <rect width="21.6575" height="21.0453" fill="white" transform="translate(0.179688 0.0498047)"/>
        </clipPath>
    </defs>
</svg>
