<svg width="24" height="24" viewBox="0 0 24 24" fill="none" xmlns="http://www.w3.org/2000/svg">
    <path d="M3.5 16H3.25C2.00736 16 1 14.9926 1 13.75V4.75C1 3.23122 2.23122 2 3.75 2H15.75C16.9926 2 18 3.00736 18 4.25V4.5H16.5V4.25C16.5 3.83579 16.1642 3.5 15.75 3.5H3.75C3.05964 3.5 2.5 4.05964 2.5 4.75V13.75C2.5 14.1642 2.83579 14.5 3.25 14.5H3.5V16ZM6.75 5.5C5.50736 5.5 4.5 6.50736 4.5 7.75V17.25C4.5 18.4926 5.50736 19.5 6.75 19.5H10.7322C10.4876 19.0307 10.2986 18.5278 10.1739 18H6.75C6.33579 18 6 17.6642 6 17.25V7.75C6 7.33579 6.33579 7 6.75 7H18.75C19.1642 7 19.5 7.33579 19.5 7.75V10.7322C20.051 11.0194 20.5557 11.3832 21 11.8096V7.75C21 6.50736 19.9926 5.5 18.75 5.5H6.75ZM22 16.5C22 19.5376 19.5376 22 16.5 22C13.4624 22 11 19.5376 11 16.5C11 13.4624 13.4624 11 16.5 11C19.5376 11 22 13.4624 22 16.5ZM13.5 16C13.2239 16 13 16.2239 13 16.5C13 16.7761 13.2239 17 13.5 17H18.2929L16.6464 18.6464C16.4512 18.8417 16.4512 19.1583 16.6464 19.3536C16.8417 19.5488 17.1583 19.5488 17.3536 19.3536L19.8536 16.8536C20.0488 16.6583 20.0488 16.3417 19.8536 16.1464L17.3536 13.6464C17.1583 13.4512 16.8417 13.4512 16.6464 13.6464C16.4512 13.8417 16.4512 14.1583 16.6464 14.3536L18.2929 16H13.5Z" fill="#14142B"/>
</svg>
