<svg width="20" height="20" viewBox="0 0 20 20" fill="none" xmlns="http://www.w3.org/2000/svg">
<path d="M6.80835 2.49998C6.98086 2.01242 7.30029 1.59033 7.72264 1.29185C8.145 0.993362 8.64951 0.833164 9.16669 0.833313H10.8334C11.9217 0.833313 12.8475 1.52915 13.1917 2.49998H17.5C17.721 2.49998 17.933 2.58778 18.0893 2.74406C18.2456 2.90034 18.3334 3.1123 18.3334 3.33331V16.6666C18.3334 16.8877 18.2456 17.0996 18.0893 17.2559C17.933 17.4122 17.721 17.5 17.5 17.5H2.50002C2.27901 17.5 2.06704 17.4122 1.91076 17.2559C1.75448 17.0996 1.66669 16.8877 1.66669 16.6666V3.33331C1.66669 3.1123 1.75448 2.90034 1.91076 2.74406C2.06704 2.58778 2.27901 2.49998 2.50002 2.49998H6.80835ZM3.33335 4.16665V15.8333H16.6667V4.16665H13.1917C13.0192 4.65421 12.6998 5.0763 12.2774 5.37478C11.855 5.67326 11.3505 5.83346 10.8334 5.83331H9.16669C8.64951 5.83346 8.145 5.67326 7.72264 5.37478C7.30029 5.0763 6.98086 4.65421 6.80835 4.16665H3.33335ZM9.16669 2.49998C8.94567 2.49998 8.73371 2.58778 8.57743 2.74406C8.42115 2.90034 8.33335 3.1123 8.33335 3.33331C8.33335 3.55433 8.42115 3.76629 8.57743 3.92257C8.73371 4.07885 8.94567 4.16665 9.16669 4.16665H10.8334C11.0544 4.16665 11.2663 4.07885 11.4226 3.92257C11.5789 3.76629 11.6667 3.55433 11.6667 3.33331C11.6667 3.1123 11.5789 2.90034 11.4226 2.74406C11.2663 2.58778 11.0544 2.49998 10.8334 2.49998H9.16669ZM8.33335 7.49998L12.5 9.99998L8.33335 12.5V7.49998Z" fill="#333030"/>
</svg>
